<svg width="151" height="150" viewBox="0 0 151 150" fill="none" xmlns="http://www.w3.org/2000/svg">
<path d="M111.126 84.6775C117.586 76.7614 121.469 66.6581 121.469 55.6452C121.469 50.567 120.612 45.6968 119.093 41.1291H111.791C110.456 41.1291 109.372 40.0452 109.372 38.7098V24.646C100.967 15.467 88.926 9.67749 75.5009 9.67749C50.1147 9.67749 29.5332 30.2589 29.5332 55.6452C29.5332 66.6581 33.4163 76.7614 39.8759 84.6775H111.126Z" fill="#F68B21"/>
<path d="M135.984 29.0322H140.823V33.8709H135.984V29.0322Z" fill="#1037B6"/>
<path d="M126.307 29.0322H131.145V33.8709H126.307V29.0322Z" fill="#1037B6"/>
<path d="M46.469 106.452C50.4706 106.452 53.7271 103.195 53.7271 99.1936C53.7271 95.192 50.4706 91.9355 46.469 91.9355C42.4674 91.9355 39.2109 95.192 39.2109 99.1936C39.2109 103.195 42.4674 106.452 46.469 106.452ZM46.469 96.7743C47.8045 96.7743 48.8884 97.8581 48.8884 99.1936C48.8884 100.529 47.8045 101.613 46.469 101.613C45.1335 101.613 44.0496 100.529 44.0496 99.1936C44.0496 97.8581 45.1335 96.7743 46.469 96.7743Z" fill="#1037B6"/>
<path d="M65.8225 106.452C69.8241 106.452 73.0806 103.195 73.0806 99.1936C73.0806 95.192 69.8241 91.9355 65.8225 91.9355C61.8209 91.9355 58.5645 95.192 58.5645 99.1936C58.5645 103.195 61.8209 106.452 65.8225 106.452ZM65.8225 96.7743C67.158 96.7743 68.2419 97.8581 68.2419 99.1936C68.2419 100.529 67.158 101.613 65.8225 101.613C64.487 101.613 63.4032 100.529 63.4032 99.1936C63.4032 97.8581 64.487 96.7743 65.8225 96.7743Z" fill="#1037B6"/>
<path d="M85.176 106.452C89.1776 106.452 92.4341 103.195 92.4341 99.1936C92.4341 95.192 89.1776 91.9355 85.176 91.9355C81.1744 91.9355 77.918 95.192 77.918 99.1936C77.918 103.195 81.1744 106.452 85.176 106.452ZM85.176 96.7743C86.5115 96.7743 87.5954 97.8581 87.5954 99.1936C87.5954 100.529 86.5115 101.613 85.176 101.613C83.8405 101.613 82.7567 100.529 82.7567 99.1936C82.7567 97.8581 83.8405 96.7743 85.176 96.7743Z" fill="#1037B6"/>
<path d="M104.531 106.452C108.533 106.452 111.79 103.195 111.79 99.1936C111.79 95.192 108.533 91.9355 104.531 91.9355C100.53 91.9355 97.2734 95.192 97.2734 99.1936C97.2734 103.195 100.53 106.452 104.531 106.452ZM104.531 96.7743C105.867 96.7743 106.951 97.8581 106.951 99.1936C106.951 100.529 105.867 101.613 104.531 101.613C103.196 101.613 102.112 100.529 102.112 99.1936C102.112 97.8581 103.196 96.7743 104.531 96.7743Z" fill="#1037B6"/>
<path d="M150.5 38.7097V4.83871C150.5 2.17016 148.33 0 145.661 0H111.79C109.122 0 106.952 2.17016 106.952 4.83871V9.74516C97.7363 3.43548 86.7452 0 75.5 0C46.6927 0 22.9323 22.0016 20.1331 50.0831L14.3073 44.2573L10.8863 47.6782L22.2742 59.0661L33.6621 47.6782L30.2411 44.2573L25.1218 49.3766C25.579 45.6798 26.4476 42.1185 27.6573 38.7097H46.2766C44.825 44.1653 44.0484 49.8484 44.0484 55.6452C44.0484 61.3597 44.8323 67.0621 46.3056 72.5807H29.5323V77.4194H47.7936C48.3669 79.0548 48.979 80.6734 49.6806 82.2581H26.1887L16.0565 61.9936C14.8444 59.5694 12.4081 58.0645 9.70081 58.0645C7.83065 58.0645 5.99919 58.8218 4.67581 60.1452L3.84597 60.975C1.71935 63.1016 0.5 66.046 0.5 69.0532C0.5 69.9919 0.616129 70.9234 0.843548 71.8234L10.1774 109.164V130.645C10.1774 133.314 12.3476 135.484 15.0161 135.484H18.5121C20.1911 135.484 21.725 134.632 22.6153 133.212L33.0718 116.482L45.6427 119.625L35.0387 140.833C34.6032 141.706 34.371 142.689 34.371 143.666C34.371 147.157 37.2137 150 40.7048 150H49.4871C51.2484 150 52.9468 149.361 54.2677 148.205L79.8645 125.806H97.2742C99.9427 125.806 102.113 123.636 102.113 120.968H142.115C146.738 120.968 150.5 117.206 150.5 112.582C150.5 111.377 150.248 110.211 149.748 109.11L142.052 92.1847C139.313 86.1556 133.262 82.2581 126.638 82.2581H124.369C128.806 74.1242 131.145 65.0129 131.145 55.6452C131.145 51.5589 130.683 47.5065 129.805 43.5484H145.661C148.33 43.5484 150.5 41.3782 150.5 38.7097ZM126.306 4.83871H131.145V9.67742H126.306V4.83871ZM111.79 4.83871H121.468V14.5161H135.984V4.83871H145.661L145.666 38.7097H111.79V4.83871ZM106.952 33.871H103.221C99.3863 22.9379 92.7065 13.1371 83.721 5.53065C92.1766 6.92177 100.19 10.4468 106.952 15.7887V33.871ZM75.5 5.34919C85.925 12.45 93.7202 22.4371 98.0944 33.871H52.9056C57.2798 22.4371 65.075 12.45 75.5 5.34919ZM29.6653 33.871C36.6984 19.1298 50.5976 8.31532 67.2258 5.57419C58.2645 13.1734 51.6065 22.9573 47.779 33.871H29.6653ZM48.8871 55.6452C48.8871 49.829 49.7363 44.1436 51.3065 38.7097H99.6936C101.264 44.1436 102.113 49.829 102.113 55.6452C102.113 61.3742 101.269 67.0839 99.6766 72.5807H51.321C49.729 67.0839 48.8871 61.3718 48.8871 55.6452ZM52.9347 77.4194H98.075C97.446 79.0645 96.725 80.6734 95.9557 82.2581H55.0444C54.275 80.6734 53.5637 79.0645 52.9347 77.4194ZM29.329 113.342L18.5121 130.645H15.0161V111.29H28.1895C28.9298 111.29 29.5323 111.893 29.5323 112.633C29.5323 112.882 29.4621 113.129 29.329 113.342ZM51.079 144.564C50.6411 144.948 50.075 145.161 49.4871 145.161H40.7048C39.8798 145.161 39.2097 144.491 39.2097 143.666C39.2097 143.434 39.2629 143.204 39.3669 142.998L52.8016 116.129H83.5782L51.079 144.564ZM97.2742 120.968H85.3952L90.9258 116.129H97.2742V120.968ZM138.824 96.7742L141.023 101.613H123.887C122.552 101.613 121.468 100.529 121.468 99.1936C121.468 97.8581 122.552 96.7742 123.887 96.7742H138.824ZM136.274 91.9355H123.887C119.885 91.9355 116.629 95.1919 116.629 99.1936C116.629 103.195 119.885 106.452 123.887 106.452H143.225L145.344 111.116C145.555 111.578 145.661 112.072 145.661 112.582C145.661 114.54 144.072 116.129 142.115 116.129H102.113C102.113 113.46 99.9427 111.29 97.2742 111.29H52.8016C50.9532 111.29 49.296 112.316 48.4734 113.964L47.8589 115.193L34.2863 111.801C33.875 108.789 31.3129 106.452 28.1895 106.452H14.4839L5.53468 70.6452C5.40403 70.1274 5.33871 69.5927 5.33871 69.0532C5.33871 67.3186 6.04032 65.6226 7.26694 64.396L8.09677 63.5661C9.12984 62.5306 11.0702 62.8452 11.7282 64.1565L21.9016 84.5032L17.8419 90.5927L21.8677 93.2758L25.9879 87.0968H126.638C130.475 87.0968 134.017 88.9476 136.274 91.9355ZM101.307 82.2581C102.009 80.6734 102.628 79.0548 103.202 77.4194H121.398C120.611 79.0766 119.719 80.6855 118.751 82.2581H101.307ZM126.306 55.6452C126.306 61.4686 125.295 67.1782 123.386 72.5807H104.697C106.168 67.0621 106.952 61.3621 106.952 55.6452C106.952 49.8484 106.175 44.1653 104.721 38.7097H106.952C106.952 41.3782 109.122 43.5484 111.79 43.5484H124.828C125.791 47.4919 126.306 51.5492 126.306 55.6452Z" fill="#1037B6"/>
</svg>
