<svg width="151" height="150" viewBox="0 0 151 150" fill="none" xmlns="http://www.w3.org/2000/svg">
<path d="M75.5 147.803C115.708 147.803 148.303 115.208 148.303 75C148.303 34.7922 115.708 2.19727 75.5 2.19727C35.2922 2.19727 2.69727 34.7922 2.69727 75C2.69727 115.208 35.2922 147.803 75.5 147.803Z" fill="#1037B6"/>
<path d="M75.4999 2.19727C74.2003 2.19727 72.9089 2.23271 71.626 2.3001C110.033 4.31396 140.555 36.0917 140.555 75C140.555 113.908 110.033 145.686 71.6263 147.7C72.9092 147.767 74.2003 147.803 75.5002 147.803C115.708 147.803 148.303 115.208 148.303 75C148.303 34.7921 115.708 2.19727 75.4999 2.19727Z" fill="#F68B21"/>
<path d="M75.4999 131.731C106.832 131.731 132.231 106.332 132.231 74.9999C132.231 43.668 106.832 18.2686 75.4999 18.2686C44.168 18.2686 18.7686 43.668 18.7686 74.9999C18.7686 106.332 44.168 131.731 75.4999 131.731Z" fill="#F4FBFF"/>
<path d="M75.5002 18.2686C73.929 18.2686 72.3736 18.3354 70.835 18.4607C99.9842 20.8338 122.901 45.2393 122.901 74.9999C122.901 104.761 99.9842 129.166 70.835 131.539C72.3739 131.664 73.9293 131.731 75.5002 131.731C106.832 131.731 132.232 106.332 132.232 74.9999C132.232 43.6681 106.832 18.2686 75.5002 18.2686Z" fill="#DAF1F4"/>
<path d="M75.5004 80.8645C78.7393 80.8645 81.365 78.2389 81.365 74.9999C81.365 71.7609 78.7393 69.1353 75.5004 69.1353C72.2614 69.1353 69.6357 71.7609 69.6357 74.9999C69.6357 78.2389 72.2614 80.8645 75.5004 80.8645Z" fill="#F68B21"/>
<path d="M75.5 35.7296C76.7135 35.7296 77.6973 34.7459 77.6973 33.5324V30.3074C77.6973 29.0939 76.7135 28.1101 75.5 28.1101C74.2865 28.1101 73.3027 29.0939 73.3027 30.3074V33.5324C73.3027 34.7459 74.2865 35.7296 75.5 35.7296Z" fill="black"/>
<path d="M108.537 41.8934C107.679 41.0353 106.288 41.035 105.43 41.8934L103.15 44.1736C102.291 45.0317 102.291 46.423 103.149 47.2811C103.579 47.71 104.141 47.9248 104.703 47.9248C105.266 47.9248 105.828 47.7103 106.257 47.2814L108.537 45.001C109.395 44.1429 109.395 42.7515 108.537 41.8934Z" fill="black"/>
<path d="M116.729 72.803C115.515 72.803 114.531 73.7868 114.531 75.0002C114.531 76.2137 115.515 77.1975 116.729 77.1975H119.954C121.167 77.1975 122.151 76.214 122.151 75.0002C122.151 73.7865 121.167 72.803 119.954 72.803H116.729Z" fill="black"/>
<path d="M106.087 102.649C105.229 101.791 103.838 101.791 102.98 102.649C102.121 103.508 102.121 104.899 102.98 105.757L105.26 108.037C105.689 108.466 106.251 108.68 106.814 108.68C107.376 108.68 107.938 108.466 108.368 108.037C109.226 107.179 109.226 105.788 108.368 104.929L106.087 102.649Z" fill="black"/>
<path d="M73.0635 116.229V119.454C73.0635 120.668 74.0473 121.652 75.2607 121.652C76.4742 121.652 77.458 120.668 77.458 119.454V116.229C77.458 115.015 76.4745 114.032 75.2607 114.032C74.047 114.032 73.0635 115.015 73.0635 116.229Z" fill="black"/>
<path d="M44.5041 102.48L42.2237 104.76C41.3656 105.618 41.3656 107.009 42.2237 107.867C42.6526 108.296 43.2151 108.511 43.7773 108.511C44.3395 108.511 44.902 108.296 45.3309 107.868L47.6114 105.587C48.4695 104.729 48.4695 103.338 47.6114 102.48C46.7536 101.622 45.3622 101.622 44.5041 102.48Z" fill="black"/>
<path d="M30.8066 72.5637C29.5932 72.5637 28.6094 73.5475 28.6094 74.761C28.6094 75.9748 29.5932 76.9582 30.8066 76.9582H34.0316C35.2451 76.9582 36.2289 75.9748 36.2289 74.761C36.2289 73.5475 35.2451 72.5637 34.0316 72.5637H30.8066Z" fill="black"/>
<path d="M47.7815 44.0045L45.501 41.724C44.6426 40.8659 43.2519 40.8662 42.3935 41.724C41.5354 42.5821 41.5357 43.9734 42.3935 44.8315L44.6739 47.1117C45.1031 47.5409 45.6653 47.7554 46.2276 47.7554C46.7898 47.7554 47.3523 47.5409 47.7815 47.1117C48.6396 46.2536 48.6393 44.8626 47.7815 44.0045Z" fill="black"/>
<path d="M81.3879 80.4983L97.0389 88.5462C98.1246 89.1046 99.4459 88.6698 99.9979 87.5969C100.553 86.5176 100.128 85.1931 99.0487 84.638L83.4029 76.5928C83.5067 76.0774 83.5617 75.5448 83.5617 74.9996C83.5617 71.3161 81.0777 68.2039 77.6974 67.2447V44.8481C77.6974 43.6347 76.7136 42.6509 75.5001 42.6509C74.2866 42.6509 73.3028 43.6347 73.3028 44.8481V67.2447C70.6216 68.0056 68.5061 70.1211 67.7452 72.8023H56.8389C55.6254 72.8023 54.6416 73.7861 54.6416 74.9996C54.6416 76.2131 55.6254 77.1968 56.8389 77.1968H67.7452C68.7044 80.5771 71.8166 83.0615 75.5001 83.0615C77.8216 83.0618 79.9157 82.0742 81.3879 80.4983ZM75.4998 78.6673C73.4777 78.6673 71.8324 77.0222 71.8324 74.9999C71.8324 72.9778 73.4775 71.3325 75.4998 71.3325C77.5219 71.3325 79.1669 72.9775 79.1669 74.9999C79.1672 77.0222 77.5219 78.6673 75.4998 78.6673Z" fill="#F68B21"/>
<path d="M132.231 72.7985C133.441 72.706 134.347 71.6501 134.254 70.4398C133.124 55.6763 126.511 41.9715 115.633 31.8497C104.698 21.6749 90.4454 16.0713 75.4999 16.0713C43.0067 16.0713 16.5713 42.5064 16.5713 74.9999C16.5713 107.493 43.0067 133.929 75.4999 133.929C106.231 133.929 131.903 110.255 134.254 79.5605C134.346 78.3506 133.441 77.2947 132.231 77.2019C131.026 77.1113 129.965 78.0148 129.872 79.2251C127.702 107.566 103.998 129.534 75.4999 129.534C45.4296 129.534 20.9658 105.07 20.9658 74.9999C20.9658 44.9296 45.4296 20.4658 75.4999 20.4658C89.3304 20.4658 102.52 25.6514 112.639 35.0671C122.706 44.4345 128.827 57.1159 129.872 70.7756C129.965 71.985 131.017 72.8932 132.231 72.7985Z" fill="black"/>
<path d="M128.534 21.9671C114.368 7.80117 95.534 0 75.5005 0C61.1031 0 47.1168 4.09102 35.0529 11.8312C34.0316 12.4866 33.7348 13.8457 34.3902 14.8673C35.0456 15.8883 36.4044 16.1851 37.4263 15.53C48.7803 8.24502 61.9463 4.39453 75.5005 4.39453C94.36 4.39453 112.09 11.7387 125.426 25.0743C138.762 38.41 146.106 56.1404 146.106 75C146.106 114.021 114.527 145.605 75.5005 145.605C68.5269 145.605 61.6299 144.587 55.0009 142.579C53.8392 142.227 52.6126 142.883 52.261 144.045C51.9092 145.207 52.5654 146.433 53.7267 146.785C60.7694 148.918 68.0951 150 75.5005 150C116.951 150 150.5 116.456 150.5 75C150.5 54.9668 142.699 36.1327 128.534 21.9671Z" fill="black"/>
<path d="M47.0105 139.617C21.4262 128.32 4.89453 102.956 4.89453 75.0001C4.89453 53.8747 14.2435 34.0305 30.5439 20.5551C31.4791 19.7819 31.6106 18.3971 30.8372 17.4616C30.0644 16.5268 28.6795 16.3952 27.7437 17.1681C10.4302 31.481 0.5 52.5599 0.5 75.0001C0.5 104.695 18.0597 131.637 45.2352 143.637C45.5237 143.765 45.8252 143.825 46.1217 143.825C46.9654 143.825 47.7699 143.337 48.1329 142.515C48.623 141.405 48.1206 140.107 47.0105 139.617Z" fill="black"/>
</svg>
