<svg width="121" height="104" viewBox="0 0 121 104" fill="none" xmlns="http://www.w3.org/2000/svg">
<circle cx="75.5" cy="58.5" r="45.5" fill="#F68B21"/>
<path d="M50 99.0352C76.8052 99.0352 98.5352 77.3052 98.5352 50.5C98.5352 23.6948 76.8052 1.96484 50 1.96484C23.1948 1.96484 1.46484 23.6948 1.46484 50.5C1.46484 77.3052 23.1948 99.0352 50 99.0352Z" fill="#1037B6"/>
<path d="M50.0001 1.96484C49.1337 1.96484 48.2728 1.98848 47.4175 2.0334C73.0222 3.37598 93.3702 24.5611 93.3702 50.5C93.3702 76.4389 73.0222 97.6242 47.4177 98.9666C48.273 99.0115 49.1337 99.0352 50.0003 99.0352C76.8056 99.0352 98.5355 77.3053 98.5355 50.5C98.5355 23.6947 76.8054 1.96484 50.0001 1.96484V1.96484Z" fill="#F68B21"/>
<path d="M50.0001 88.321C70.888 88.321 87.821 71.388 87.821 50.5001C87.821 29.6122 70.888 12.6792 50.0001 12.6792C29.1122 12.6792 12.1792 29.6122 12.1792 50.5001C12.1792 71.388 29.1122 88.321 50.0001 88.321Z" fill="#F4FBFF"/>
<path d="M50 12.6792C48.9526 12.6792 47.9157 12.7237 46.8899 12.8073C66.3227 14.3894 81.6006 30.6597 81.6006 50.5001C81.6006 70.3405 66.3227 86.6108 46.8899 88.1929C47.9159 88.2765 48.9528 88.321 50 88.321C70.8879 88.321 87.821 71.388 87.821 50.5001C87.821 29.6122 70.8879 12.6792 50 12.6792V12.6792Z" fill="#DAF1F4"/>
<path d="M50.0001 54.4099C52.1594 54.4099 53.9099 52.6594 53.9099 50.5001C53.9099 48.3408 52.1594 46.5903 50.0001 46.5903C47.8408 46.5903 46.0903 48.3408 46.0903 50.5001C46.0903 52.6594 47.8408 54.4099 50.0001 54.4099Z" fill="#F68B21"/>
<path d="M50 24.3199C50.809 24.3199 51.4648 23.6641 51.4648 22.8551V20.7051C51.4648 19.8961 50.809 19.2402 50 19.2402C49.191 19.2402 48.5352 19.8961 48.5352 20.7051V22.8551C48.5352 23.6641 49.191 24.3199 50 24.3199Z" fill="black"/>
<path d="M72.0249 28.4291C71.4529 27.8571 70.5253 27.8569 69.9534 28.4291L68.4331 29.9492C67.8609 30.5213 67.8609 31.4488 68.4329 32.0209C68.7191 32.3069 69.0939 32.45 69.4689 32.45C69.8437 32.45 70.2187 32.307 70.5046 32.0211L72.0249 30.5008C72.5968 29.9287 72.5968 29.0012 72.0249 28.4291Z" fill="black"/>
<path d="M77.4858 49.0352C76.6767 49.0352 76.021 49.691 76.021 50.5C76.021 51.309 76.6767 51.9648 77.4858 51.9648H79.6358C80.445 51.9648 81.1007 51.3092 81.1007 50.5C81.1007 49.6908 80.445 49.0352 79.6358 49.0352H77.4858Z" fill="black"/>
<path d="M70.3916 68.9328C69.8193 68.3609 68.892 68.3609 68.3199 68.9328C67.7479 69.5051 67.7479 70.4324 68.3199 71.0045L69.84 72.5246C70.1262 72.8106 70.5012 72.9535 70.876 72.9535C71.2508 72.9535 71.6258 72.8106 71.9119 72.5246C72.484 71.9523 72.484 71.025 71.9119 70.4529L70.3916 68.9328Z" fill="black"/>
<path d="M48.3755 77.9863V80.1363C48.3755 80.9455 49.0313 81.6012 49.8403 81.6012C50.6493 81.6012 51.3052 80.9455 51.3052 80.1363V77.9863C51.3052 77.1771 50.6495 76.5215 49.8403 76.5215C49.0312 76.5215 48.3755 77.1771 48.3755 77.9863Z" fill="black"/>
<path d="M29.3361 68.8199L27.8158 70.34C27.2437 70.9121 27.2437 71.8397 27.8158 72.4115C28.1017 72.6977 28.4767 72.8406 28.8515 72.8406C29.2263 72.8406 29.6013 72.6977 29.8873 72.4117L31.4076 70.8916C31.9796 70.3195 31.9796 69.392 31.4076 68.8201C30.8357 68.248 29.9082 68.2482 29.3361 68.8199Z" fill="black"/>
<path d="M20.2046 48.876C19.3956 48.876 18.7397 49.5318 18.7397 50.3408C18.7397 51.15 19.3956 51.8057 20.2046 51.8057H22.3546C23.1636 51.8057 23.8194 51.15 23.8194 50.3408C23.8194 49.5318 23.1636 48.876 22.3546 48.876H20.2046Z" fill="black"/>
<path d="M31.5207 29.8365L30.0004 28.3162C29.4282 27.7441 28.501 27.7443 27.9287 28.3162C27.3567 28.8883 27.3569 29.8158 27.9287 30.3879L29.4491 31.908C29.7352 32.1941 30.11 32.3371 30.4848 32.3371C30.8596 32.3371 31.2346 32.1941 31.5207 31.908C32.0928 31.3359 32.0926 30.4086 31.5207 29.8365Z" fill="black"/>
<path d="M53.9253 54.1657L64.3593 59.5309C65.0832 59.9032 65.964 59.6134 66.332 58.8981C66.7021 58.1786 66.4185 57.2956 65.6992 56.9255L55.2687 51.562C55.3379 51.2184 55.3746 50.8634 55.3746 50.4999C55.3746 48.0442 53.7185 45.9694 51.465 45.33V30.3989C51.465 29.5899 50.8091 28.9341 50.0002 28.9341C49.1912 28.9341 48.5353 29.5899 48.5353 30.3989V45.33C46.7478 45.8372 45.3375 47.2475 44.8302 49.035H37.5593C36.7503 49.035 36.0945 49.6909 36.0945 50.4999C36.0945 51.3089 36.7503 51.9647 37.5593 51.9647H44.8302C45.4697 54.2182 47.5445 55.8745 50.0002 55.8745C51.5478 55.8747 52.9439 55.2163 53.9253 54.1657V54.1657ZM50 52.945C48.6519 52.945 47.555 51.8483 47.555 50.5001C47.555 49.152 48.6517 48.0552 50 48.0552C51.348 48.0552 52.4447 49.1518 52.4447 50.5001C52.4449 51.8483 51.348 52.945 50 52.945Z" fill="#F68B21"/>
<path d="M87.821 49.0325C88.6276 48.9708 89.2316 48.2669 89.1698 47.4601C88.4161 37.6177 84.0073 28.4812 76.7554 21.7333C69.4655 14.9501 59.9638 11.2144 50.0001 11.2144C28.338 11.2144 10.7144 28.8378 10.7144 50.5001C10.7144 72.1624 28.338 89.7858 50.0001 89.7858C70.4876 89.7858 87.6024 74.0034 89.1696 53.5405C89.2312 52.7339 88.6276 52.03 87.8208 51.9681C87.0175 51.9077 86.3103 52.5101 86.2483 53.3169C84.8017 72.211 68.9987 86.8562 50.0001 86.8562C29.9532 86.8562 13.644 70.547 13.644 50.5001C13.644 30.4532 29.9532 14.144 50.0001 14.144C59.2204 14.144 68.0136 17.6011 74.7597 23.8782C81.471 30.1231 85.5513 38.5774 86.2483 47.6839C86.3103 48.4901 87.0114 49.0956 87.821 49.0325V49.0325Z" fill="black"/>
<path d="M85.3555 15.1447C75.9118 5.70078 63.3557 0.5 50.0001 0.5C40.4018 0.5 31.0776 3.22734 23.035 8.3875C22.3542 8.82441 22.1563 9.73047 22.5932 10.4115C23.0301 11.0922 23.936 11.29 24.6173 10.8533C32.1866 5.99668 40.9639 3.42969 50.0001 3.42969C62.5731 3.42969 74.3934 8.32578 83.2838 17.2162C92.1743 26.1066 97.0704 37.927 97.0704 50.5C97.0704 76.5143 76.018 97.5703 50.0001 97.5703C45.351 97.5703 40.753 96.8914 36.3337 95.5529C35.5592 95.3182 34.7415 95.7557 34.5071 96.5303C34.2725 97.3045 34.71 98.1221 35.4842 98.3568C40.1794 99.7789 45.0632 100.5 50.0001 100.5C77.6337 100.5 100 78.1373 100 50.5C100 37.1445 94.7991 24.5885 85.3555 15.1447Z" fill="black"/>
<path d="M31.007 93.5781C13.9508 86.0467 2.92969 69.1375 2.92969 50.5002C2.92969 36.4166 9.16231 23.1871 20.0293 14.2035C20.6527 13.6881 20.7404 12.7649 20.2248 12.1412C19.7096 11.518 18.7863 11.4303 18.1625 11.9455C6.62012 21.4875 0 35.5401 0 50.5002C0 70.2971 11.7064 88.2582 29.8234 96.2584C30.0158 96.3434 30.2168 96.3836 30.4145 96.3836C30.977 96.3836 31.5133 96.0578 31.7553 95.51C32.082 94.7699 31.7471 93.9051 31.007 93.5781V93.5781Z" fill="black"/>
</svg>
