<svg width="151" height="150" viewBox="0 0 151 150" fill="none" xmlns="http://www.w3.org/2000/svg">
<g clip-path="url(#clip0_108_4644)">
<path d="M141.125 37.4976H9.875C4.70937 37.4976 0.5 41.7069 0.5 46.8726V131.248C0.5 136.423 4.70937 140.623 9.875 140.623H141.125C146.3 140.623 150.5 136.423 150.5 131.248V46.8726C150.5 41.7069 146.3 37.4976 141.125 37.4976Z" fill="#1037B6"/>
<path d="M150.5 56.2476H0.5V84.3726H150.5V56.2476Z" fill="#F68B21"/>
<path d="M42.6875 112.498H23.9375C21.35 112.498 19.25 110.398 19.25 107.81C19.25 105.223 21.35 103.123 23.9375 103.123H42.6875C45.275 103.123 47.375 105.223 47.375 107.81C47.375 110.398 45.275 112.498 42.6875 112.498Z" fill="#FAFAFA"/>
<path d="M150.5 83.8663V46.8726C150.5 41.7069 146.3 37.4976 141.125 37.4976H66.125V46.8726C66.125 76.2351 77.3 94.1132 106.025 110.651C108.144 111.86 110.562 112.498 113 112.498C115.438 112.498 117.856 111.86 120.003 110.632C134.216 102.466 144.116 93.9444 150.5 83.8663Z" fill="#FAFAFA"/>
<path d="M147.659 23.8196L114.847 9.75713C113.656 9.25088 112.334 9.25088 111.144 9.75713L78.3313 23.8196C76.6156 24.5509 75.5 26.2478 75.5 28.1228V46.8728C75.5 72.6634 85.0344 87.7384 110.666 102.504C111.388 102.917 112.194 103.123 113 103.123C113.806 103.123 114.612 102.917 115.334 102.504C140.966 87.7759 150.5 72.7009 150.5 46.8728V28.1228C150.5 26.2478 149.384 24.5509 147.659 23.8196Z" fill="#F68B21"/>
<path d="M108.313 70.3101C108.247 70.3101 108.172 70.3101 108.116 70.3101C106.625 70.2445 105.247 69.4757 104.413 68.2288L95.0376 54.1663C93.6033 52.0101 94.1845 49.1038 96.3408 47.6694C98.4783 46.2444 101.394 46.8069 102.838 48.9726L108.66 57.7007L123.397 39.2694C125.019 37.2538 127.972 36.9351 129.988 38.5382C132.013 40.1601 132.331 43.1038 130.719 45.1288L111.969 68.5663C111.078 69.6632 109.728 70.3101 108.313 70.3101Z" fill="#FAFAFA"/>
</g>
<defs>
<clipPath id="clip0_108_4644">
<rect width="150" height="150" fill="white" transform="translate(0.5)"/>
</clipPath>
</defs>
</svg>
