<svg width="100" height="100" viewBox="0 0 100 100" fill="none" xmlns="http://www.w3.org/2000/svg">
<path d="M67.1875 76.5625H4.6875L7.8125 37.5H70.3125L67.1875 76.5625Z" fill="#F68B21"/>
<path d="M37.5 43.75C45.2665 43.75 51.5625 37.454 51.5625 29.6875C51.5625 21.921 45.2665 15.625 37.5 15.625C29.7335 15.625 23.4375 21.921 23.4375 29.6875C23.4375 37.454 29.7335 43.75 37.5 43.75Z" fill="#1037B6"/>
<path d="M37.5 15.625C41.2296 15.625 44.8065 17.1066 47.4437 19.7438C50.0809 22.381 51.5625 25.9579 51.5625 29.6875C51.5625 33.4171 50.0809 36.994 47.4437 39.6312C44.8065 42.2684 41.2296 43.75 37.5 43.75" fill="#1037B6"/>
<path d="M65.625 48.4375H87.5L95.3125 76.5625H62.5" fill="#F68B21"/>
<path d="M63.5625 37.5L60.9375 70.3125H5.1875L4.6875 76.5625H67.1875L70.3125 37.5H63.5625Z" fill="#F68B21"/>
<path d="M81.25 84.375C85.5647 84.375 89.0625 80.8772 89.0625 76.5625C89.0625 72.2478 85.5647 68.75 81.25 68.75C76.9353 68.75 73.4375 72.2478 73.4375 76.5625C73.4375 80.8772 76.9353 84.375 81.25 84.375Z" fill="#646464"/>
<path d="M18.75 84.375C23.0647 84.375 26.5625 80.8772 26.5625 76.5625C26.5625 72.2478 23.0647 68.75 18.75 68.75C14.4353 68.75 10.9375 72.2478 10.9375 76.5625C10.9375 80.8772 14.4353 84.375 18.75 84.375Z" fill="#646464"/>
<path d="M18.75 79.6875C20.4759 79.6875 21.875 78.2884 21.875 76.5625C21.875 74.8366 20.4759 73.4375 18.75 73.4375C17.0241 73.4375 15.625 74.8366 15.625 76.5625C15.625 78.2884 17.0241 79.6875 18.75 79.6875Z" fill="#C7C9C9"/>
<path d="M81.25 79.6875C82.9759 79.6875 84.375 78.2884 84.375 76.5625C84.375 74.8366 82.9759 73.4375 81.25 73.4375C79.5241 73.4375 78.125 74.8366 78.125 76.5625C78.125 78.2884 79.5241 79.6875 81.25 79.6875Z" fill="#C7C9C9"/>
<path d="M89.0628 48.0156C88.9683 47.6777 88.7628 47.3813 88.4793 47.1744C88.1959 46.9675 87.851 46.862 87.5003 46.875H71.1253L71.8753 37.625C71.8913 37.4086 71.8621 37.1913 71.7894 36.9868C71.7168 36.7824 71.6024 36.5953 71.4535 36.4375C71.3078 36.2804 71.1313 36.155 70.9351 36.069C70.7389 35.9829 70.5271 35.9382 70.3128 35.9375H51.8128C52.6794 33.9679 53.1264 31.8394 53.1253 29.6875C53.1253 25.5435 51.4791 21.5692 48.5489 18.639C45.6186 15.7087 41.6443 14.0625 37.5003 14.0625C33.3563 14.0625 29.382 15.7087 26.4518 18.639C23.5215 21.5692 21.8753 25.5435 21.8753 29.6875C21.8743 31.8394 22.3212 33.9679 23.1878 35.9375H7.81284C7.41921 35.9362 7.03961 36.0836 6.74993 36.3501C6.46025 36.6166 6.28183 36.9826 6.25034 37.375L3.12534 76.4375C3.10936 76.6539 3.13861 76.8712 3.21125 77.0757C3.28388 77.2801 3.3983 77.4672 3.54721 77.625C3.6929 77.7821 3.86934 77.9076 4.06556 77.9936C4.26178 78.0796 4.47359 78.1243 4.68784 78.125H9.51596C9.8966 80.2978 11.0312 82.2668 12.7202 83.6856C14.4092 85.1045 16.5445 85.8823 18.7503 85.8823C20.9562 85.8823 23.0914 85.1045 24.7805 83.6856C26.4695 82.2668 27.6041 80.2978 27.9847 78.125H72.016C72.3966 80.2978 73.5312 82.2668 75.2202 83.6856C76.9092 85.1045 79.0444 85.8823 81.2503 85.8823C83.4562 85.8823 85.5914 85.1045 87.2804 83.6856C88.9695 82.2668 90.1041 80.2978 90.4847 78.125H95.3128C95.5554 78.125 95.7946 78.0685 96.0116 77.9601C96.2286 77.8516 96.4173 77.6941 96.5628 77.5C96.706 77.3078 96.803 77.0852 96.8463 76.8495C96.8897 76.6138 96.8782 76.3712 96.8128 76.1406L89.0628 48.0156ZM37.5003 17.1875C39.9726 17.1875 42.3893 17.9206 44.445 19.2941C46.5006 20.6676 48.1027 22.6199 49.0488 24.904C49.9949 27.188 50.2425 29.7014 49.7602 32.1261C49.2778 34.5509 48.0873 36.7782 46.3392 38.5263C44.591 40.2745 42.3637 41.465 39.939 41.9473C37.5142 42.4296 35.0009 42.1821 32.7168 41.236C30.4327 40.2899 28.4805 38.6877 27.107 36.6321C25.7334 34.5765 25.0003 32.1598 25.0003 29.6875C25.0003 26.3723 26.3173 23.1929 28.6615 20.8487C31.0057 18.5045 34.1851 17.1875 37.5003 17.1875ZM9.25034 39.0625H25.0003C26.4558 41.0031 28.343 42.5781 30.5126 43.6629C32.6822 44.7477 35.0746 45.3125 37.5003 45.3125C39.926 45.3125 42.3184 44.7477 44.488 43.6629C46.6577 42.5781 48.5449 41.0031 50.0003 39.0625H68.6253L68.0003 46.875H43.7503C43.3359 46.875 42.9385 47.0396 42.6455 47.3326C42.3525 47.6257 42.1878 48.0231 42.1878 48.4375C42.1878 48.8519 42.3525 49.2493 42.6455 49.5424C42.9385 49.8354 43.3359 50 43.7503 50H67.7503L65.7503 75H27.9847C27.6041 72.8272 26.4695 70.8582 24.7805 69.4394C23.0914 68.0205 20.9562 67.2427 18.7503 67.2427C16.5445 67.2427 14.4092 68.0205 12.7202 69.4394C11.0312 70.8582 9.8966 72.8272 9.51596 75H6.39096L9.25034 39.0625ZM18.7503 82.8125C17.5142 82.8125 16.3058 82.446 15.278 81.7592C14.2502 81.0724 13.4491 80.0963 12.9761 78.9543C12.503 77.8122 12.3793 76.5556 12.6204 75.3432C12.8616 74.1308 13.4568 73.0172 14.3309 72.1431C15.205 71.269 16.3186 70.6738 17.531 70.4326C18.7434 70.1914 20.0001 70.3152 21.1421 70.7883C22.2841 71.2613 23.2603 72.0624 23.947 73.0902C24.6338 74.118 25.0003 75.3264 25.0003 76.5625C25.0003 78.2201 24.3419 79.8098 23.1698 80.9819C21.9977 82.154 20.4079 82.8125 18.7503 82.8125ZM81.2503 82.8125C80.0142 82.8125 78.8058 82.446 77.778 81.7592C76.7502 81.0724 75.9491 80.0963 75.4761 78.9543C75.003 77.8122 74.8793 76.5556 75.1204 75.3432C75.3616 74.1308 75.9568 73.0172 76.8309 72.1431C77.705 71.269 78.8186 70.6738 80.031 70.4326C81.2434 70.1914 82.5001 70.3152 83.6421 70.7883C84.7841 71.2613 85.7603 72.0624 86.447 73.0902C87.1338 74.118 87.5003 75.3264 87.5003 76.5625C87.5003 78.2201 86.8418 79.8098 85.6697 80.9819C84.4976 82.154 82.9079 82.8125 81.2503 82.8125ZM90.4847 75C90.1041 72.8272 88.9695 70.8582 87.2804 69.4394C85.5914 68.0205 83.4562 67.2427 81.2503 67.2427C79.0444 67.2427 76.9092 68.0205 75.2202 69.4394C73.5312 70.8582 72.3966 72.8272 72.016 75H68.891L70.891 50H86.3284L89.3597 60.9375H73.4378C73.0234 60.9375 72.626 61.1021 72.333 61.3952C72.0399 61.6882 71.8753 62.0856 71.8753 62.5C71.8753 62.9144 72.0399 63.3118 72.333 63.6049C72.626 63.8979 73.0234 64.0625 73.4378 64.0625H90.2191L93.2503 75H90.4847Z" fill="#1037B6"/>
<path d="M37.5 32.8125C37.9144 32.8125 38.3118 32.6479 38.6049 32.3549C38.8979 32.0618 39.0625 31.6644 39.0625 31.25V21.875C39.0625 21.4606 38.8979 21.0632 38.6049 20.7701C38.3118 20.4771 37.9144 20.3125 37.5 20.3125C37.0856 20.3125 36.6882 20.4771 36.3951 20.7701C36.1021 21.0632 35.9375 21.4606 35.9375 21.875V29.6875H29.6875C29.2731 29.6875 28.8757 29.8521 28.5826 30.1451C28.2896 30.4382 28.125 30.8356 28.125 31.25C28.125 31.6644 28.2896 32.0618 28.5826 32.3549C28.8757 32.6479 29.2731 32.8125 29.6875 32.8125H37.5Z" fill="white"/>
<path d="M31.25 56.25H56.25C56.6644 56.25 57.0618 56.0854 57.3549 55.7924C57.6479 55.4993 57.8125 55.1019 57.8125 54.6875C57.8125 54.2731 57.6479 53.8757 57.3549 53.5826C57.0618 53.2896 56.6644 53.125 56.25 53.125H31.25C30.8356 53.125 30.4382 53.2896 30.1451 53.5826C29.8521 53.8757 29.6875 54.2731 29.6875 54.6875C29.6875 55.1019 29.8521 55.4993 30.1451 55.7924C30.4382 56.0854 30.8356 56.25 31.25 56.25Z" fill="white"/>
<path d="M21.875 62.5H46.875C47.2894 62.5 47.6868 62.3354 47.9799 62.0424C48.2729 61.7493 48.4375 61.3519 48.4375 60.9375C48.4375 60.5231 48.2729 60.1257 47.9799 59.8326C47.6868 59.5396 47.2894 59.375 46.875 59.375H21.875C21.4606 59.375 21.0632 59.5396 20.7701 59.8326C20.4771 60.1257 20.3125 60.5231 20.3125 60.9375C20.3125 61.3519 20.4771 61.7493 20.7701 62.0424C21.0632 62.3354 21.4606 62.5 21.875 62.5Z" fill="white"/>
</svg>
