<svg width="151" height="150" viewBox="0 0 151 150" fill="none" xmlns="http://www.w3.org/2000/svg">
<path d="M101.281 114.844H7.53125L12.2188 56.25H105.969L101.281 114.844Z" fill="#1037B6"/>
<path d="M56.75 65.625C68.3998 65.625 77.8438 56.181 77.8438 44.5312C77.8438 32.8815 68.3998 23.4375 56.75 23.4375C45.1002 23.4375 35.6562 32.8815 35.6562 44.5312C35.6562 56.181 45.1002 65.625 56.75 65.625Z" fill="#1037B6"/>
<path d="M56.75 23.4375C62.3444 23.4375 67.7097 25.6599 71.6655 29.6157C75.6214 33.5716 77.8438 38.9368 77.8438 44.5312C77.8438 50.1257 75.6214 55.4909 71.6655 59.4468C67.7097 63.4026 62.3444 65.625 56.75 65.625" fill="#1037B6"/>
<path d="M98.9375 72.6562H131.75L143.469 114.844H94.25" fill="#F68B21"/>
<path d="M95.8438 56.25L91.9062 105.469H8.28125L7.53125 114.844H101.281L105.969 56.25H95.8438Z" fill="#F68B21"/>
<path d="M122.375 126.562C128.847 126.562 134.094 121.316 134.094 114.844C134.094 108.372 128.847 103.125 122.375 103.125C115.903 103.125 110.656 108.372 110.656 114.844C110.656 121.316 115.903 126.562 122.375 126.562Z" fill="#646464"/>
<path d="M28.625 126.562C35.0971 126.562 40.3438 121.316 40.3438 114.844C40.3438 108.372 35.0971 103.125 28.625 103.125C22.1529 103.125 16.9062 108.372 16.9062 114.844C16.9062 121.316 22.1529 126.562 28.625 126.562Z" fill="#646464"/>
<path d="M28.625 119.531C31.2138 119.531 33.3125 117.433 33.3125 114.844C33.3125 112.255 31.2138 110.156 28.625 110.156C26.0362 110.156 23.9375 112.255 23.9375 114.844C23.9375 117.433 26.0362 119.531 28.625 119.531Z" fill="#C7C9C9"/>
<path d="M122.375 119.531C124.964 119.531 127.062 117.433 127.062 114.844C127.062 112.255 124.964 110.156 122.375 110.156C119.786 110.156 117.688 112.255 117.688 114.844C117.688 117.433 119.786 119.531 122.375 119.531Z" fill="#C7C9C9"/>
<path d="M134.093 72.0234C133.952 71.5165 133.643 71.072 133.218 70.7616C132.793 70.4513 132.276 70.2931 131.75 70.3125H107.187L108.312 56.4375C108.336 56.1129 108.292 55.7869 108.183 55.4803C108.074 55.1736 107.903 54.893 107.679 54.6563C107.461 54.4206 107.196 54.2324 106.902 54.1034C106.607 53.9744 106.29 53.9073 105.968 53.9063H78.2183C79.5182 50.9518 80.1887 47.759 80.187 44.5313C80.187 38.3152 77.7177 32.3538 73.3223 27.9584C68.927 23.5631 62.9655 21.0938 56.7495 21.0938C50.5335 21.0938 44.5721 23.5631 40.1767 27.9584C35.7813 32.3538 33.312 38.3152 33.312 44.5313C33.3104 47.759 33.9809 50.9518 35.2808 53.9063H12.2183C11.6278 53.9044 11.0584 54.1254 10.6239 54.5252C10.1894 54.9249 9.92176 55.474 9.87453 56.0625L5.18703 114.656C5.16306 114.981 5.20694 115.307 5.3159 115.614C5.42485 115.92 5.59647 116.201 5.81984 116.438C6.03837 116.673 6.30303 116.861 6.59736 116.99C6.89169 117.119 7.20941 117.186 7.53078 117.188H14.773C15.3439 120.447 17.0458 123.4 19.5793 125.528C22.1129 127.657 25.3157 128.823 28.6245 128.823C31.9333 128.823 35.1362 127.657 37.6697 125.528C40.2032 123.4 41.9051 120.447 42.4761 117.188H108.523C109.094 120.447 110.796 123.4 113.329 125.528C115.863 127.657 119.066 128.823 122.375 128.823C125.683 128.823 128.886 127.657 131.42 125.528C133.953 123.4 135.655 120.447 136.226 117.188H143.468C143.832 117.188 144.191 117.103 144.516 116.94C144.842 116.777 145.125 116.541 145.343 116.25C145.558 115.962 145.703 115.628 145.769 115.274C145.834 114.921 145.816 114.557 145.718 114.211L134.093 72.0234ZM56.7495 25.7813C60.4579 25.7813 64.083 26.8809 67.1665 28.9412C70.2499 31.0015 72.6531 33.9298 74.0723 37.3559C75.4914 40.7821 75.8627 44.5521 75.1393 48.1892C74.4158 51.8263 72.63 55.1673 70.0078 57.7895C67.3855 60.4117 64.0446 62.1975 60.4075 62.921C56.7703 63.6445 53.0003 63.2731 49.5742 61.854C46.1481 60.4349 43.2198 58.0316 41.1595 54.9482C39.0992 51.8648 37.9995 48.2397 37.9995 44.5313C37.9995 39.5584 39.975 34.7893 43.4913 31.273C47.0076 27.7567 51.7767 25.7813 56.7495 25.7813ZM14.3745 58.5938H37.9995C40.1827 61.5046 43.0135 63.8672 46.268 65.4944C49.5224 67.1216 53.111 67.9688 56.7495 67.9688C60.3881 67.9688 63.9767 67.1216 67.2311 65.4944C70.4855 63.8672 73.3164 61.5046 75.4995 58.5938H103.437L102.5 70.3125H66.1245C65.5029 70.3125 64.9068 70.5594 64.4672 70.999C64.0277 71.4385 63.7808 72.0347 63.7808 72.6563C63.7808 73.2779 64.0277 73.874 64.4672 74.3135C64.9068 74.7531 65.5029 75 66.1245 75H102.125L99.1245 112.5H42.4761C41.9051 109.241 40.2032 106.287 37.6697 104.159C35.1362 102.031 31.9333 100.864 28.6245 100.864C25.3157 100.864 22.1129 102.031 19.5793 104.159C17.0458 106.287 15.3439 109.241 14.773 112.5H10.0855L14.3745 58.5938ZM28.6245 124.219C26.7703 124.219 24.9578 123.669 23.4161 122.639C21.8744 121.609 20.6727 120.144 19.9632 118.431C19.2536 116.718 19.0679 114.833 19.4297 113.015C19.7914 111.196 20.6843 109.526 21.9954 108.215C23.3065 106.904 24.977 106.011 26.7956 105.649C28.6141 105.287 30.4991 105.473 32.2122 106.182C33.9252 106.892 35.3894 108.094 36.4196 109.635C37.4497 111.177 37.9995 112.99 37.9995 114.844C37.9995 117.33 37.0118 119.715 35.2537 121.473C33.4955 123.231 31.1109 124.219 28.6245 124.219ZM122.375 124.219C120.52 124.219 118.708 123.669 117.166 122.639C115.624 121.609 114.423 120.144 113.713 118.431C113.004 116.718 112.818 114.833 113.18 113.015C113.541 111.196 114.434 109.526 115.745 108.215C117.057 106.904 118.727 106.011 120.546 105.649C122.364 105.287 124.249 105.473 125.962 106.182C127.675 106.892 129.139 108.094 130.17 109.635C131.2 111.177 131.75 112.99 131.75 114.844C131.75 117.33 130.762 119.715 129.004 121.473C127.245 123.231 124.861 124.219 122.375 124.219ZM136.226 112.5C135.655 109.241 133.953 106.287 131.42 104.159C128.886 102.031 125.683 100.864 122.375 100.864C119.066 100.864 115.863 102.031 113.329 104.159C110.796 106.287 109.094 109.241 108.523 112.5H103.835L106.835 75H129.992L134.539 91.4063H110.656C110.034 91.4063 109.438 91.6532 108.998 92.0927C108.559 92.5323 108.312 93.1284 108.312 93.75C108.312 94.3716 108.559 94.9678 108.998 95.4073C109.438 95.8468 110.034 96.0938 110.656 96.0938H135.828L140.375 112.5H136.226Z" fill="black"/>
<path d="M56.75 49.2188C57.3716 49.2188 57.9677 48.9718 58.4073 48.5323C58.8468 48.0927 59.0938 47.4966 59.0938 46.875V32.8125C59.0938 32.1909 58.8468 31.5948 58.4073 31.1552C57.9677 30.7157 57.3716 30.4688 56.75 30.4688C56.1284 30.4688 55.5323 30.7157 55.0927 31.1552C54.6532 31.5948 54.4062 32.1909 54.4062 32.8125V44.5312H45.0312C44.4096 44.5312 43.8135 44.7782 43.374 45.2177C42.9344 45.6573 42.6875 46.2534 42.6875 46.875C42.6875 47.4966 42.9344 48.0927 43.374 48.5323C43.8135 48.9718 44.4096 49.2188 45.0312 49.2188H56.75Z" fill="white"/>
<path d="M47.375 84.375H84.875C85.4966 84.375 86.0927 84.1281 86.5323 83.6885C86.9718 83.249 87.2188 82.6529 87.2188 82.0312C87.2188 81.4096 86.9718 80.8135 86.5323 80.374C86.0927 79.9344 85.4966 79.6875 84.875 79.6875H47.375C46.7534 79.6875 46.1573 79.9344 45.7177 80.374C45.2782 80.8135 45.0312 81.4096 45.0312 82.0312C45.0312 82.6529 45.2782 83.249 45.7177 83.6885C46.1573 84.1281 46.7534 84.375 47.375 84.375Z" fill="white"/>
<path d="M33.3125 93.75H70.8125C71.4341 93.75 72.0302 93.5031 72.4698 93.0635C72.9093 92.624 73.1562 92.0279 73.1562 91.4062C73.1562 90.7846 72.9093 90.1885 72.4698 89.749C72.0302 89.3094 71.4341 89.0625 70.8125 89.0625H33.3125C32.6909 89.0625 32.0948 89.3094 31.6552 89.749C31.2157 90.1885 30.9688 90.7846 30.9688 91.4062C30.9688 92.0279 31.2157 92.624 31.6552 93.0635C32.0948 93.5031 32.6909 93.75 33.3125 93.75Z" fill="white"/>
</svg>
