<svg width="151" height="150" viewBox="0 0 151 150" fill="none" xmlns="http://www.w3.org/2000/svg">
<g clip-path="url(#clip0_188_1930)">
<path fill-rule="evenodd" clip-rule="evenodd" d="M33.4528 57.4693C32.4862 57.4693 31.6953 56.6785 31.6953 55.7119V23.4623C31.6953 22.4957 32.4862 21.7048 33.4528 21.7048H95.5793C96.5459 21.7048 97.3368 22.4957 97.3368 23.4623C97.3368 24.4289 96.5459 25.2198 95.5793 25.2198H35.2103V55.7119C35.2103 56.6785 34.4194 57.4693 33.4528 57.4693Z" fill="#1037B6"/>
<path fill-rule="evenodd" clip-rule="evenodd" d="M121.678 114.411H111.836C110.869 114.411 110.078 113.62 110.078 112.654C110.078 111.687 110.869 110.896 111.836 110.896H119.393C113.857 91.2128 107.178 70.4746 105.069 67.9263C101.906 67.0476 98.7425 66.6082 95.4912 66.6082H88.1098V84.095C88.1098 85.0616 87.319 85.8525 86.3524 85.8525H47.7759C46.8093 85.8525 46.0185 85.0616 46.0185 84.095V66.6082H6.73902C5.24517 66.6082 4.01494 67.8384 4.01494 69.3323V108.172C4.01494 109.666 5.24517 110.896 6.73902 110.896H15.2627C16.2294 110.896 17.0202 111.687 17.0202 112.654C17.0202 113.62 16.2294 114.411 15.2627 114.411H6.73902C3.31195 114.411 0.5 111.599 0.5 108.172V69.3323C0.5 65.9052 3.31195 63.0933 6.73902 63.0933H47.7759C48.7425 63.0933 49.5334 63.8841 49.5334 64.8507V82.3375H84.5949V64.8507C84.5949 63.8841 85.3858 63.0933 86.3524 63.0933H95.4912C99.1819 63.0933 102.785 63.6205 106.3 64.675C107.354 64.9386 110.518 65.9052 123.347 112.127C123.523 112.654 123.435 113.269 123.083 113.708C122.732 114.148 122.205 114.411 121.678 114.411ZM84.1555 114.411H43.0308C42.0641 114.411 41.2733 113.62 41.2733 112.654C41.2733 111.687 42.0641 110.896 43.0308 110.896H84.1555C85.1221 110.896 85.913 111.687 85.913 112.654C85.913 113.62 85.1221 114.411 84.1555 114.411Z" fill="#1037B6"/>
<path fill-rule="evenodd" clip-rule="evenodd" d="M95.4912 66.6082C94.7004 66.6082 93.9974 66.1688 93.8216 65.378L81.8708 23.9896C81.6072 23.023 82.1344 22.0563 83.0132 21.7927C83.9798 21.5291 84.9464 22.0563 85.21 23.023L97.1608 64.4114C97.4244 65.2901 96.8972 66.2567 95.9306 66.5203C95.8427 66.6082 95.667 66.6082 95.4912 66.6082Z" fill="#1037B6"/>
<path fill-rule="evenodd" clip-rule="evenodd" d="M29.1454 128.295C20.5338 128.295 13.5039 121.266 13.5039 112.654C13.5039 104.042 20.5338 97.0125 29.1454 97.0125C37.757 97.0125 44.7869 104.042 44.7869 112.654C44.7869 121.266 37.757 128.295 29.1454 128.295ZM29.1454 100.527C22.467 100.527 17.0188 105.976 17.0188 112.654C17.0188 119.332 22.467 124.78 29.1454 124.78C35.8238 124.78 41.2719 119.332 41.2719 112.654C41.2719 105.976 35.8238 100.527 29.1454 100.527Z" fill="#1037B6"/>
<path fill-rule="evenodd" clip-rule="evenodd" d="M98.0399 128.295C89.3404 128.295 82.3984 121.266 82.3984 112.654C82.3984 104.042 89.3404 97.0125 98.0399 97.0125C106.652 97.0125 113.594 104.042 113.594 112.654C113.594 121.266 106.652 128.295 98.0399 128.295ZM98.0399 100.527C91.3615 100.527 85.9134 105.976 85.9134 112.654C85.9134 119.332 91.3615 124.78 98.0399 124.78C104.63 124.78 110.079 119.332 110.079 112.654C110.079 105.976 104.63 100.527 98.0399 100.527Z" fill="#1037B6"/>
<path fill-rule="evenodd" clip-rule="evenodd" d="M86.3519 66.608C85.9125 66.608 85.4732 66.4323 85.1217 66.1687L78.619 59.8418C77.9161 59.1388 77.9161 57.9965 78.619 57.3813C79.2342 56.6783 80.3765 56.5905 81.0795 57.2935L87.5821 63.6203C88.2851 64.3233 88.2851 65.3778 87.5821 66.0808C87.2306 66.4323 86.7913 66.608 86.3519 66.608Z" fill="#1037B6"/>
<path fill-rule="evenodd" clip-rule="evenodd" d="M77.8286 63.0055C77.3892 63.0055 77.0377 62.8297 76.7741 62.654C75.9833 62.0389 75.8075 60.8965 76.4226 60.1056L80.5527 54.8332C81.0799 54.0424 82.2223 53.9545 83.0131 54.4817C83.7161 55.0969 83.8919 56.2392 83.2768 56.9422L79.2346 62.3025C78.8831 62.7418 78.3558 63.0055 77.8286 63.0055Z" fill="#1037B6"/>
<path fill-rule="evenodd" clip-rule="evenodd" d="M28.1797 85.5889H19.4802C13.2412 85.5889 8.23242 80.5801 8.23242 74.3411V64.8507C8.23242 63.8841 9.02328 63.0933 9.98989 63.0933C10.9565 63.0933 11.7474 63.8841 11.7474 64.8507V74.3411C11.7474 78.6469 15.1744 82.0739 19.4802 82.0739H28.1797C32.3976 82.0739 35.9126 78.6469 35.9126 74.3411V64.8507C35.9126 63.8841 36.7034 63.0933 37.67 63.0933C38.6366 63.0933 39.4275 63.8841 39.4275 64.8507V74.3411C39.4275 80.5801 34.3308 85.5889 28.1797 85.5889Z" fill="#1037B6"/>
<path fill-rule="evenodd" clip-rule="evenodd" d="M78.0035 102.197H67.5465C66.5799 102.197 65.7891 101.406 65.7891 100.439C65.7891 99.4727 66.5799 98.6819 67.5465 98.6819H78.0035C78.9701 98.6819 79.7609 99.4727 79.7609 100.439C79.7609 101.406 78.9701 102.197 78.0035 102.197Z" fill="#1037B6"/>
<path fill-rule="evenodd" clip-rule="evenodd" d="M63.065 85.8524C62.0984 85.8524 61.3076 85.0615 61.3076 84.0949V72.4078H47.775C46.8084 72.4078 46.0176 71.6169 46.0176 70.6503C46.0176 69.6837 46.8084 68.8928 47.775 68.8928H63.065C64.0316 68.8928 64.8225 69.6837 64.8225 70.6503V84.0949C64.8225 85.0615 64.0316 85.8524 63.065 85.8524Z" fill="#1037B6"/>
<path fill-rule="evenodd" clip-rule="evenodd" d="M98.0397 119.42C94.2611 119.42 91.1855 116.432 91.1855 112.654C91.1855 108.875 94.2611 105.8 98.0397 105.8C101.73 105.8 104.806 108.875 104.806 112.654C104.806 116.432 101.73 119.42 98.0397 119.42ZM98.0397 109.315C96.1943 109.315 94.7005 110.809 94.7005 112.654C94.7005 114.411 96.1943 115.905 98.0397 115.905C99.7972 115.905 101.291 114.411 101.291 112.654C101.291 110.809 99.7972 109.315 98.0397 109.315Z" fill="#1037B6"/>
<path fill-rule="evenodd" clip-rule="evenodd" d="M29.1471 119.42C25.3685 119.42 22.293 116.432 22.293 112.654C22.293 108.875 25.3685 105.8 29.1471 105.8C32.9257 105.8 35.9134 108.875 35.9134 112.654C35.9134 116.432 32.9257 119.42 29.1471 119.42ZM29.1471 109.315C27.3018 109.315 25.8079 110.809 25.8079 112.654C25.8079 114.411 27.3018 115.905 29.1471 115.905C30.9924 115.905 32.3984 114.411 32.3984 112.654C32.3984 110.809 30.9924 109.315 29.1471 109.315Z" fill="#1037B6"/>
<path fill-rule="evenodd" clip-rule="evenodd" d="M148.743 104.13H126.599C125.632 104.13 124.841 103.339 124.841 102.373V95.6064H116.23C115.263 95.6064 114.472 94.8156 114.472 93.8489C114.472 92.8823 115.263 92.0915 116.23 92.0915H126.599C127.565 92.0915 128.356 92.8823 128.356 93.8489V100.615H146.986V98.8577H131.783C130.817 98.8577 130.026 98.0669 130.026 97.1003V53.9544H128.356V88.6644C128.356 89.631 127.565 90.4219 126.599 90.4219H114.56C113.594 90.4219 112.803 89.631 112.803 88.6644C112.803 87.6978 113.594 86.9069 114.56 86.9069H124.841V52.1969C124.841 51.2303 125.632 50.4395 126.599 50.4395H131.783C132.75 50.4395 133.541 51.2303 133.541 52.1969V95.3428H148.743C149.71 95.3428 150.5 96.1337 150.5 97.1003V102.373C150.5 103.339 149.71 104.13 148.743 104.13Z" fill="#1037B6"/>
<path fill-rule="evenodd" clip-rule="evenodd" d="M86.3514 78.2075H81.6941C81.2548 78.2075 80.8154 78.0317 80.4639 77.6802L76.1581 73.3744C75.4551 72.6714 75.4551 71.5291 76.1581 70.8261C76.7732 70.211 77.9156 70.211 78.6186 70.8261L82.3971 74.6925H86.3514C87.318 74.6925 88.1089 75.4834 88.1089 76.45C88.1089 77.4166 87.318 78.2075 86.3514 78.2075Z" fill="#1037B6"/>
<path fill-rule="evenodd" clip-rule="evenodd" d="M75.2803 74.7804C72.6441 74.7804 70.5352 72.6714 70.5352 70.0352C70.5352 67.4869 72.6441 65.3779 75.2803 65.3779C77.8287 65.3779 79.9376 67.4869 79.9376 70.0352C79.9376 72.6714 77.8287 74.7804 75.2803 74.7804ZM75.2803 68.8929C74.5773 68.8929 74.0501 69.4201 74.0501 70.0352C74.0501 70.7382 74.5773 71.2655 75.2803 71.2655C75.8954 71.2655 76.4227 70.7382 76.4227 70.0352C76.4227 69.4201 75.8954 68.8929 75.2803 68.8929Z" fill="#1037B6"/>
<path fill-rule="evenodd" clip-rule="evenodd" d="M43.5576 66.6081C42.591 66.6081 41.8002 65.8173 41.8002 64.8507V57.4693H22.2044V64.8507C22.2044 65.8173 21.4135 66.6081 20.4469 66.6081C19.4803 66.6081 18.6895 65.8173 18.6895 64.8507V55.7118C18.6895 54.7452 19.4803 53.9543 20.4469 53.9543H43.5576C44.5242 53.9543 45.3151 54.7452 45.3151 55.7118V64.8507C45.3151 65.8173 44.5242 66.6081 43.5576 66.6081Z" fill="#1037B6"/>
<path fill-rule="evenodd" clip-rule="evenodd" d="M88.1105 76.45V84.095C88.1105 85.0616 87.3197 85.8524 86.3531 85.8524H63.0666H47.7766C46.81 85.8524 46.0191 85.0616 46.0191 84.095V70.6503V66.6082H43.5587H39.4286V74.341C39.4286 80.58 34.332 85.5888 28.1808 85.5888H19.4814C13.2423 85.5888 8.23355 80.58 8.23355 74.341V66.6082H6.7397C5.24585 66.6082 4.01562 67.8384 4.01562 69.3322V108.172C4.01562 109.666 5.24585 110.896 6.7397 110.896H13.5938C14.4726 103.076 21.151 97.0124 29.1474 97.0124C37.1439 97.0124 43.8223 103.076 44.6132 110.896H82.4866C83.3654 103.076 89.9559 97.0124 98.0402 97.0124C106.037 97.0124 112.627 103.076 113.506 110.896H119.393C117.812 105.36 116.142 99.8243 114.56 94.5519C114.56 94.464 114.473 94.2883 114.473 94.2004C113.945 92.5308 113.418 90.8612 112.979 89.2795C112.891 89.2795 112.891 89.1916 112.891 89.1038C109.464 78.1196 106.388 69.508 105.07 67.9263C101.907 67.0475 98.7432 66.6082 95.4919 66.6082H88.1105V76.45ZM67.5481 98.682H78.0051C78.9717 98.682 79.7626 99.4728 79.7626 100.439C79.7626 101.406 78.9717 102.197 78.0051 102.197H67.5481C66.5815 102.197 65.7907 101.406 65.7907 100.439C65.7907 99.4728 66.5815 98.682 67.5481 98.682Z" fill="#F68B21"/>
<path fill-rule="evenodd" clip-rule="evenodd" d="M61.3082 82.3374V72.4077H49.5332V82.3374H61.3082Z" fill="#7D7D7D"/>
<path fill-rule="evenodd" clip-rule="evenodd" d="M28.1804 82.0739C32.3983 82.0739 35.9132 78.6468 35.9132 74.341V66.6082H20.4475H11.748V74.341C11.748 78.6468 15.1751 82.0739 19.4809 82.0739H28.1804Z" fill="#FFCC00"/>
<path fill-rule="evenodd" clip-rule="evenodd" d="M22.2051 63.0931H37.6708H41.8009V57.4692H33.4529H22.2051V63.0931Z" fill="#7D7D7D"/>
<path fill-rule="evenodd" clip-rule="evenodd" d="M75.281 68.8928C74.578 68.8928 74.0508 69.4201 74.0508 70.0352C74.0508 70.7382 74.578 71.2654 75.281 71.2654C75.5446 71.2654 75.8082 71.1775 76.0719 70.9139C76.0719 70.9139 76.0719 70.9139 76.1597 70.826C76.3355 70.6503 76.4234 70.3867 76.4234 70.0352C76.4234 69.4201 75.8961 68.8928 75.281 68.8928Z" fill="#7D7D7D"/>
<path fill-rule="evenodd" clip-rule="evenodd" d="M128.355 88.6644C128.355 89.631 127.564 90.4218 126.598 90.4218H117.02C117.195 90.9491 117.371 91.5642 117.547 92.0914H126.598C127.564 92.0914 128.355 92.8823 128.355 93.8489V100.615H146.984V98.8577H131.782C130.816 98.8577 130.025 98.0668 130.025 97.1002V53.9543H128.355V88.6644Z" fill="#7D7D7D"/>
<path fill-rule="evenodd" clip-rule="evenodd" d="M101.292 112.654C101.292 110.809 99.7978 109.315 98.0404 109.315C96.195 109.315 94.7012 110.809 94.7012 112.654C94.7012 114.411 96.195 115.905 98.0404 115.905C99.7978 115.905 101.292 114.411 101.292 112.654Z" fill="#D6E3FF"/>
<path fill-rule="evenodd" clip-rule="evenodd" d="M104.805 112.654C104.805 116.432 101.729 119.42 98.0386 119.42C94.2601 119.42 91.1845 116.432 91.1845 112.654C91.1845 108.875 94.2601 105.8 98.0386 105.8C101.729 105.8 104.805 108.875 104.805 112.654ZM98.0386 100.527C91.3603 100.527 85.9121 105.975 85.9121 112.654C85.9121 119.332 91.3603 124.78 98.0386 124.78C104.629 124.78 110.077 119.332 110.077 112.654C110.077 105.975 104.629 100.527 98.0386 100.527Z" fill="#7D7D7D"/>
<path fill-rule="evenodd" clip-rule="evenodd" d="M29.1458 115.905C30.9912 115.905 32.3972 114.411 32.3972 112.654C32.3972 110.809 30.9912 109.315 29.1458 109.315C27.3005 109.315 25.8066 110.809 25.8066 112.654C25.8066 114.411 27.3005 115.905 29.1458 115.905Z" fill="#D6E3FF"/>
<path fill-rule="evenodd" clip-rule="evenodd" d="M35.9123 112.654C35.9123 116.432 32.9246 119.42 29.1461 119.42C25.3675 119.42 22.2919 116.432 22.2919 112.654C22.2919 108.875 25.3675 105.8 29.1461 105.8C32.9246 105.8 35.9123 108.875 35.9123 112.654ZM41.2726 112.654C41.2726 105.975 35.8244 100.527 29.1461 100.527C22.4677 100.527 17.0195 105.975 17.0195 112.654C17.0195 119.332 22.4677 124.78 29.1461 124.78C35.8244 124.78 41.2726 119.332 41.2726 112.654Z" fill="#7D7D7D"/>
</g>
<defs>
<clipPath id="clip0_188_1930">
<rect width="150" height="150" fill="white" transform="translate(0.5)"/>
</clipPath>
</defs>
</svg>
