<svg width="151" height="150" viewBox="0 0 151 150" fill="none" xmlns="http://www.w3.org/2000/svg">
<path d="M7.53125 39.8438H96.5938V114.844H7.53125V39.8438Z" fill="#F68B21"/>
<path d="M143.469 91.4062V114.844H96.5938V58.5938H119.478C120.348 58.5938 121.202 58.8362 121.942 59.2939C122.683 59.7515 123.281 60.4064 123.671 61.1851L134.094 82.0312L141.594 87.6563C142.176 88.0929 142.648 88.659 142.974 89.3099C143.299 89.9608 143.469 90.6785 143.469 91.4062Z" fill="#F68B21"/>
<path d="M30.9688 128.906C38.7353 128.906 45.0312 122.61 45.0312 114.844C45.0312 107.077 38.7353 100.781 30.9688 100.781C23.2022 100.781 16.9062 107.077 16.9062 114.844C16.9062 122.61 23.2022 128.906 30.9688 128.906Z" fill="#34507B"/>
<path d="M30.9688 119.531C33.5576 119.531 35.6562 117.433 35.6562 114.844C35.6562 112.255 33.5576 110.156 30.9688 110.156C28.3799 110.156 26.2812 112.255 26.2812 114.844C26.2812 117.433 28.3799 119.531 30.9688 119.531Z" fill="#DFDFDD"/>
<path d="M117.688 128.906C125.454 128.906 131.75 122.61 131.75 114.844C131.75 107.077 125.454 100.781 117.688 100.781C109.921 100.781 103.625 107.077 103.625 114.844C103.625 122.61 109.921 128.906 117.688 128.906Z" fill="#34507B"/>
<path d="M117.688 119.531C120.276 119.531 122.375 117.433 122.375 114.844C122.375 112.255 120.276 110.156 117.688 110.156C115.099 110.156 113 112.255 113 114.844C113 117.433 115.099 119.531 117.688 119.531Z" fill="#DFDFDD"/>
<path d="M134.094 82.0312H110.656V67.9688H127.062L134.094 82.0312Z" fill="#4DB6E4"/>
<path d="M135.266 96.0938H143.469V105.469H135.266C134.955 105.469 134.657 105.345 134.437 105.126C134.217 104.906 134.094 104.608 134.094 104.297V97.2656C134.094 96.9548 134.217 96.6568 134.437 96.437C134.657 96.2172 134.955 96.0938 135.266 96.0938Z" fill="#DFDFDD"/>
<path d="M66.3477 51.5625L64.9648 49.8047L65.4248 49.2188L67.2676 46.875L72.2422 40.5469L70.8066 39.8438H7.53125V75.8027L10.9326 75.8262L13.6338 87.2871L24.2773 82.251L31.6836 91.4062L39.0898 82.251L49.7334 87.2871L52.4346 75.8262L64.209 75.7441L61.6689 64.2451L72.2422 59.0625L66.3477 51.5625Z" fill="#D65246"/>
<path d="M96.5938 58.5938H101.281V114.844H96.5938V58.5938Z" fill="#F9A40F"/>
<path d="M143 85.7812L135.943 80.4882L129.159 66.9205L125.766 60.1353C125.186 58.9648 124.289 57.9804 123.177 57.2936C122.066 56.6069 120.784 56.2453 119.478 56.25H98.9375V39.8437C98.9375 39.2221 98.6906 38.626 98.251 38.1865C97.8115 37.7469 97.2154 37.5 96.5938 37.5H7.53125C6.90965 37.5 6.31351 37.7469 5.87397 38.1865C5.43443 38.626 5.1875 39.2221 5.1875 39.8437V51.5625H9.875V42.1875H67.9707L64.286 46.875H23.9375V51.5625H63.3655L68.6097 58.2331L60.638 62.1404C60.1662 62.3717 59.7859 62.7548 59.5579 63.2281C59.33 63.7015 59.2678 64.2378 59.3812 64.7508L61.2963 73.4206L52.4193 73.4824C51.894 73.486 51.385 73.666 50.9742 73.9936C50.5634 74.3211 50.2746 74.7772 50.1541 75.2886L48.118 83.9294L40.0936 80.1325C39.6186 79.9078 39.0819 79.8491 38.5696 79.966C38.0573 80.0829 37.5992 80.3685 37.2687 80.777L31.6833 87.6797L26.0996 80.777C25.7692 80.3685 25.311 80.0829 24.7987 79.966C24.2865 79.8491 23.7498 79.9078 23.2748 80.1325L15.2504 83.9294L13.2148 75.2886C13.0944 74.7772 12.8056 74.3212 12.3948 73.9937C11.9841 73.6661 11.4752 73.4861 10.9499 73.4824L9.875 73.4766V56.25H5.1875V114.844C5.1875 115.465 5.43443 116.061 5.87397 116.501C6.31351 116.941 6.90965 117.187 7.53125 117.187H14.7327C15.2957 121.092 17.2469 124.663 20.2289 127.246C23.2108 129.829 27.0237 131.251 30.9688 131.251C34.9138 131.251 38.7267 129.829 41.7086 127.246C44.6906 124.663 46.6418 121.092 47.2048 117.187H101.451C102.044 121.293 104.17 125.021 107.4 127.623C110.631 130.224 114.727 131.505 118.864 131.208C123.002 130.911 126.873 129.058 129.699 126.022C132.525 122.985 134.096 118.992 134.096 114.844C134.096 110.696 132.525 106.702 129.699 103.666C126.873 100.63 123.002 98.7766 118.864 98.4796C114.727 98.1826 110.631 99.4636 107.4 102.065C104.17 104.666 102.044 108.395 101.451 112.5H98.9375V60.9375H119.478C119.913 60.9359 120.34 61.0562 120.711 61.2849C121.081 61.5136 121.38 61.8416 121.574 62.2315L123.27 65.625H110.656C110.035 65.625 109.439 65.8719 108.999 66.3115C108.559 66.751 108.312 67.3471 108.312 67.9687V82.0312C108.312 82.6528 108.559 83.249 108.999 83.6885C109.439 84.1281 110.035 84.375 110.656 84.375H133.312L140.188 89.5312C140.479 89.7502 140.714 90.0334 140.877 90.3587C141.039 90.684 141.124 91.0426 141.125 91.4062V93.75H135.266C134.334 93.751 133.44 94.1217 132.781 94.7808C132.122 95.4399 131.751 96.3335 131.75 97.2656V104.297C131.751 105.229 132.122 106.123 132.781 106.782C133.44 107.441 134.334 107.811 135.266 107.812H141.125V112.5H138.781V117.187H143.469C144.09 117.187 144.686 116.941 145.126 116.501C145.566 116.061 145.812 115.465 145.812 114.844V91.4062C145.81 90.3151 145.555 89.2393 145.067 88.2633C144.579 87.2873 143.872 86.4378 143 85.7812ZM30.9688 126.562C28.651 126.562 26.3853 125.875 24.4582 124.588C22.531 123.3 21.029 121.47 20.142 119.328C19.2551 117.187 19.023 114.831 19.4752 112.558C19.9273 110.284 21.0434 108.196 22.6823 106.557C24.3212 104.918 26.4093 103.802 28.6825 103.35C30.9558 102.898 33.312 103.13 35.4533 104.017C37.5946 104.904 39.4249 106.406 40.7125 108.333C42.0002 110.26 42.6875 112.526 42.6875 114.844C42.684 117.951 41.4482 120.929 39.2513 123.126C37.0544 125.323 34.0757 126.559 30.9688 126.562ZM94.25 58.5937V112.5H47.2048C46.6418 108.595 44.6906 105.024 41.7086 102.441C38.7267 99.8586 34.9138 98.4369 30.9688 98.4369C27.0237 98.4369 23.2108 99.8586 20.2289 102.441C17.2469 105.024 15.2957 108.595 14.7327 112.5H9.875V81.5563L11.3524 87.8259C11.4324 88.166 11.5875 88.484 11.8062 88.7565C12.025 89.029 12.3019 89.2492 12.6167 89.4008C12.9315 89.5525 13.2763 89.6318 13.6257 89.633C13.9752 89.6343 14.3205 89.5574 14.6363 89.4079L23.6141 85.1599L29.8613 92.8825C30.081 93.1541 30.3587 93.3731 30.6739 93.5236C30.9892 93.674 31.3341 93.7521 31.6834 93.7521C32.0328 93.7521 32.3777 93.674 32.6929 93.5236C33.0082 93.3731 33.2859 93.1541 33.5056 92.8825L39.7528 85.1596L48.7309 89.4076C49.0467 89.5571 49.392 89.634 49.7415 89.6328C50.0909 89.6315 50.4356 89.5522 50.7505 89.4005C51.0653 89.2489 51.3422 89.0287 51.5609 88.7562C51.7797 88.4837 51.9347 88.1657 52.0147 87.8256L54.2929 78.1576L64.2245 78.0885C64.5738 78.086 64.9182 78.0055 65.2324 77.8528C65.5466 77.7001 65.8227 77.4791 66.0405 77.2059C66.2583 76.9328 66.4122 76.6144 66.4911 76.2741C66.57 75.9338 66.5719 75.5802 66.4965 75.2391L64.354 65.5394L73.2734 61.1672C73.5871 61.0134 73.8625 60.7915 74.0794 60.5176C74.2962 60.2437 74.4491 59.9248 74.5269 59.5842C74.6046 59.2436 74.6052 58.8899 74.5287 58.549C74.4521 58.2081 74.3003 57.8887 74.0844 57.6141L69.3277 51.5625H89.5625V46.875H70.2485L73.9335 42.1875H94.25V58.5937ZM117.688 103.125C120.005 103.125 122.271 103.812 124.198 105.1C126.125 106.388 127.627 108.218 128.514 110.359C129.401 112.5 129.633 114.857 129.181 117.13C128.729 119.403 127.613 121.491 125.974 123.13C124.335 124.769 122.247 125.885 119.974 126.337C117.701 126.789 115.344 126.557 113.203 125.67C111.062 124.783 109.231 123.281 107.944 121.354C106.656 119.427 105.969 117.161 105.969 114.844C105.972 111.737 107.208 108.758 109.405 106.561C111.602 104.364 114.581 103.128 117.688 103.125ZM113 79.6875V70.3125H125.614L130.302 79.6875H113ZM141.125 103.125H136.438V98.4375H141.125V103.125ZM30.9688 107.812C29.5781 107.812 28.2187 108.225 27.0624 108.997C25.9061 109.77 25.0049 110.868 24.4727 112.153C23.9405 113.438 23.8013 114.852 24.0726 116.215C24.3439 117.579 25.0136 118.832 25.9969 119.816C26.9802 120.799 28.2331 121.469 29.597 121.74C30.961 122.011 32.3747 121.872 33.6595 121.34C34.9443 120.808 36.0424 119.906 36.815 118.75C37.5876 117.594 38 116.234 38 114.844C37.9979 112.98 37.2564 111.192 35.9383 109.874C34.6201 108.556 32.8329 107.815 30.9688 107.812ZM30.9688 117.187C30.5052 117.187 30.0521 117.05 29.6666 116.792C29.2812 116.535 28.9808 116.169 28.8034 115.741C28.626 115.312 28.5796 114.841 28.67 114.386C28.7605 113.932 28.9837 113.514 29.3115 113.186C29.6392 112.859 30.0569 112.635 30.5115 112.545C30.9662 112.455 31.4374 112.501 31.8657 112.678C32.2939 112.856 32.66 113.156 32.9175 113.542C33.175 113.927 33.3125 114.38 33.3125 114.844C33.3118 115.465 33.0646 116.061 32.6253 116.5C32.1859 116.94 31.5901 117.187 30.9688 117.187ZM117.688 121.875C119.078 121.875 120.438 121.463 121.594 120.69C122.75 119.917 123.651 118.819 124.184 117.534C124.716 116.25 124.855 114.836 124.584 113.472C124.312 112.108 123.643 110.855 122.659 109.872C121.676 108.889 120.423 108.219 119.059 107.948C117.695 107.676 116.282 107.816 114.997 108.348C113.712 108.88 112.614 109.781 111.841 110.937C111.069 112.094 110.656 113.453 110.656 114.844C110.658 116.708 111.4 118.495 112.718 119.813C114.036 121.131 115.823 121.873 117.688 121.875ZM117.688 112.5C118.151 112.5 118.604 112.637 118.99 112.895C119.375 113.153 119.675 113.519 119.853 113.947C120.03 114.375 120.077 114.846 119.986 115.301C119.896 115.756 119.673 116.173 119.345 116.501C119.017 116.829 118.599 117.052 118.145 117.142C117.69 117.233 117.219 117.186 116.791 117.009C116.362 116.832 115.996 116.531 115.739 116.146C115.481 115.76 115.344 115.307 115.344 114.844C115.344 114.222 115.592 113.627 116.031 113.187C116.47 112.748 117.066 112.501 117.688 112.5ZM49.7188 103.125H89.5625V107.812H49.7188V103.125ZM19.25 51.5625H14.5625V46.875H19.25V51.5625ZM59.0938 32.8125H26.2812V28.125H59.0938V32.8125ZM96.5938 126.562H68.4688V121.875H96.5938V126.562ZM63.7812 121.875V126.562H59.0938V121.875H63.7812ZM42.6875 23.4375H14.5625V18.75H42.6875V23.4375ZM9.875 23.4375H5.1875V18.75H9.875V23.4375Z" fill="#1037B6"/>
</svg>
