<svg width="151" height="150" viewBox="0 0 151 150" fill="none" xmlns="http://www.w3.org/2000/svg">
<path d="M134.186 147.377H51.3926V135.851H134.186C137.369 135.851 139.949 138.431 139.949 141.614C139.949 144.797 137.369 147.377 134.186 147.377Z" fill="#F8E883"/>
<path d="M57.1555 13.4147V118.516H45.6289V7.79712H51.5382C54.6405 7.79712 57.1555 10.3123 57.1555 13.4147Z" fill="#F8E883"/>
<path d="M68.793 78.6553H128.764V135.851H68.793V78.6553Z" fill="#F68B21"/>
<path d="M90.2188 78.6553H107.335V95.7714H90.2188V78.6553Z" fill="#C7865B"/>
<path d="M128.764 78.1784H68.793V25.345C68.793 22.9359 70.7462 20.9827 73.1553 20.9827H124.402C126.811 20.9827 128.764 22.9359 128.764 25.345V78.1784Z" fill="#F68B21"/>
<path d="M119.898 78.6553H128.763V135.851H119.898V78.6553Z" fill="#CF9875"/>
<path d="M119.898 20.9827V78.1784H128.763V25.345C128.763 22.9359 126.81 20.9827 124.401 20.9827H119.898Z" fill="#CF9875"/>
<path d="M90.2188 20.9827H107.335V38.0987H90.2188V20.9827Z" fill="#C7865B"/>
<path d="M51.3948 147.784C63.5452 147.784 73.3951 137.934 73.3951 125.783C73.3951 113.633 63.5452 103.783 51.3948 103.783C39.2444 103.783 29.3945 113.633 29.3945 125.783C29.3945 137.934 39.2444 147.784 51.3948 147.784Z" fill="#B4AAAA"/>
<path d="M51.3933 103.783C49.8751 103.783 48.3926 103.937 46.9609 104.23C56.9867 106.281 64.5288 115.151 64.5288 125.783C64.5288 136.415 56.9867 145.286 46.9609 147.337C48.3926 147.63 49.8751 147.784 51.3933 147.784C63.5437 147.784 73.3936 137.934 73.3936 125.783C73.3936 113.633 63.5437 103.783 51.3933 103.783Z" fill="#9B9696"/>
<path d="M54.9172 131.621C58.1579 129.689 59.2191 125.496 57.2876 122.256C55.356 119.015 51.1631 117.954 47.9224 119.885C44.6818 121.817 43.6205 126.01 45.5521 129.251C47.4837 132.491 51.6766 133.552 54.9172 131.621Z" fill="#736E6E"/>
<path d="M38.6508 13.7518H16.8149C13.6292 13.7518 11.0469 11.1695 11.0469 7.98382C11.0469 4.79812 13.6292 2.21582 16.8149 2.21582H38.6508V13.7518Z" fill="#B4AAAA"/>
<path d="M51.3947 116.737C46.4062 116.737 42.3477 120.795 42.3477 125.784C42.3477 130.772 46.4059 134.83 51.3947 134.83C56.3832 134.83 60.4415 130.772 60.4415 125.784C60.4415 120.795 56.3832 116.737 51.3947 116.737ZM51.3947 130.398C48.8503 130.398 46.78 128.328 46.78 125.784C46.78 123.239 48.8503 121.169 51.3947 121.169C53.9392 121.169 56.0091 123.239 56.0091 125.784C56.0091 128.328 53.9392 130.398 51.3947 130.398Z" fill="#1037B6"/>
<path d="M134.187 133.635H130.98V66.1243C130.98 64.9004 129.988 63.9081 128.764 63.9081C127.54 63.9081 126.547 64.9004 126.547 66.1243V75.9618H71.0083V25.3449C71.0083 24.1615 71.971 23.1988 73.1544 23.1988H88.0035V38.0987C88.0035 39.3226 88.9958 40.3149 90.2197 40.3149H107.336C108.56 40.3149 109.552 39.3226 109.552 38.0987V23.1988H124.401C125.584 23.1988 126.547 24.1615 126.547 25.3449V57.2595C126.547 58.4835 127.539 59.4757 128.763 59.4757C129.987 59.4757 130.98 58.4835 130.98 57.2595V25.3449C130.98 21.7175 128.028 18.7664 124.401 18.7664H73.1544C69.527 18.7664 66.5759 21.7175 66.5759 25.3449V106.936C64.4418 105.214 62.0111 103.848 59.373 102.924V13.4147C59.373 9.09524 55.8587 5.58096 51.5392 5.58096H51.3935H45.6302H40.8687V2.21619C40.8687 0.992262 39.8764 0 38.6525 0H16.8162C12.4137 0 8.83203 3.58166 8.83203 7.98419C8.83203 12.3864 12.4137 15.9684 16.8162 15.9684H38.6522C39.8761 15.9684 40.8684 14.9761 40.8684 13.7522V10.0133H43.4137V76.5803C43.4137 77.8042 44.406 78.7965 45.6299 78.7965C46.8539 78.7965 47.8461 77.8042 47.8461 76.5803V10.0133H51.3932H51.5389C53.4144 10.0133 54.9403 11.5393 54.9403 13.4147V101.829C53.782 101.658 52.5982 101.567 51.3932 101.567C50.1882 101.567 49.0045 101.658 47.8461 101.829V85.445C47.8461 84.2211 46.8539 83.2289 45.6299 83.2289C44.406 83.2289 43.4137 84.2211 43.4137 85.445V102.924C33.9704 106.23 27.1768 115.226 27.1768 125.783C27.1768 139.136 38.0402 150 51.3932 150C52.8925 150 54.3579 149.856 55.7825 149.594H134.187C138.586 149.594 142.166 146.014 142.166 141.614C142.167 137.214 138.587 133.635 134.187 133.635ZM105.12 35.8825H92.4359V23.1988H105.12V35.8825ZM36.436 11.5357H16.8162C14.8577 11.5357 13.2644 9.94242 13.2644 7.9839C13.2644 6.02538 14.8577 4.43208 16.8162 4.43208H36.436V11.5357ZM74.2962 133.635C75.1434 131.171 75.61 128.531 75.61 125.784C75.61 120.49 73.8979 115.591 71.005 111.602C71.0056 111.578 71.0086 111.556 71.0086 111.532V80.8714H88.0038V95.7713C88.0038 96.9952 88.996 97.9875 90.22 97.9875H107.336C108.56 97.9875 109.552 96.9952 109.552 95.7713V80.8714H126.547V133.635H74.2962ZM92.4359 80.8714H105.12V93.5551H92.4359V80.8714ZM31.6094 125.783C31.6094 114.874 40.4845 105.999 51.3935 105.999C62.3025 105.999 71.1776 114.874 71.1776 125.783C71.1776 136.692 62.3025 145.567 51.3935 145.567C40.4845 145.567 31.6094 136.692 31.6094 125.783ZM134.187 145.161H65.9004C68.4564 143.243 70.6182 140.829 72.2511 138.067H134.187C136.143 138.067 137.734 139.658 137.734 141.614C137.734 143.57 136.143 145.161 134.187 145.161Z" fill="#1037B6"/>
</svg>
