<svg width="151" height="150" viewBox="0 0 151 150" fill="none" xmlns="http://www.w3.org/2000/svg">
<g clip-path="url(#clip0_188_1636)">
<path d="M137.758 62.8192V67.1757L135.707 74.7164L137.758 80.5189V94.3245L70.243 96.6683L0.5 94.3245V54.2903L68.525 42.5889H113.805C116.096 42.5889 117.953 44.446 117.953 46.737V56.6514H131.59C132.093 56.6514 132.576 56.8515 132.932 57.2074L137.202 61.4769C137.558 61.8328 137.758 62.3156 137.758 62.8192Z" fill="#F68B21"/>
<path d="M0.5 84.4424H137.758V94.3245H0.5V84.4424Z" fill="#1037B6"/>
<path d="M0.5 44.1709V54.2903H48.0263C49.0792 54.2903 50.0891 53.872 50.8338 53.1275L53.2159 50.7454C53.9604 50.001 54.9702 49.5826 56.0234 49.5826H64.555C66.7479 49.5826 68.5253 47.8052 68.5253 45.6123V42.5889H2.08174C1.20811 42.5889 0.5 43.2973 0.5 44.1709H0.5Z" fill="#EEC06B"/>
<path d="M117.953 46.7373C117.953 44.4462 116.096 42.5891 113.805 42.5891H104.316L101.913 44.3469L99.8286 42.5891H86.1719V52.4999C86.1719 54.7927 88.0308 56.6516 90.3235 56.6516H117.954V46.7373H117.953Z" fill="#6A61B2"/>
<path d="M99.7988 42.5889H104.326V58.4092H99.7988V42.5889Z" fill="#E27F86"/>
<path d="M11.3086 35.3168V42.5889H51.7951V35.3168C51.7951 34.1456 50.8456 33.196 49.6743 33.196H13.4294C12.2581 33.196 11.3086 34.1456 11.3086 35.3168Z" fill="#1037B6"/>
<path d="M68.5242 58.9151H60.3533C59.1032 58.9151 58.0898 57.9018 58.0898 56.6517C58.0898 55.4016 59.1032 54.3882 60.3533 54.3882H68.5242C69.7743 54.3882 70.7877 55.4016 70.7877 56.6517C70.7877 57.9018 69.7743 58.9151 68.5242 58.9151Z" fill="#1037B6"/>
<path d="M68.5242 66.8761H60.3533C59.1032 66.8761 58.0898 65.8627 58.0898 64.6126C58.0898 63.3625 59.1032 62.3491 60.3533 62.3491H68.5242C69.7743 62.3491 70.7877 63.3625 70.7877 64.6126C70.7877 65.8627 69.7743 66.8761 68.5242 66.8761Z" fill="#1037B6"/>
<path d="M127.612 80.5819H137.757V67.1938H127.612C126.619 67.1938 125.814 67.9986 125.814 68.9912V78.7846C125.814 79.7772 126.619 80.5819 127.612 80.5819Z" fill="#EEC06B"/>
<path d="M123.969 116.804C128.157 116.804 131.552 113.409 131.552 109.222C131.552 105.034 128.157 101.639 123.969 101.639C119.782 101.639 116.387 105.034 116.387 109.222C116.387 113.409 119.782 116.804 123.969 116.804Z" fill="#6A61B2"/>
<path d="M104.014 116.804C108.202 116.804 111.597 113.409 111.597 109.222C111.597 105.034 108.202 101.639 104.014 101.639C99.8265 101.639 96.4316 105.034 96.4316 109.222C96.4316 113.409 99.8265 116.804 104.014 116.804Z" fill="#6A61B2"/>
<path d="M29.1686 116.804C33.3563 116.804 36.7512 113.409 36.7512 109.222C36.7512 105.034 33.3563 101.639 29.1686 101.639C24.9808 101.639 21.5859 105.034 21.5859 109.222C21.5859 113.409 24.9808 116.804 29.1686 116.804Z" fill="#6A61B2"/>
<path d="M49.1217 116.804C53.3094 116.804 56.7043 113.409 56.7043 109.222C56.7043 105.034 53.3094 101.639 49.1217 101.639C44.9339 101.639 41.5391 105.034 41.5391 109.222C41.5391 113.409 44.9339 116.804 49.1217 116.804Z" fill="#6A61B2"/>
<path d="M115.65 96.2681L100.848 77.127C99.7531 75.6789 98.0173 74.8152 96.2012 74.8152H4.34551C2.225 74.8152 0.5 76.5402 0.5 78.6604V94.3243C0.5 95.5744 1.51338 96.5877 2.76348 96.5877C4.01357 96.5877 5.02695 95.5744 5.02695 94.3243V79.3421H19.543V94.3243C19.543 95.5744 20.5563 96.5877 21.8064 96.5877C23.0565 96.5877 24.0699 95.5744 24.0699 94.3243V79.3421H38.5859V94.3243C38.5859 95.5744 39.5993 96.5877 40.8494 96.5877C42.0995 96.5877 43.1129 95.5744 43.1129 94.3243V79.3421H57.6289V94.3243C57.6289 95.5744 58.6423 96.5877 59.8924 96.5877C61.1425 96.5877 62.1559 95.5744 62.1559 94.3243V79.3421H76.6719V94.3243C76.6719 95.5744 77.6853 96.5877 78.9354 96.5877C80.1855 96.5877 81.1988 95.5744 81.1988 94.3243V79.3421H96.2C96.6061 79.3421 96.9942 79.5358 97.2383 79.8604C97.2444 79.8686 97.2506 79.8765 97.2567 79.8844L112.068 99.037C112.514 99.6138 113.183 99.9162 113.86 99.9162C114.344 99.9162 114.831 99.7618 115.244 99.443C116.233 98.6784 116.415 97.2569 115.65 96.2681Z" fill="#D6E0F4"/>
<path d="M150.5 75.3777C150.5 74.1276 149.487 73.1143 148.237 73.1143C146.986 73.1143 145.973 74.1276 145.973 75.3777V94.3246H0.5V112.322C0.5 113.196 1.20811 113.904 2.08174 113.904H12.4373C12.977 113.904 13.4794 113.629 13.77 113.174L19.1642 104.735C19.4548 104.281 19.9572 104.005 20.4969 104.005H57.7915C58.3312 104.005 58.8336 104.281 59.1242 104.735L64.052 112.444C64.6332 113.353 65.6381 113.904 66.7177 113.904H86.4963C87.5756 113.904 88.5805 113.354 89.162 112.444L94.0897 104.735C94.3804 104.281 94.8828 104.005 95.4225 104.005H132.717C133.257 104.005 133.759 104.281 134.05 104.735L139.444 113.174C139.735 113.629 140.237 113.904 140.777 113.904H148.918C149.791 113.904 150.499 113.196 150.499 112.322V75.3777H150.5Z" fill="#B8C9EA"/>
</g>
<defs>
<clipPath id="clip0_188_1636">
<rect width="150" height="150" fill="white" transform="translate(0.5)"/>
</clipPath>
</defs>
</svg>
