<svg width="137" height="116" viewBox="0 0 137 116" fill="none" xmlns="http://www.w3.org/2000/svg">
<path d="M96.7422 90.5781H61.9609V101.687H115.867L96.7422 90.5781Z" fill="#F68B21"/>
<path d="M92.6406 101.688H57.8828V112.797H111.789L92.6406 101.688Z" fill="#F68B21"/>
<path d="M92.6406 79.4453H57.8828V90.5547H89.5938L92.6406 79.4453Z" fill="#F68B21"/>
<path d="M57.8828 57.2266V68.3359H111.789V57.2266H57.8828Z" fill="#F68B21"/>
<path d="M94.4219 57.2266V68.3359H111.883V57.2266H94.4219Z" fill="#F68B21"/>
<path d="M85.9141 79.4453C84.3938 82.9532 83.5966 86.7316 83.5703 90.5547H89.5938L92.5703 79.4453H85.9141ZM85.9141 101.687C87.3331 105.008 89.3781 108.023 91.9375 110.57C92.7415 111.402 93.5946 112.184 94.4922 112.914H111.953L92.6406 101.687H85.9141Z" fill="#F68B21"/>
<path d="M111.602 68.3359H61.9609V79.4453H115.867L111.602 68.3359Z" fill="#F68B21"/>
<path d="M83.5938 90.5781C83.6201 94.4012 84.4172 98.1796 85.9375 101.687H115.984L96.7422 90.5781H83.5938Z" fill="#E49542"/>
<path d="M94.4219 68.3359C93.5267 69.0598 92.6811 69.8428 91.8906 70.6797C89.3426 73.2261 87.3129 76.2428 85.9141 79.5625H115.984L111.602 68.4531L94.4219 68.3359Z" fill="#E49542"/>
<path d="M134.125 90.5547C134.13 94.9548 132.829 99.2574 130.388 102.918C127.947 106.579 124.475 109.433 120.411 111.12C116.347 112.808 111.874 113.251 107.558 112.396C103.242 111.54 99.2765 109.424 96.1635 106.314C93.0505 103.204 90.9299 99.2412 90.0697 94.926C89.2096 90.6108 89.6487 86.1374 91.3315 82.0718C93.0142 78.0062 95.8651 74.5311 99.5233 72.0861C103.181 69.641 107.483 68.3359 111.883 68.3359C117.778 68.3359 123.432 70.6761 127.602 74.8422C131.773 79.0084 134.119 84.6597 134.125 90.5547Z" fill="#F68B21"/>
<path d="M111.883 30.2031C111.883 35.5442 110.299 40.7653 107.331 45.206C104.363 49.6466 100.145 53.1073 95.2099 55.1501C90.2749 57.193 84.8449 57.7263 79.6068 56.6826C74.3686 55.6389 69.5577 53.0651 65.7827 49.2867C62.0076 45.5084 59.4379 40.6952 58.3988 35.4562C57.3596 30.2172 57.8977 24.7876 59.9448 19.8544C61.992 14.9212 65.4563 10.706 69.8995 7.74206C74.3427 4.77808 79.5652 3.1985 84.9063 3.20314C92.0611 3.21554 98.9191 6.06491 103.976 11.1264C109.033 16.1878 111.877 23.0483 111.883 30.2031Z" fill="#B9E4EF"/>
<path d="M104.125 30.2031C104.125 34.0099 102.996 37.7311 100.88 40.896C98.7651 44.0608 95.7585 46.5271 92.2411 47.9828C88.7236 49.4385 84.8535 49.8182 81.1202 49.0739C77.387 48.3295 73.9584 46.4945 71.2683 43.8011C68.5781 41.1077 66.7473 37.6769 66.0075 33.9427C65.2677 30.2086 65.6521 26.3389 67.1121 22.8232C68.5721 19.3076 71.042 16.304 74.2095 14.1924C77.3769 12.0809 81.0995 10.9563 84.9063 10.961C90.0055 10.9672 94.8938 12.9972 98.4974 16.6051C102.101 20.2131 104.125 25.1038 104.125 30.2031Z" fill="#F6F9F9"/>
<path d="M38.7578 43.9377L26.125 27.5314H34.6328V9.60174C34.7114 8.5584 35.1813 7.58329 35.9485 6.87177C36.7156 6.16026 37.7232 5.76489 38.7695 5.76489C39.8158 5.76489 40.8235 6.16026 41.5906 6.87177C42.3577 7.58329 42.8277 8.5584 42.9063 9.60174V27.5314H51.4141L38.7578 43.9377Z" fill="#F68B21"/>
<path d="M15.5312 69.7189L2.875 53.3127H11.3828V35.3361C11.4614 34.2928 11.9313 33.3177 12.6985 32.6061C13.4656 31.8946 14.4732 31.4993 15.5195 31.4993C16.5658 31.4993 17.5735 31.8946 18.3406 32.6061C19.1077 33.3177 19.5777 34.2928 19.6562 35.3361V53.3127H28.1875L15.5312 69.7189Z" fill="#F68B21"/>
<path d="M38.0313 95.5001L25.3984 79.0938H33.9063V61.0704C33.8634 60.501 33.9385 59.9288 34.1269 59.3898C34.3154 58.8507 34.6131 58.3564 35.0014 57.9377C35.3897 57.519 35.8603 57.185 36.3837 56.9566C36.907 56.7282 37.4719 56.6104 38.043 56.6104C38.614 56.6104 39.1789 56.7282 39.7023 56.9566C40.2256 57.185 40.6962 57.519 41.0845 57.9377C41.4729 58.3564 41.7706 58.8507 41.959 59.3898C42.1475 59.9288 42.2226 60.501 42.1797 61.0704V79.0938H50.6875L38.0313 95.5001Z" fill="#F68B21"/>
<path d="M111.883 68.3359C110.065 68.3591 108.255 68.5951 106.492 69.0391C111.279 70.2517 115.525 73.026 118.557 76.9229C121.59 80.8198 123.237 85.6167 123.237 90.5547C123.237 95.4927 121.59 100.29 118.557 104.187C115.525 108.083 111.279 110.858 106.492 112.07C108.268 112.533 110.094 112.777 111.93 112.797C117.835 112.797 123.498 110.451 127.674 106.275C131.849 102.1 134.195 96.4365 134.195 90.5313C134.195 84.626 131.849 78.9627 127.674 74.7871C123.498 70.6115 117.835 68.2656 111.93 68.2656L111.883 68.3359Z" fill="#F68B21"/>
<path d="M84.9063 10.9844C83.3241 10.9859 81.7487 11.1907 80.2188 11.5938C84.3708 12.6328 88.0565 15.0297 90.6901 18.4036C93.3237 21.7775 94.7541 25.9348 94.7541 30.2148C94.7541 34.4949 93.3237 38.6522 90.6901 42.0261C88.0565 45.4 84.3708 47.7969 80.2188 48.8359C81.7487 49.239 83.3241 49.4438 84.9063 49.4453C87.4881 49.5355 90.0617 49.1048 92.4735 48.1789C94.8854 47.2531 97.0861 45.8511 98.9445 44.0565C100.803 42.2619 102.281 40.1114 103.29 37.7333C104.3 35.3553 104.82 32.7983 104.82 30.2148C104.82 27.6314 104.3 25.0744 103.29 22.6963C102.281 20.3183 100.803 18.1678 98.9445 16.3732C97.0861 14.5786 94.8854 13.1766 92.4735 12.2507C90.0617 11.3249 87.4881 10.8942 84.9063 10.9844Z" fill="#E7ECF1"/>
<path d="M114.227 66.1095V57.2267C114.227 56.6051 113.98 56.0089 113.54 55.5694C113.101 55.1298 112.504 54.8829 111.883 54.8829H100.727C106.065 51.4585 110.15 46.3968 112.37 40.4559C114.59 34.5151 114.826 28.0148 113.041 21.9288C111.257 15.8428 107.549 10.4987 102.473 6.69688C97.3964 2.89511 91.225 0.840332 84.8828 0.840332C78.5407 0.840332 72.3692 2.89511 67.2928 6.69688C62.2165 10.4987 58.5085 15.8428 56.7242 21.9288C54.94 28.0148 55.1756 34.5151 57.3956 40.4559C59.6157 46.3968 63.7008 51.4585 69.0391 54.8829H57.8828C57.2612 54.8829 56.6651 55.1298 56.2255 55.5694C55.786 56.0089 55.5391 56.6051 55.5391 57.2267V68.336C55.5391 68.9576 55.786 69.5538 56.2255 69.9933C56.6651 70.4329 57.2612 70.6798 57.8828 70.6798H59.6172V77.1017H57.8828C57.2612 77.1017 56.6651 77.3486 56.2255 77.7881C55.786 78.2277 55.5391 78.8238 55.5391 79.4454V90.5548C55.5391 91.1764 55.786 91.7725 56.2255 92.2121C56.6651 92.6516 57.2612 92.8985 57.8828 92.8985H59.6172V99.3438H57.8828C57.2612 99.3438 56.6651 99.5908 56.2255 100.03C55.786 100.47 55.5391 101.066 55.5391 101.688V112.797C55.5391 113.419 55.786 114.015 56.2255 114.454C56.6651 114.894 57.2612 115.141 57.8828 115.141H111.789C118.137 115.195 124.258 112.79 128.872 108.43C133.485 104.069 136.231 98.0923 136.534 91.7519C136.837 85.4115 134.673 79.1999 130.497 74.4194C126.321 69.639 120.456 66.6609 114.133 66.1095H114.227ZM60.3203 30.2032C60.325 25.3247 61.7768 20.5572 64.492 16.504C67.2072 12.4509 71.0637 9.29438 75.5736 7.43388C80.0834 5.57339 85.0438 5.09258 89.827 6.0523C94.6102 7.01203 99.0012 9.36915 102.444 12.8254C105.887 16.2816 108.228 20.6815 109.169 25.4683C110.111 30.2551 109.611 35.2137 107.733 39.7164C105.856 44.2191 102.685 48.0637 98.6212 50.7634C94.5578 53.4632 89.7848 54.8968 84.9063 54.8829C78.3608 54.8829 72.0834 52.2827 67.4551 47.6544C62.8267 43.026 60.2266 36.7487 60.2266 30.2032H60.3203ZM60.3203 59.5704H109.539V65.9923H60.3203V59.5704ZM64.3984 70.6798H97.5156C95.0944 72.4357 93.0069 74.6106 91.3516 77.1017H64.3047L64.3984 70.6798ZM87.5313 88.211H60.2266V81.7892H88.9609C88.1682 83.852 87.6558 86.0119 87.4375 88.211H87.5313ZM64.3984 92.8985H87.5313C87.7466 95.1058 88.2591 97.2738 89.0547 99.3438H64.3047L64.3984 92.8985ZM60.3203 110.453V104.031H91.3516C93.0069 106.522 95.0944 108.697 97.5156 110.453H60.3203ZM112 110.453C108.06 110.476 104.201 109.329 100.913 107.157C97.6256 104.985 95.057 101.885 93.5329 98.2511C92.0089 94.6173 91.598 90.6127 92.3525 86.7451C93.107 82.8775 94.9929 79.321 97.771 76.5264C100.549 73.7318 104.094 71.825 107.958 71.0477C111.821 70.2704 115.828 70.6575 119.47 72.1601C123.113 73.6626 126.228 76.213 128.419 79.4877C130.611 82.7625 131.781 86.6143 131.781 90.5548C131.769 95.8243 129.672 100.875 125.948 104.603C122.224 108.332 117.176 110.435 111.906 110.453H112Z" fill="#1037B6"/>
<path d="M114.695 81.0156V80.7578C114.695 80.1362 114.448 79.5401 114.009 79.1005C113.569 78.661 112.973 78.4141 112.352 78.4141C111.73 78.4141 111.134 78.661 110.694 79.1005C110.255 79.5401 110.008 80.1362 110.008 80.7578H107.078C106.77 80.747 106.463 80.797 106.175 80.9048C105.886 81.0127 105.622 81.1763 105.397 81.3863C104.942 81.8104 104.674 82.3979 104.652 83.0195C104.631 83.6411 104.857 84.2459 105.281 84.7008C105.705 85.1558 106.292 85.4236 106.914 85.4453V88.3047C106.292 88.3047 105.696 88.5516 105.257 88.9912C104.817 89.4307 104.57 90.0268 104.57 90.6484C104.57 91.27 104.817 91.8662 105.257 92.3057C105.696 92.7453 106.292 92.9922 106.914 92.9922V95.7344C106.606 95.7451 106.304 95.8164 106.023 95.9442C105.743 96.0719 105.491 96.2536 105.281 96.4788C104.857 96.9338 104.631 97.5385 104.652 98.1601C104.674 98.7817 104.942 99.3692 105.397 99.7934C105.852 100.218 106.457 100.444 107.078 100.422H110.008C110.008 101.043 110.255 101.64 110.694 102.079C111.134 102.519 111.73 102.766 112.352 102.766C112.973 102.766 113.569 102.519 114.009 102.079C114.448 101.64 114.695 101.043 114.695 100.422V100.187C115.948 99.8118 117.047 99.0446 117.831 97.9986C118.616 96.9525 119.045 95.6825 119.055 94.375C119.04 93.015 118.578 91.6976 117.742 90.625C118.359 89.8502 118.775 88.9354 118.954 87.9616C119.132 86.9877 119.068 85.9848 118.767 85.0416C118.466 84.0984 117.936 83.244 117.226 82.554C116.516 81.8641 115.647 81.3598 114.695 81.0859V81.0156ZM114.367 94.3047C114.367 94.6776 114.219 95.0353 113.955 95.299C113.692 95.5628 113.334 95.7109 112.961 95.7109H111.602V92.8984H113.031C113.392 92.9165 113.732 93.0726 113.98 93.3344C114.229 93.5962 114.368 93.9436 114.367 94.3047ZM111.602 88.2109V85.4219H113.031C113.404 85.4219 113.762 85.57 114.026 85.8338C114.289 86.0975 114.438 86.4552 114.438 86.8281C114.438 87.0117 114.401 87.1935 114.33 87.3628C114.259 87.5321 114.155 87.6856 114.024 87.8143C113.893 87.943 113.738 88.0444 113.568 88.1125C113.397 88.1806 113.215 88.214 113.031 88.2109H111.602Z" fill="#1037B6"/>
<path d="M84.9063 8.61719C80.637 8.61719 76.4635 9.88318 72.9138 12.2551C69.364 14.627 66.5972 17.9982 64.9635 21.9425C63.3297 25.8869 62.9022 30.2271 63.7351 34.4143C64.568 38.6016 66.6238 42.4478 69.6427 45.4667C72.6615 48.4855 76.5078 50.5414 80.695 51.3743C84.8823 52.2072 89.2225 51.7797 93.1668 50.1459C97.1112 48.5121 100.482 45.7454 102.854 42.1956C105.226 38.6458 106.492 34.4724 106.492 30.2031C106.486 24.4801 104.21 18.9932 100.163 14.9464C96.1162 10.8996 90.6293 8.62339 84.9063 8.61719ZM87.25 46.9141V42.9062C87.25 42.2846 87.0031 41.6885 86.5635 41.249C86.124 40.8094 85.5279 40.5625 84.9063 40.5625C84.2847 40.5625 83.6885 40.8094 83.249 41.249C82.8094 41.6885 82.5625 42.2846 82.5625 42.9062V46.9141C78.9322 46.4048 75.5664 44.7273 72.9743 42.1351C70.3821 39.543 68.7046 36.1772 68.1953 32.5469H72.2266C72.8482 32.5469 73.4443 32.2999 73.8839 31.8604C74.3234 31.4209 74.5703 30.8247 74.5703 30.2031C74.5703 29.5815 74.3234 28.9854 73.8839 28.5458C73.4443 28.1063 72.8482 27.8594 72.2266 27.8594H68.1719C68.685 24.2244 70.3663 20.8548 72.9621 18.259C75.5579 15.6631 78.9275 13.9818 82.5625 13.4688V17.5C82.5625 18.1216 82.8094 18.7177 83.249 19.1573C83.6885 19.5968 84.2847 19.8438 84.9063 19.8438C85.5279 19.8438 86.124 19.5968 86.5635 19.1573C87.0031 18.7177 87.25 18.1216 87.25 17.5V13.4688C90.8774 13.9853 94.2391 15.6652 96.8299 18.256C99.4207 20.8469 101.101 24.2086 101.617 27.8359H97.5625C96.9409 27.8359 96.3448 28.0829 95.9052 28.5224C95.4657 28.9619 95.2188 29.5581 95.2188 30.1797C95.2188 30.8013 95.4657 31.3974 95.9052 31.837C96.3448 32.2765 96.9409 32.5234 97.5625 32.5234H101.594C101.09 36.1546 99.4184 39.5231 96.8305 42.1195C94.2425 44.7159 90.8795 46.3989 87.25 46.9141Z" fill="#1037B6"/>
<path d="M95.4765 19.6095C95.0373 19.173 94.4433 18.928 93.8241 18.928C93.2049 18.928 92.6109 19.173 92.1718 19.6095L84.9062 26.8986L81.6015 23.5939C81.1623 23.1574 80.5683 22.9124 79.9491 22.9124C79.3299 22.9124 78.7359 23.1574 78.2968 23.5939C78.0771 23.8118 77.9028 24.071 77.7838 24.3566C77.6648 24.6422 77.6035 24.9486 77.6035 25.258C77.6035 25.5674 77.6648 25.8737 77.7838 26.1593C77.9028 26.4449 78.0771 26.7041 78.2968 26.922L83.2421 31.8673C83.4611 32.0846 83.7208 32.2564 84.0064 32.373C84.2919 32.4897 84.5977 32.5488 84.9062 32.547C85.2146 32.5488 85.5204 32.4897 85.8059 32.373C86.0915 32.2564 86.3512 32.0846 86.5702 31.8673L95.4765 22.8439C95.892 22.408 96.1238 21.8289 96.1238 21.2267C96.1238 20.6245 95.892 20.0454 95.4765 19.6095Z" fill="#1037B6"/>
<path d="M53.5237 26.5234C53.3305 26.129 53.0302 25.7968 52.6573 25.5647C52.2843 25.3326 51.8536 25.2101 51.4144 25.2109H45.2503V9.60156C45.1509 7.9502 44.4249 6.39907 43.2205 5.26494C42.0161 4.13082 40.4242 3.49927 38.7698 3.49927C37.1155 3.49927 35.5235 4.13082 34.3191 5.26494C33.1147 6.39907 32.3887 7.9502 32.2893 9.60156V25.1875H26.1253C25.686 25.1841 25.2546 25.3043 24.8804 25.5343C24.5061 25.7643 24.204 26.0948 24.0085 26.4882C23.813 26.8816 23.732 27.3221 23.7748 27.7593C23.8175 28.1965 23.9823 28.6129 24.2503 28.9609L36.9065 45.3672C37.1256 45.6495 37.4063 45.8779 37.7273 46.0351C38.0482 46.1923 38.4008 46.274 38.7581 46.274C39.1154 46.274 39.468 46.1923 39.7889 46.0351C40.1099 45.8779 40.3906 45.6495 40.6097 45.3672L53.2659 28.9609C53.5297 28.618 53.6934 28.2088 53.7389 27.7786C53.7844 27.3484 53.7099 26.9139 53.5237 26.5234ZM38.7581 40.1406L31.0003 29.875H34.7503C35.3719 29.875 35.968 29.6281 36.4076 29.1885C36.8471 28.749 37.094 28.1528 37.094 27.5312V9.60156C37.094 9.36764 37.1401 9.13601 37.2296 8.9199C37.3191 8.70379 37.4504 8.50743 37.6158 8.34202C37.7812 8.17662 37.9775 8.04541 38.1936 7.95589C38.4097 7.86638 38.6414 7.8203 38.8753 7.8203C39.3499 7.82026 39.8054 8.00718 40.1432 8.34057C40.481 8.67397 40.6738 9.127 40.68 9.60156V27.5312C40.68 28.1528 40.9269 28.749 41.3664 29.1885C41.806 29.6281 42.4021 29.875 43.0237 29.875H46.7737L38.7581 40.1406Z" fill="#1037B6"/>
<path d="M15.5315 28.8438C13.8096 28.8437 12.1583 29.5277 10.9408 30.7453C9.72327 31.9628 9.03928 33.6141 9.03928 35.3359V50.9688H2.87521C2.43595 50.9679 2.00528 51.0905 1.63232 51.3225C1.25935 51.5546 0.959115 51.8868 0.765839 52.2813C0.574968 52.6747 0.49796 53.1136 0.543519 53.5485C0.589079 53.9834 0.755391 54.3969 1.02365 54.7422L13.6565 71.1484C13.8772 71.4352 14.1614 71.667 14.4867 71.8256C14.812 71.9842 15.1696 72.0653 15.5315 72.0625C15.8894 72.0616 16.2424 71.9788 16.5633 71.8204C16.8843 71.6619 17.1647 71.4321 17.383 71.1484L30.0393 54.7422C30.306 54.3957 30.4705 53.9815 30.5141 53.5464C30.5578 53.1113 30.4788 52.6726 30.2862 52.2801C30.0936 51.8875 29.7949 51.5566 29.4241 51.3249C29.0533 51.0932 28.625 50.9698 28.1877 50.9688H22.0002V35.3359C22.0002 33.6182 21.3194 31.9704 20.107 30.7535C18.8945 29.5367 17.2492 28.85 15.5315 28.8438ZM23.4065 55.6563L15.5315 65.875L7.56271 55.6563H11.3127C11.9343 55.6563 12.5305 55.4093 12.97 54.9698C13.4095 54.5303 13.6565 53.9341 13.6565 53.3125V35.3359C13.6275 35.0833 13.6523 34.8273 13.7292 34.5849C13.8061 34.3425 13.9334 34.1191 14.1027 33.9293C14.272 33.7395 14.4795 33.5876 14.7116 33.4837C14.9437 33.3797 15.1951 33.3259 15.4494 33.3259C15.7038 33.3259 15.9552 33.3797 16.1873 33.4837C16.4194 33.5876 16.6269 33.7395 16.7962 33.9293C16.9655 34.1191 17.0927 34.3425 17.1696 34.5849C17.2465 34.8273 17.2713 35.0833 17.2424 35.3359V53.3125C17.2424 53.9341 17.4893 54.5303 17.9289 54.9698C18.3684 55.4093 18.9645 55.6563 19.5861 55.6563H23.4065Z" fill="#1037B6"/>
<path d="M36.0628 96.8828C36.2879 97.1912 36.5849 97.44 36.928 97.6075C37.2711 97.775 37.6499 97.8561 38.0316 97.8438C38.3934 97.8465 38.751 97.7654 39.0763 97.6068C39.4016 97.4482 39.6858 97.2165 39.9066 96.9297L52.5394 80.5235C52.7856 80.1904 52.9392 79.7981 52.9845 79.3864C53.0298 78.9747 52.9651 78.5583 52.7972 78.1797C52.6039 77.7852 52.3037 77.453 51.9307 77.221C51.5577 76.9889 51.1271 76.8663 50.6878 76.8672H44.4066V61.0703C44.4597 60.1865 44.3316 59.3012 44.0299 58.4687C43.7283 57.6363 43.2596 56.8743 42.6526 56.2297C42.0456 55.5851 41.3132 55.0715 40.5004 54.7204C39.6875 54.3693 38.8115 54.1882 37.9261 54.1882C37.0407 54.1882 36.1646 54.3693 35.3518 54.7204C34.539 55.0715 33.8066 55.5851 33.1996 56.2297C32.5926 56.8743 32.1239 57.6363 31.8222 58.4687C31.5206 59.3012 31.3924 60.1865 31.4456 61.0703V76.75H25.2815C24.8423 76.7491 24.4116 76.8717 24.0386 77.1038C23.6657 77.3358 23.3654 77.6681 23.1722 78.0625C23.0009 78.4391 22.9324 78.8543 22.9735 79.266C23.0147 79.6776 23.1641 80.071 23.4065 80.4063L36.0628 96.8828ZM33.7191 81.3672C34.3407 81.3672 34.9368 81.1203 35.3763 80.6807C35.8159 80.2412 36.0628 79.6451 36.0628 79.0235V61.0703C36.0339 60.8177 36.0587 60.5617 36.1356 60.3193C36.2125 60.0769 36.3397 59.8535 36.509 59.6637C36.6783 59.4739 36.8858 59.322 37.1179 59.218C37.35 59.1141 37.6014 59.0603 37.8558 59.0603C38.1101 59.0603 38.3615 59.1141 38.5936 59.218C38.8257 59.322 39.0332 59.4739 39.2025 59.6637C39.3718 59.8535 39.4991 60.0769 39.576 60.3193C39.6529 60.5617 39.6777 60.8177 39.6487 61.0703V79.0938C39.6487 79.7154 39.8957 80.3115 40.3352 80.751C40.7747 81.1906 41.3709 81.4375 41.9925 81.4375H45.7425L38.0316 91.6094L30.0394 81.4375L33.7191 81.3672Z" fill="#1037B6"/>
</svg>
