<svg width="100" height="101" viewBox="0 0 100 101" fill="none" xmlns="http://www.w3.org/2000/svg">
<path d="M68.8281 72.2188H45.6406V79.625H81.5781L68.8281 72.2188Z" fill="#F68B21"/>
<path d="M66.0937 79.625H42.9219V87.0312H78.8594L66.0937 79.625Z" fill="#F68B21"/>
<path d="M66.0938 64.7969H42.9219V72.2031H64.0625L66.0938 64.7969Z" fill="#F68B21"/>
<path d="M42.9219 49.9844V57.3906H78.8594V49.9844H42.9219Z" fill="#F68B21"/>
<path d="M67.2812 49.9844V57.3906H78.9219V49.9844H67.2812Z" fill="#F68B21"/>
<path d="M61.6094 64.7969C60.5959 67.1355 60.0644 69.6544 60.0469 72.2031H64.0625L66.0469 64.7969H61.6094ZM61.6094 79.625C62.5554 81.8384 63.9187 83.849 65.625 85.5469C66.161 86.1012 66.7297 86.623 67.3281 87.1094H78.9688L66.0938 79.625H61.6094Z" fill="#F68B21"/>
<path d="M78.7344 57.3906H45.6406V64.7969H81.5781L78.7344 57.3906Z" fill="#F68B21"/>
<path d="M60.0625 72.2188C60.0801 74.7674 60.6115 77.2864 61.625 79.625H81.6563L68.8281 72.2188H60.0625Z" fill="#E49542"/>
<path d="M67.2813 57.3906C66.6845 57.8732 66.1207 58.3952 65.5937 58.9531C63.8951 60.6508 62.5419 62.6619 61.6094 64.875H81.6563L78.7344 57.4687L67.2813 57.3906Z" fill="#E49542"/>
<path d="M93.75 72.2031C93.7531 75.1365 92.8861 78.0049 91.2586 80.4454C89.6312 82.886 87.3164 84.789 84.6072 85.9137C81.898 87.0384 78.916 87.3342 76.0386 86.7639C73.1612 86.1935 70.5177 84.7825 68.4423 82.7093C66.367 80.6362 64.9532 77.9941 64.3798 75.1173C63.8064 72.2405 64.0991 69.2583 65.221 66.5479C66.3428 63.8375 68.2434 61.5207 70.6822 59.8907C73.121 58.2607 75.9885 57.3906 78.9219 57.3906C82.8518 57.3906 86.6211 58.9507 89.4014 61.7282C92.1818 64.5056 93.7459 68.2732 93.75 72.2031Z" fill="#F68B21"/>
<path d="M78.9219 31.9688C78.9219 35.5295 77.8658 39.0102 75.8872 41.9706C73.9087 44.9311 71.0965 47.2382 67.8066 48.6001C64.5166 49.962 60.8966 50.3176 57.4045 49.6218C53.9124 48.9259 50.7052 47.2101 48.1884 44.6912C45.6717 42.1722 43.9586 38.9635 43.2658 35.4708C42.5731 31.9781 42.9318 28.3584 44.2965 25.0696C45.6613 21.7808 47.9708 18.9707 50.933 16.9947C53.8951 15.0187 57.3768 13.9657 60.9375 13.9688C65.7074 13.977 70.2794 15.8766 73.6508 19.2509C77.0221 22.6252 78.9177 27.1988 78.9219 31.9688V31.9688Z" fill="#B9E4EF"/>
<path d="M73.75 31.9688C73.75 34.5066 72.9972 36.9874 71.587 39.0973C70.1767 41.2072 68.1723 42.8514 65.8274 43.8219C63.4824 44.7924 60.9023 45.0455 58.4135 44.5492C55.9246 44.053 53.6389 42.8297 51.8455 41.0341C50.0521 39.2385 48.8316 36.9513 48.3383 34.4618C47.8451 31.9724 48.1014 29.3926 49.0747 27.0488C50.0481 24.7051 51.6947 22.7027 53.8063 21.295C55.918 19.8873 58.3997 19.1375 60.9375 19.1406C64.337 19.1448 67.5959 20.4981 69.9983 22.9034C72.4006 25.3087 73.75 28.5692 73.75 31.9688Z" fill="#F6F9F9"/>
<path d="M30.1719 41.1253L21.75 30.1878H27.4219V18.2347C27.4743 17.5391 27.7876 16.889 28.299 16.4147C28.8104 15.9403 29.4822 15.6768 30.1797 15.6768C30.8772 15.6768 31.549 15.9403 32.0604 16.4147C32.5718 16.889 32.8851 17.5391 32.9375 18.2347V30.1878H38.6094L30.1719 41.1253Z" fill="#F68B21"/>
<path d="M14.6875 58.3128L6.25 47.3753H11.9219V35.3909C11.9743 34.6953 12.2876 34.0453 12.799 33.5709C13.3104 33.0966 13.9822 32.833 14.6797 32.833C15.3772 32.833 16.049 33.0966 16.5604 33.5709C17.0718 34.0453 17.3851 34.6953 17.4375 35.3909V47.3753H23.125L14.6875 58.3128Z" fill="#F68B21"/>
<path d="M29.6875 75.5002L21.2656 64.5627H26.9375V52.5471C26.9089 52.1675 26.959 51.786 27.0846 51.4267C27.2103 51.0673 27.4087 50.7378 27.6676 50.4586C27.9265 50.1795 28.2402 49.9569 28.5891 49.8046C28.938 49.6523 29.3146 49.5737 29.6953 49.5737C30.076 49.5737 30.4526 49.6523 30.8015 49.8046C31.1504 49.9569 31.4641 50.1795 31.723 50.4586C31.9819 50.7378 32.1804 51.0673 32.306 51.4267C32.4316 51.786 32.4817 52.1675 32.4531 52.5471V64.5627H38.125L29.6875 75.5002Z" fill="#F68B21"/>
<path d="M78.9219 57.3906C77.7098 57.4061 76.5036 57.5634 75.3281 57.8594C78.5193 58.6678 81.3497 60.5173 83.3716 63.1153C85.3934 65.7132 86.4912 68.9111 86.4912 72.2031C86.4912 75.4951 85.3934 78.6931 83.3716 81.291C81.3497 83.8889 78.5193 85.7384 75.3281 86.5469C76.5122 86.8556 77.7296 87.0183 78.9531 87.0313C82.8899 87.0313 86.6655 85.4674 89.4492 82.6836C92.233 79.8999 93.7969 76.1243 93.7969 72.1875C93.7969 68.2507 92.233 64.4751 89.4492 61.6914C86.6655 58.9076 82.8899 57.3438 78.9531 57.3438L78.9219 57.3906Z" fill="#F68B21"/>
<path d="M60.9375 19.1563C59.8827 19.1573 58.8325 19.2938 57.8125 19.5625C60.5805 20.2552 63.0376 21.8531 64.7934 24.1024C66.5491 26.3517 67.5028 29.1232 67.5028 31.9766C67.5028 34.8299 66.5491 37.6015 64.7934 39.8507C63.0376 42.1 60.5805 43.6979 57.8125 44.3906C58.8325 44.6593 59.8827 44.7959 60.9375 44.7969C62.6587 44.857 64.3745 44.5698 65.9824 43.9526C67.5903 43.3354 69.0574 42.4007 70.2963 41.2043C71.5352 40.0079 72.5205 38.5743 73.1935 36.9889C73.8665 35.4035 74.2133 33.6989 74.2133 31.9766C74.2133 30.2543 73.8665 28.5496 73.1935 26.9642C72.5205 25.3788 71.5352 23.9452 70.2963 22.7488C69.0574 21.5524 67.5903 20.6177 65.9824 20.0005C64.3745 19.3833 62.6587 19.0962 60.9375 19.1563V19.1563Z" fill="#E7ECF1"/>
<path d="M80.4844 55.9063V49.9844C80.4844 49.57 80.3198 49.1726 80.0267 48.8796C79.7337 48.5866 79.3363 48.4219 78.9219 48.4219H71.4844C75.0432 46.139 77.7666 42.7646 79.2467 38.804C80.7267 34.8434 80.8838 30.5099 79.6943 26.4525C78.5048 22.3952 76.0328 18.8324 72.6485 16.2979C69.2643 13.7634 65.15 12.3936 60.9219 12.3936C56.6938 12.3936 52.5795 13.7634 49.1952 16.2979C45.811 18.8324 43.339 22.3952 42.1495 26.4525C40.96 30.5099 41.117 34.8434 42.5971 38.804C44.0772 42.7646 46.8006 46.139 50.3594 48.4219H42.9219C42.5075 48.4219 42.11 48.5866 41.817 48.8796C41.524 49.1726 41.3594 49.57 41.3594 49.9844V57.3907C41.3594 57.8051 41.524 58.2025 41.817 58.4955C42.11 58.7886 42.5075 58.9532 42.9219 58.9532H44.0781V63.2344H42.9219C42.5075 63.2344 42.11 63.3991 41.817 63.6921C41.524 63.9851 41.3594 64.3825 41.3594 64.7969V72.2032C41.3594 72.6176 41.524 73.015 41.817 73.308C42.11 73.6011 42.5075 73.7657 42.9219 73.7657H44.0781V78.0626H42.9219C42.5075 78.0626 42.11 78.2272 41.817 78.5202C41.524 78.8132 41.3594 79.2107 41.3594 79.6251V87.0313C41.3594 87.4457 41.524 87.8432 41.817 88.1362C42.11 88.4292 42.5075 88.5938 42.9219 88.5938H78.8594C83.091 88.63 87.1723 87.0266 90.2477 84.1197C93.3231 81.2128 95.1537 77.2282 95.3557 73.0013C95.5578 68.7743 94.1156 64.6333 91.3315 61.4463C88.5474 58.2593 84.6377 56.2739 80.4219 55.9063H80.4844ZM44.5469 31.9688C44.55 28.7164 45.5178 25.5381 47.328 22.836C49.1381 20.1339 51.7092 18.0296 54.7157 16.7893C57.7223 15.5489 61.0292 15.2284 64.218 15.8682C67.4068 16.508 70.3342 18.0794 72.6295 20.3836C74.9249 22.6877 76.4852 25.621 77.1129 28.8122C77.7405 32.0034 77.4074 35.3091 76.1556 38.3109C74.9039 41.3128 72.7897 43.8758 70.0808 45.6756C67.3718 47.4754 64.1898 48.4312 60.9375 48.4219C56.5739 48.4219 52.3889 46.6885 49.3034 43.6029C46.2178 40.5174 44.4844 36.3324 44.4844 31.9688H44.5469ZM44.5469 51.5469H77.3594V55.8282H44.5469V51.5469ZM47.2656 58.9532H69.3438C67.7296 60.1238 66.3379 61.5737 65.2344 63.2344H47.2031L47.2656 58.9532ZM62.6875 70.6407H44.4844V66.3594H63.6406C63.1121 67.7347 62.7705 69.1746 62.625 70.6407H62.6875ZM47.2656 73.7657H62.6875C62.8311 75.2372 63.1727 76.6825 63.7031 78.0626H47.2031L47.2656 73.7657ZM44.5469 85.4688V81.1876H65.2344C66.3379 82.8483 67.7296 84.2982 69.3438 85.4688H44.5469ZM79 85.4688C76.373 85.4843 73.8006 84.7194 71.6089 83.2712C69.4171 81.823 67.7046 79.7567 66.6886 77.3341C65.6726 74.9115 65.3987 72.2418 65.9017 69.6634C66.4047 67.085 67.6619 64.714 69.514 62.851C71.3661 60.9879 73.7296 59.7167 76.305 59.1985C78.8804 58.6802 81.5517 58.9383 83.9802 59.9401C86.4087 60.9418 88.4852 62.642 89.9463 64.8252C91.4074 67.0083 92.1875 69.5762 92.1875 72.2032C92.1793 75.7162 90.7811 79.0832 88.2985 81.5688C85.8159 84.0544 82.4505 85.4564 78.9375 85.4688H79Z" fill="#1037B6"/>
<path d="M80.7969 65.8438V65.6719C80.7969 65.2575 80.6323 64.86 80.3392 64.567C80.0462 64.274 79.6488 64.1094 79.2344 64.1094C78.82 64.1094 78.4226 64.274 78.1295 64.567C77.8365 64.86 77.6719 65.2575 77.6719 65.6719H75.7188C75.5136 65.6647 75.309 65.698 75.1166 65.7699C74.9243 65.8418 74.748 65.9508 74.5979 66.0909C74.2946 66.3736 74.1161 66.7653 74.1016 67.1797C74.0871 67.5941 74.2378 67.9973 74.5205 68.3006C74.8033 68.6038 75.195 68.7824 75.6094 68.7969V70.7031C75.195 70.7031 74.7975 70.8677 74.5045 71.1608C74.2115 71.4538 74.0469 71.8512 74.0469 72.2656C74.0469 72.68 74.2115 73.0775 74.5045 73.3705C74.7975 73.6635 75.195 73.8281 75.6094 73.8281V75.6562C75.4042 75.6634 75.2024 75.711 75.0156 75.7961C74.8288 75.8813 74.6606 76.0024 74.5205 76.1526C74.2378 76.4558 74.0871 76.859 74.1016 77.2734C74.1161 77.6878 74.2946 78.0795 74.5979 78.3623C74.9012 78.645 75.3044 78.7957 75.7188 78.7812H77.6719C77.6719 79.1956 77.8365 79.5931 78.1295 79.8861C78.4226 80.1791 78.82 80.3437 79.2344 80.3437C79.6488 80.3437 80.0462 80.1791 80.3392 79.8861C80.6323 79.5931 80.7969 79.1956 80.7969 78.7812V78.625C81.6319 78.3745 82.3646 77.8631 82.8876 77.1657C83.4107 76.4683 83.6965 75.6217 83.7031 74.75C83.6931 73.8433 83.3857 72.965 82.8281 72.25C83.2392 71.7335 83.5165 71.1236 83.6357 70.4744C83.7548 69.8251 83.7121 69.1565 83.5112 68.5277C83.3104 67.8989 82.9577 67.3293 82.4842 66.8694C82.0108 66.4094 81.4312 66.0732 80.7969 65.8906V65.8438ZM80.5781 74.7031C80.5781 74.9518 80.4794 75.1902 80.3035 75.366C80.1277 75.5418 79.8893 75.6406 79.6406 75.6406H78.7344V73.7656H79.6875C79.9279 73.7777 80.1545 73.8817 80.3203 74.0562C80.4861 74.2308 80.5784 74.4624 80.5781 74.7031V74.7031ZM78.7344 70.6406V68.7813H79.6875C79.9362 68.7813 80.1746 68.88 80.3504 69.0558C80.5262 69.2317 80.625 69.4701 80.625 69.7187C80.625 69.8411 80.6007 69.9623 80.5534 70.0752C80.5061 70.1881 80.4368 70.2904 80.3495 70.3762C80.2622 70.462 80.1588 70.5296 80.0451 70.575C79.9314 70.6204 79.8099 70.6427 79.6875 70.6406H78.7344Z" fill="#1037B6"/>
<path d="M60.9375 17.5781C58.0913 17.5781 55.309 18.4221 52.9425 20.0034C50.576 21.5846 48.7315 23.8322 47.6423 26.4617C46.5531 29.0912 46.2681 31.9847 46.8234 34.7762C47.3787 37.5677 48.7492 40.1319 50.7618 42.1445C52.7744 44.157 55.3385 45.5276 58.13 46.0829C60.9215 46.6381 63.815 46.3531 66.4446 45.264C69.0741 44.1748 71.3216 42.3303 72.9029 39.9638C74.4841 37.5972 75.3281 34.8149 75.3281 31.9688C75.324 28.1534 73.8065 24.4955 71.1086 21.7976C68.4108 19.0997 64.7529 17.5823 60.9375 17.5781V17.5781ZM62.5 43.1094V40.4375C62.5 40.0231 62.3354 39.6257 62.0424 39.3326C61.7493 39.0396 61.3519 38.875 60.9375 38.875C60.5231 38.875 60.1257 39.0396 59.8327 39.3326C59.5396 39.6257 59.375 40.0231 59.375 40.4375V43.1094C56.9548 42.7699 54.711 41.6515 52.9829 39.9234C51.2548 38.1953 50.1364 35.9515 49.7969 33.5313H52.4844C52.8988 33.5313 53.2962 33.3666 53.5892 33.0736C53.8823 32.7806 54.0469 32.3832 54.0469 31.9688C54.0469 31.5543 53.8823 31.1569 53.5892 30.8639C53.2962 30.5709 52.8988 30.4063 52.4844 30.4063H49.7813C50.1233 27.9829 51.2442 25.7365 52.9747 24.006C54.7053 22.2754 56.9517 21.1546 59.375 20.8125V23.5C59.375 23.9144 59.5396 24.3118 59.8327 24.6049C60.1257 24.8979 60.5231 25.0625 60.9375 25.0625C61.3519 25.0625 61.7493 24.8979 62.0424 24.6049C62.3354 24.3118 62.5 23.9144 62.5 23.5V20.8125C64.9183 21.1569 67.1594 22.2768 68.8866 24.004C70.6138 25.7312 71.7338 27.9724 72.0781 30.3906H69.375C68.9606 30.3906 68.5632 30.5552 68.2702 30.8483C67.9771 31.1413 67.8125 31.5387 67.8125 31.9531C67.8125 32.3675 67.9771 32.765 68.2702 33.058C68.5632 33.351 68.9606 33.5156 69.375 33.5156H72.0625C71.727 35.9364 70.6123 38.1821 68.887 39.913C67.1617 41.6439 64.9197 42.7659 62.5 43.1094V43.1094Z" fill="#1037B6"/>
<path d="M67.9844 24.9065C67.6916 24.6155 67.2956 24.4521 66.8828 24.4521C66.47 24.4521 66.074 24.6155 65.7813 24.9065L60.9375 29.7659L58.7344 27.5628C58.4416 27.2717 58.0456 27.1084 57.6328 27.1084C57.22 27.1084 56.824 27.2717 56.5313 27.5628C56.3848 27.708 56.2686 27.8808 56.1893 28.0712C56.1099 28.2616 56.0691 28.4659 56.0691 28.6721C56.0691 28.8784 56.1099 29.0826 56.1893 29.273C56.2686 29.4634 56.3848 29.6363 56.5313 29.7815L59.8282 33.0784C59.9742 33.2232 60.1473 33.3378 60.3377 33.4155C60.528 33.4933 60.7319 33.5327 60.9375 33.5315C61.1432 33.5327 61.347 33.4933 61.5374 33.4155C61.7277 33.3378 61.9009 33.2232 62.0469 33.0784L67.9844 27.0628C68.2614 26.7722 68.4159 26.3861 68.4159 25.9846C68.4159 25.5832 68.2614 25.1971 67.9844 24.9065V24.9065Z" fill="#1037B6"/>
<path d="M40.0156 29.5155C39.8867 29.2525 39.6866 29.031 39.4379 28.8763C39.1893 28.7216 38.9022 28.6399 38.6093 28.6405H34.4999V18.2342C34.4337 17.1333 33.9497 16.0992 33.1468 15.3431C32.3438 14.5871 31.2825 14.166 30.1796 14.166C29.0767 14.166 28.0155 14.5871 27.2125 15.3431C26.4096 16.0992 25.9256 17.1333 25.8593 18.2342V28.6248H21.7499C21.4571 28.6226 21.1695 28.7027 20.92 28.856C20.6705 29.0094 20.4691 29.2297 20.3388 29.492C20.2084 29.7543 20.1545 30.0479 20.183 30.3393C20.2115 30.6308 20.3213 30.9084 20.4999 31.1405L28.9374 42.078C29.0835 42.2662 29.2707 42.4185 29.4846 42.5232C29.6985 42.628 29.9336 42.6825 30.1718 42.6825C30.41 42.6825 30.6451 42.628 30.8591 42.5232C31.073 42.4185 31.2601 42.2662 31.4062 42.078L39.8437 31.1405C40.0195 30.9118 40.1287 30.639 40.159 30.3522C40.1893 30.0654 40.1397 29.7758 40.0156 29.5155ZM30.1718 38.5936L24.9999 31.7498H27.4999C27.9143 31.7498 28.3118 31.5852 28.6048 31.2922C28.8978 30.9992 29.0624 30.6017 29.0624 30.1873V18.2342C29.0624 18.0783 29.0932 17.9238 29.1528 17.7798C29.2125 17.6357 29.3 17.5048 29.4103 17.3945C29.5205 17.2842 29.6514 17.1968 29.7955 17.1371C29.9396 17.0774 30.094 17.0467 30.2499 17.0467C30.5663 17.0467 30.87 17.1713 31.0952 17.3936C31.3204 17.6158 31.449 17.9178 31.4531 18.2342V30.1873C31.4531 30.6017 31.6177 30.9992 31.9107 31.2922C32.2037 31.5852 32.6012 31.7498 33.0156 31.7498H35.5156L30.1718 38.5936Z" fill="#1037B6"/>
<path d="M14.6875 31.0625C13.5396 31.0625 12.4387 31.5185 11.627 32.3302C10.8154 33.1419 10.3594 34.2427 10.3594 35.3906V45.8125H6.24998C5.95714 45.8119 5.67002 45.8936 5.42138 46.0483C5.17274 46.2031 4.97258 46.4245 4.84373 46.6875C4.71648 46.9498 4.66514 47.2424 4.69552 47.5323C4.72589 47.8223 4.83676 48.0979 5.01561 48.3281L13.4375 59.2656C13.5846 59.4568 13.7741 59.6113 13.991 59.717C14.2078 59.8228 14.4462 59.8768 14.6875 59.875C14.9261 59.8744 15.1614 59.8192 15.3754 59.7136C15.5894 59.608 15.7763 59.4547 15.9219 59.2656L24.3594 48.3281C24.5372 48.0971 24.6468 47.821 24.6759 47.5309C24.705 47.2408 24.6524 46.9484 24.524 46.6867C24.3955 46.425 24.1965 46.2044 23.9492 46.0499C23.702 45.8954 23.4165 45.8132 23.125 45.8125H19V35.3906C19 34.2454 18.5461 33.1469 17.7378 32.3357C16.9295 31.5245 15.8327 31.0666 14.6875 31.0625ZM19.9375 48.9375L14.6875 55.75L9.37498 48.9375H11.875C12.2894 48.9375 12.6868 48.7729 12.9798 48.4799C13.2729 48.1868 13.4375 47.7894 13.4375 47.375V35.3906C13.4182 35.2222 13.4347 35.0516 13.486 34.8899C13.5373 34.7283 13.6221 34.5794 13.735 34.4529C13.8478 34.3263 13.9862 34.2251 14.1409 34.1558C14.2956 34.0865 14.4632 34.0506 14.6328 34.0506C14.8023 34.0506 14.97 34.0865 15.1247 34.1558C15.2794 34.2251 15.4178 34.3263 15.5306 34.4529C15.6435 34.5794 15.7283 34.7283 15.7796 34.8899C15.8309 35.0516 15.8474 35.2222 15.8281 35.3906V47.375C15.8281 47.7894 15.9927 48.1868 16.2858 48.4799C16.5788 48.7729 16.9762 48.9375 17.3906 48.9375H19.9375Z" fill="#1037B6"/>
<path d="M28.375 76.422C28.5251 76.6277 28.7231 76.7935 28.9518 76.9051C29.1806 77.0168 29.4331 77.0709 29.6875 77.0627C29.9288 77.0645 30.1672 77.0104 30.3841 76.9047C30.6009 76.799 30.7904 76.6445 30.9375 76.4533L39.3594 65.5158C39.5236 65.2938 39.626 65.0322 39.6561 64.7577C39.6863 64.4833 39.6433 64.2057 39.5313 63.9533C39.4024 63.6903 39.2023 63.4689 38.9536 63.3141C38.705 63.1594 38.4179 63.0777 38.125 63.0783H33.9375V52.547C33.973 51.9578 33.8875 51.3676 33.6865 50.8126C33.4854 50.2577 33.1729 49.7497 32.7682 49.32C32.3636 48.8903 31.8753 48.5478 31.3334 48.3138C30.7915 48.0797 30.2075 47.959 29.6172 47.959C29.027 47.959 28.4429 48.0797 27.901 48.3138C27.3592 48.5478 26.8709 48.8903 26.4662 49.32C26.0616 49.7497 25.7491 50.2577 25.548 50.8126C25.3469 51.3676 25.2615 51.9578 25.2969 52.547V63.0002H21.1875C20.8947 62.9996 20.6076 63.0813 20.3589 63.236C20.1103 63.3907 19.9101 63.6122 19.7813 63.8752C19.6671 64.1262 19.6214 64.403 19.6489 64.6775C19.6763 64.9519 19.7759 65.2142 19.9375 65.4377L28.375 76.422ZM26.8125 66.0783C27.2269 66.0783 27.6244 65.9137 27.9174 65.6206C28.2104 65.3276 28.375 64.9302 28.375 64.5158V52.547C28.3557 52.3786 28.3723 52.208 28.4235 52.0464C28.4748 51.8848 28.5597 51.7358 28.6725 51.6093C28.7854 51.4828 28.9237 51.3815 29.0784 51.3122C29.2332 51.2429 29.4008 51.207 29.5703 51.207C29.7399 51.207 29.9075 51.2429 30.0623 51.3122C30.217 51.3815 30.3553 51.4828 30.4682 51.6093C30.581 51.7358 30.6659 51.8848 30.7172 52.0464C30.7684 52.208 30.785 52.3786 30.7657 52.547V64.5627C30.7657 64.9771 30.9303 65.3745 31.2233 65.6675C31.5163 65.9606 31.9138 66.1252 32.3282 66.1252H34.8282L29.6875 72.9064L24.3594 66.1252L26.8125 66.0783Z" fill="#1037B6"/>
</svg>
