<svg width="150" height="151" viewBox="0 0 150 151" fill="none" xmlns="http://www.w3.org/2000/svg">
<g clip-path="url(#clip0_73_4643)">
<path d="M151.277 74.6069L151.247 79.4375C151.247 80.0896 150.832 80.7415 149.973 81.2452L69.898 127.773C68.1793 128.78 65.3639 128.751 63.6154 127.743L15.132 99.7673C14.2429 99.2636 13.7983 98.582 13.7983 97.9299L13.828 93.0994C13.828 93.7514 14.2726 94.433 15.1616 94.9369L63.645 122.913C65.3639 123.92 68.1793 123.95 69.898 122.942L149.973 76.4148C150.832 75.9109 151.247 75.259 151.277 74.6069Z" fill="#474B59"/>
<path d="M149.952 72.7555C151.693 73.7605 151.702 75.3991 149.973 76.4042L69.9112 122.931C68.1817 123.936 65.3715 123.925 63.6308 122.92L15.1548 94.9323C13.3951 93.9164 13.3861 92.2996 15.1155 91.2945L95.1769 44.7679C96.9064 43.7629 99.7164 43.7519 101.476 44.7679L149.952 72.7555Z" fill="#1037B6"/>
<path d="M46.7549 104.631C48.174 105.45 48.2192 106.783 46.8094 107.602C45.3808 108.432 43.0609 108.422 41.6418 107.602C40.2038 106.772 40.2153 105.45 41.6439 104.62C43.0538 103.801 45.3169 103.801 46.7549 104.631Z" fill="#474B59"/>
<path d="M65.6104 117.303C66.1781 117.631 66.1999 118.166 65.636 118.494C65.0721 118.821 64.1291 118.821 63.5615 118.494L52.1331 111.895C51.5465 111.557 51.5624 111.021 52.1263 110.694C52.6902 110.366 53.5955 110.366 54.182 110.705L65.6104 117.303Z" fill="#474B59"/>
<path d="M36.2637 100.36C36.8314 100.687 36.8532 101.223 36.2893 101.55C35.7254 101.878 34.7824 101.878 34.2148 101.55L22.7864 94.9521C22.1998 94.6134 22.2157 94.0781 22.7796 93.7504C23.3435 93.4227 24.2488 93.4227 24.8354 93.7613L36.2637 100.36Z" fill="#474B59"/>
<path d="M131.684 65.0957C132.081 65.3251 132.083 65.6965 131.688 65.9259C131.312 66.1444 130.671 66.1444 130.274 65.915L113.339 56.1379C112.942 55.9084 112.94 55.537 113.316 55.3186C113.711 55.0891 114.352 55.0891 114.749 55.3185L131.684 65.0957Z" fill="#474B59"/>
<path d="M142.737 75.7347L72.0783 116.778L25.708 90.0268L96.3663 48.9551L142.737 75.7347Z" fill="white"/>
<path d="M117.073 45.4579L80.8149 66.5286L44.3198 45.4582L80.5776 24.3875L117.073 45.4579Z" fill="#FED57A"/>
<path d="M117.073 45.4579L116.959 85.7218L80.7007 106.793L80.8148 66.5286L117.073 45.4579Z" fill="#EFAC41"/>
<path d="M80.8148 66.5287L80.7006 106.793L44.2056 85.7222L44.3197 45.4583L80.8148 66.5287Z" fill="#F9BB4A"/>
<path d="M54.645 74.2935L54.6908 70.16L70.3753 79.2152L70.3278 83.3486L54.645 74.2935Z" fill="#4C7891"/>
<path d="M101.923 36.7203L65.6528 57.7734V69.8634L62.526 65.2429L59.4688 66.5279V54.1949L95.7388 33.1418L101.923 36.7203Z" fill="#E4E8F4"/>
<path d="M113.861 71.505L87.7116 86.61L87.6519 68.2214L113.802 53.1167L113.861 71.505Z" fill="white"/>
<path d="M89.3662 68.5936L89.4106 84.2523L88.8007 84.6044L88.7563 68.9457L89.3662 68.5936Z" fill="#1037B6"/>
<path d="M92.8922 66.5579L92.9366 82.2165L92.3076 82.5797L92.2632 66.921L92.8922 66.5579Z" fill="#1037B6"/>
<path d="M91.7298 67.2291L91.7742 82.8878L91.393 83.1079L91.3486 67.4492L91.7298 67.2291Z" fill="#1037B6"/>
<path d="M93.6546 66.1177L93.699 81.7763L93.3178 81.9964L93.2734 66.3378L93.6546 66.1177Z" fill="#1037B6"/>
<path d="M94.1119 65.8536L94.1563 81.5123L94.0039 81.6003L93.9595 65.9417L94.1119 65.8536Z" fill="#1037B6"/>
<path d="M94.7791 65.4685L94.8235 81.1272L94.4423 81.3473L94.3979 65.6886L94.7791 65.4685Z" fill="#1037B6"/>
<path d="M95.7319 64.9183L95.7763 80.577L95.2046 80.9071L95.1602 65.2484L95.7319 64.9183Z" fill="#1037B6"/>
<path d="M96.4945 64.4781L96.5389 80.1368L96.1577 80.3569L96.1133 64.6982L96.4945 64.4781Z" fill="#1037B6"/>
<path d="M90.7958 67.7683L90.8402 83.427L89.7729 84.0432L89.7285 68.3845L90.7958 67.7683Z" fill="#1037B6"/>
<path d="M97.4854 63.906L97.5297 79.5647L96.9199 79.9168L96.8755 64.2581L97.4854 63.906Z" fill="#1037B6"/>
<path d="M99.8299 62.5525L99.8743 78.2112L99.4931 78.4313L99.4487 62.7726L99.8299 62.5525Z" fill="#1037B6"/>
<path d="M101.755 61.441L101.799 77.0997L101.418 77.3198L101.374 61.6611L101.755 61.441Z" fill="#1037B6"/>
<path d="M102.231 61.166L102.275 76.8247L102.123 76.9127L102.079 61.254L102.231 61.166Z" fill="#1037B6"/>
<path d="M103.832 60.2417L103.876 75.9004L103.324 76.2195L103.279 60.5608L103.832 60.2417Z" fill="#1037B6"/>
<path d="M104.595 59.8015L104.639 75.4602L104.258 75.6803L104.213 60.0216L104.595 59.8015Z" fill="#1037B6"/>
<path d="M98.915 63.0807L98.9594 78.7394L97.892 79.3556L97.8477 63.6969L98.915 63.0807Z" fill="#1037B6"/>
<path d="M105.585 59.2294L105.63 74.8881L105.02 75.2402L104.976 59.5815L105.585 59.2294Z" fill="#1037B6"/>
<path d="M107.949 57.8649L107.993 73.5235L107.612 73.7436L107.568 58.085L107.949 57.8649Z" fill="#1037B6"/>
<path d="M110.998 56.1042L111.043 71.7629L110.662 71.983L110.617 56.3243L110.998 56.1042Z" fill="#1037B6"/>
<path d="M111.951 55.5541L111.996 71.2128L111.424 71.5429L111.379 55.8842L111.951 55.5541Z" fill="#1037B6"/>
<path d="M107.015 58.4041L107.059 74.0627L105.992 74.679L105.948 59.0203L107.015 58.4041Z" fill="#1037B6"/>
<path d="M100.992 61.8812L101.037 77.5399L100.427 77.892L100.382 62.2334L100.992 61.8812Z" fill="#1037B6"/>
<path d="M102.898 60.7809L102.943 76.4396L102.561 76.6596L102.517 61.001L102.898 60.7809Z" fill="#1037B6"/>
<path d="M109.111 57.1936L109.156 72.8523L108.546 73.2044L108.501 57.5457L109.111 57.1936Z" fill="#1037B6"/>
<path d="M109.874 56.7534L109.918 72.4121L109.537 72.6322L109.493 56.9735L109.874 56.7534Z" fill="#1037B6"/>
<path d="M110.331 56.4894L110.376 72.1481L110.223 72.2361L110.179 56.5774L110.331 56.4894Z" fill="#1037B6"/>
<path d="M112.714 55.1139L112.758 70.7726L112.377 70.9927L112.333 55.334L112.714 55.1139Z" fill="#1037B6"/>
<g opacity="0.53">
<path opacity="0.53" d="M98.3177 65.0019C98.3605 71.8896 93.483 80.3614 87.4504 83.8696C84.7978 85.3674 82.4019 85.6667 80.5193 84.982C80.0485 84.8107 79.5351 84.5114 79.1074 84.1693C77.4815 82.9284 76.5401 80.6607 76.4976 77.5803C76.4976 70.6921 81.3748 62.2631 87.3648 58.7978C93.3973 55.2897 98.3177 58.0703 98.3177 65.0019Z" fill="#748BFD"/>
</g>
<path d="M95.0867 66.8512C95.0867 71.729 91.6763 77.6775 87.4329 80.1362C85.331 81.3262 83.3878 81.4452 81.9999 80.6518L79.6997 79.3036C81.0876 80.0965 82.9913 79.9775 85.093 78.7483C89.3364 76.3293 92.7865 70.3807 92.7468 65.503C92.7468 63.1232 91.9142 61.4182 90.526 60.6252L92.8659 61.9735C94.2141 62.7664 95.0867 64.4719 95.0867 66.8512Z" fill="#F34858"/>
<path d="M76.6153 86.3191C76.4892 86.0348 76.3037 85.8051 76.0552 85.6554L78.3807 87.0069C78.6292 87.1565 78.8147 87.3863 78.9408 87.6705C78.2431 87.2651 77.154 86.9199 76.6153 86.3191Z" fill="#F58B13"/>
<path d="M76.055 85.6555C76.0494 85.6521 76.0437 85.6488 76.0381 85.6455L78.3636 86.997C78.3693 87.0002 78.3749 87.0036 78.3805 87.0069C77.6828 86.6015 76.7493 86.0667 76.055 85.6555Z" fill="#F58B13"/>
<path d="M77.4439 83.2799C77.2149 83.1468 76.9892 82.9923 76.7705 82.8177L79.096 84.1692C79.3148 84.3438 79.5404 84.4983 79.7694 84.6313C79.0717 84.2259 78.1415 83.6853 77.4439 83.2799Z" fill="#F58B13"/>
<path d="M79.7279 84.6085L77.4023 83.2571C77.6623 83.4081 77.926 83.5327 78.1897 83.6263L80.5152 84.9777C80.2515 84.8841 79.9878 84.7595 79.7279 84.6085Z" fill="#F58B13"/>
<path d="M76.038 85.6454L78.3635 86.9969C78.1447 86.8697 77.8956 86.8175 77.6307 86.8247L75.3052 85.4733C75.5701 85.466 75.8192 85.5183 76.038 85.6454Z" fill="#F58B13"/>
<path d="M77.536 86.8016L75.2104 85.4502L76.7644 82.8284L79.0899 84.1798L77.536 86.8016Z" fill="#4C7891"/>
<path d="M79.0895 84.1798C79.5489 84.531 80.032 84.8064 80.5147 84.9778L78.9404 87.6706C78.8143 87.3864 78.6287 87.1566 78.3803 87.007C78.1574 86.8725 77.9023 86.8173 77.6306 86.8248L77.5356 86.8016L79.0895 84.1798Z" fill="#37617B"/>
<path d="M77.6374 86.8381C77.2806 86.8381 76.8839 86.9572 76.4874 87.1953C75.8133 87.5918 75.1389 88.2662 74.6234 89.1385L67.406 101.472C66.3749 103.217 66.3749 105.16 67.3663 105.794L65.0264 104.446C64.035 103.811 64.035 101.868 65.1058 100.124L72.2837 87.7898C72.7993 86.9175 73.4734 86.2039 74.1872 85.8466C74.5442 85.609 74.9407 85.4904 75.2977 85.4904L77.6374 86.8381Z" fill="#4C7891"/>
<path d="M76.4936 87.1826C76.8838 86.9573 77.2722 86.835 77.6309 86.8248C77.9026 86.8173 78.1578 86.8725 78.3806 87.0069C78.6291 87.1566 78.8146 87.3863 78.9407 87.6706C79.3358 88.5607 79.1359 89.9995 78.3627 91.3122L71.133 103.661C70.623 104.544 69.9617 105.203 69.2695 105.603C68.6074 105.985 67.9145 106.108 67.371 105.798C66.3744 105.161 66.3689 103.225 67.419 101.475L74.6187 89.1441C75.1398 88.2588 75.8176 87.5729 76.4936 87.1826Z" fill="#37617B"/>
<path d="M87.3737 58.7803C93.3926 55.3053 98.3139 58.0753 98.3336 64.9913C98.3532 71.9078 93.4637 80.3769 87.4448 83.8519C84.814 85.3708 82.3989 85.6864 80.5115 84.9833C80.0319 84.8064 79.5488 84.5309 79.0956 84.1691C77.4914 82.915 76.5234 80.6555 76.5147 77.5884C76.4951 70.6724 81.3546 62.2554 87.3737 58.7803ZM87.4342 80.1169C91.6775 77.6671 95.0971 71.744 95.0833 66.8678C95.0696 62.0264 91.6276 60.065 87.3843 62.5148C83.1709 64.9474 79.7512 70.8705 79.765 75.7119C79.7788 80.588 83.2208 82.5495 87.4342 80.1169Z" fill="#F9607F"/>
<path d="M76.7701 77.5184C76.7701 80.5721 77.4786 82.912 79.1045 84.1813L76.7648 82.8326C75.1784 81.5638 74.187 79.3036 74.187 76.2499C74.187 69.3099 79.0253 60.9026 85.053 57.4127C88.067 55.6681 90.8431 55.5093 92.8259 56.6595L95.2166 58.0552C93.2338 56.905 90.6041 57.3058 87.5901 59.0504C81.5621 62.5403 76.7304 70.5784 76.7701 77.5184Z" fill="#1037B6"/>
<path d="M3.58447 54.3113L21.4071 64.6687L39.3463 54.3115L21.5237 43.9541L3.58447 54.3113Z" fill="#FED57A"/>
<path d="M3.58447 54.3113L3.64058 74.1031L21.4632 84.4604L21.4071 64.6686L3.58447 54.3113Z" fill="#EFAC41"/>
<path d="M21.4072 64.6686L21.4633 84.4604L39.4025 74.1032L39.3464 54.3114L21.4072 64.6686Z" fill="#F9BB4A"/>
<path d="M34.2708 68.4854L34.2483 66.4536L26.5386 70.9047L26.5619 72.9365L34.2708 68.4854Z" fill="#4C7891"/>
<path d="M31.8997 58.606V64.6683L30.3969 64.0366L28.8599 66.3078V60.365H28.8599L31.8997 58.606Z" fill="#F34858"/>
<path d="M14.0711 48.2573L31.8996 58.606L28.8598 60.365L11.0312 50.0163L14.0711 48.2573Z" fill="#F9607F"/>
<path d="M120.331 102.266L135.024 110.805L149.814 102.266L135.121 93.7273L120.331 102.266Z" fill="#FED57A"/>
<path d="M120.331 102.266L120.377 118.584L135.071 127.123L135.024 110.805L120.331 102.266Z" fill="#CAD0DD"/>
<path d="M135.024 110.805L135.071 127.123L149.861 118.584L149.814 102.266L135.024 110.805Z" fill="#D4DAE8"/>
<path d="M118.927 103.078L135.017 112.428L151.213 103.078L135.123 93.7273L118.927 103.078Z" fill="#E4E8F4"/>
<path d="M118.927 103.078L118.978 106.968L135.017 116.359V112.428L118.927 103.078Z" fill="#D4DAE8"/>
<path d="M135.018 112.428V116.359L151.264 106.968L151.213 103.078L135.018 112.428Z" fill="#CAD0DD"/>
<path d="M98.7075 114.972L113.401 123.511L128.191 114.972L113.497 106.433L98.7075 114.972Z" fill="#FED57A"/>
<path d="M98.7075 114.972L98.7538 131.289L113.448 139.828L113.401 123.511L98.7075 114.972Z" fill="#6EBA6E"/>
<path d="M113.401 123.511L113.448 139.828L128.238 131.289L128.191 114.972L113.401 123.511Z" fill="#75CA75"/>
<path d="M97.3042 115.783L113.394 125.134L129.59 115.783L113.5 106.433L97.3042 115.783Z" fill="#9AD898"/>
<path d="M97.3042 115.783L97.3549 119.673L113.394 129.065V125.134L97.3042 115.783Z" fill="#75CA75"/>
<path d="M113.395 125.134V129.065L129.641 119.673L129.59 115.783L113.395 125.134Z" fill="#6EBA6E"/>
<path d="M5.75537 36.2348L21.4173 45.3365L37.1818 36.2349L21.5198 27.1332L5.75537 36.2348Z" fill="#FED57A"/>
<path d="M5.75537 36.2347L5.80468 53.6272L21.4667 62.7289L21.4173 45.3365L5.75537 36.2347Z" fill="#EFAC41"/>
<path d="M21.4175 45.3365L21.4668 62.7289L37.2312 53.6273L37.1819 36.2349L21.4175 45.3365Z" fill="#F9BB4A"/>
<path d="M32.7217 48.6906L32.7019 46.9052L25.9268 50.8166L25.9473 52.6021L32.7217 48.6906Z" fill="#4C7891"/>
<path d="M30.6381 40.0088V45.3361L29.3175 44.7811L27.9669 46.7769V41.5546H27.9668L30.6381 40.0088Z" fill="#F34858"/>
<path d="M14.9706 30.9147L30.6379 40.0088L27.9666 41.5546L12.2993 32.4604L14.9706 30.9147Z" fill="#F9607F"/>
<path d="M7.66357 19.8479L21.4268 27.8463L35.2802 19.8481L21.5169 11.8497L7.66357 19.8479Z" fill="#FED57A"/>
<path d="M7.66357 19.8479L7.7069 35.1319L21.4702 43.1302L21.4268 27.8462L7.66357 19.8479Z" fill="#EFAC41"/>
<path d="M21.4268 27.8462L21.4701 43.1302L35.3234 35.132L35.2801 19.848L21.4268 27.8462Z" fill="#F9BB4A"/>
<path d="M31.3608 30.7938L31.3434 29.2247L25.3896 32.662L25.4077 34.2311L31.3608 30.7938Z" fill="#4C7891"/>
<path d="M29.5296 23.1644V27.846L28.3691 27.3582L27.1822 29.1121V24.5228H27.1821L29.5296 23.1644Z" fill="#F34858"/>
<path d="M15.762 15.1729L29.5299 23.1645L27.1825 24.5229L13.4146 16.5312L15.762 15.1729Z" fill="#F9607F"/>
<path d="M-1.27637 116.546L12.4869 124.544L26.3402 116.546L12.5769 108.548L-1.27637 116.546Z" fill="#FED57A"/>
<path d="M-1.27637 116.546L-1.23304 131.83L12.5302 139.828L12.4869 124.544L-1.27637 116.546Z" fill="#EFAC41"/>
<path d="M12.4868 124.544L12.5301 139.828L26.3835 131.83L26.3401 116.546L12.4868 124.544Z" fill="#F9BB4A"/>
<path d="M22.4209 127.492L22.4035 125.923L16.4497 129.36L16.4677 130.929L22.4209 127.492Z" fill="#4C7891"/>
<path d="M20.5896 119.862V124.544L19.4291 124.056L18.2422 125.81V121.221H18.2422L20.5896 119.862Z" fill="#F34858"/>
<path d="M6.82206 111.871L20.59 119.862L18.2425 121.221L4.47461 113.229L6.82206 111.871Z" fill="#F9607F"/>
</g>
<defs>
<clipPath id="clip0_73_4643">
<rect width="150" height="150" fill="white" transform="translate(0 0.838867)"/>
</clipPath>
</defs>
</svg>
