<svg width="100" height="100" viewBox="0 0 100 100" fill="none" xmlns="http://www.w3.org/2000/svg">
<path d="M1.46484 74.1055H98.536V80.6705H1.46484V74.1055Z" fill="#544F57"/>
<path d="M94.7207 74.1055H98.5356V80.6705H94.7207V74.1055Z" fill="#454045"/>
<path d="M16.8478 86.7511H7.09028C6.24331 86.7511 5.55664 86.0644 5.55664 85.2175V80.6707H18.3812V85.2175C18.3814 86.0644 17.6947 86.7511 16.8478 86.7511Z" fill="#909BA5"/>
<path d="M54.8791 86.7511H45.1215C44.2746 86.7511 43.5879 86.0644 43.5879 85.2175V80.6707H56.4125V85.2175C56.4127 86.0644 55.726 86.7511 54.8791 86.7511Z" fill="#909BA5"/>
<path d="M92.9103 86.7511H83.1528C82.3058 86.7511 81.6191 86.0644 81.6191 85.2175V80.6707H94.4437V85.2175C94.4437 86.0644 93.7572 86.7511 92.9103 86.7511Z" fill="#909BA5"/>
<path d="M5.55664 43.6772H50.0001V74.1055H5.55664V43.6772Z" fill="#F68B21"/>
<path d="M46.1836 43.6772H49.9985V74.1055H46.1836V43.6772Z" fill="#CBA763"/>
<path d="M23.9648 43.6772H31.5948V55.5279H23.9648V43.6772Z" fill="#F9EFDA"/>
<path d="M49.9453 43.6772H94.3888V74.1055H49.9453V43.6772Z" fill="#F68B21"/>
<path d="M90.5723 43.6772H94.3871V74.1055H90.5723V43.6772Z" fill="#CBA763"/>
<path d="M68.3516 43.6772H75.9815V55.5279H68.3516V43.6772Z" fill="#F9EFDA"/>
<path d="M27.7227 13.2488H72.1661V43.6771H27.7227V13.2488Z" fill="#F1D59D"/>
<path d="M68.3516 13.2488H72.1664V43.6771H68.3516V13.2488Z" fill="#ECC373"/>
<path d="M46.1289 13.2488H53.7588V25.0995H46.1289V13.2488Z" fill="#F9EFDA"/>
<path d="M98.5357 72.6412H95.8521V43.677C95.8521 42.8682 95.1966 42.2127 94.3877 42.2127H73.6302V13.2487C73.6302 12.4399 72.9748 11.7844 72.1659 11.7844H39.4734C38.6645 11.7844 38.009 12.4399 38.009 13.2487C38.009 14.0576 38.6645 14.7131 39.4734 14.7131H44.6649V25.0992C44.6649 25.9081 45.3203 26.5636 46.1292 26.5636H53.7591C54.568 26.5636 55.2234 25.9081 55.2234 25.0992V14.7131H70.7016V42.2127H29.1866V14.7131H33.6184C34.4273 14.7131 35.0827 14.0576 35.0827 13.2487C35.0827 12.4399 34.4273 11.7844 33.6184 11.7844H27.7222C26.9133 11.7844 26.2579 12.4399 26.2579 13.2487V42.2127H5.55643C4.74754 42.2127 4.09211 42.8682 4.09211 43.677V57.7844C4.09211 58.5933 4.74754 59.2487 5.55643 59.2487C6.36533 59.2487 7.02076 58.5933 7.02076 57.7844V45.1414H22.4989V55.5275C22.4989 56.3364 23.1543 56.9919 23.9632 56.9919H31.5929C32.4018 56.9919 33.0573 56.3364 33.0573 55.5275V45.1414H48.5354V72.6412H7.02076V63.6391C7.02076 62.8302 6.36533 62.1748 5.55643 62.1748C4.74754 62.1748 4.09211 62.8302 4.09211 63.6391V72.6412H1.46433C0.655432 72.6412 0 73.2966 0 74.1055V80.6706C0 81.4795 0.655432 82.1349 1.46433 82.1349H4.09211V85.2174C4.09211 86.8706 5.43694 88.2152 7.08988 88.2152H16.8476C18.5007 88.2152 19.8453 86.8704 19.8453 85.2174V82.1349H42.1234V85.2174C42.1234 86.8706 43.4682 88.2152 45.1212 88.2152H54.8786C56.5318 88.2152 57.8764 86.8704 57.8764 85.2174V82.1349H65.4234C66.2322 82.1349 66.8877 81.4795 66.8877 80.6706C66.8877 79.8617 66.2322 79.2063 65.4234 79.2063H2.92865V75.5699H97.0714V79.2063H71.2783C70.4694 79.2063 69.814 79.8617 69.814 80.6706C69.814 81.4795 70.4694 82.1349 71.2783 82.1349H80.1545V85.2174C80.1545 86.8706 81.4993 88.2152 83.1522 88.2152H92.9099C94.5631 88.2152 95.9077 86.8704 95.9077 85.2174V82.1349H98.5355C99.3444 82.1349 99.9998 81.4795 99.9998 80.6706V74.1055C100 73.2966 99.3444 72.6412 98.5357 72.6412ZM52.2948 23.6351H47.5935V14.7131H52.2948V23.6351ZM54.948 82.1349V85.2174C54.948 85.2555 54.9169 85.2866 54.8788 85.2866H45.1214C45.0833 85.2866 45.0522 85.2555 45.0522 85.2174V82.1349H54.948ZM16.9169 82.1349V85.2174C16.9169 85.2555 16.8858 85.2866 16.8478 85.2866H7.08988C7.0518 85.2866 7.02076 85.2555 7.02076 85.2174V82.1349H16.9169ZM74.5164 45.1414V54.0632H69.8152V45.1414H74.5164ZM30.1286 54.0632H25.4275V45.1414H30.1286V54.0632ZM51.4642 45.1414H66.8865V55.5275C66.8865 56.3364 67.5419 56.9919 68.3508 56.9919H75.9808C76.7896 56.9919 77.4451 56.3364 77.4451 55.5275V45.1414H92.9232V72.6412H51.4642V45.1414ZM92.9792 85.2174C92.9792 85.2555 92.9482 85.2866 92.9101 85.2866H83.1524C83.1144 85.2866 83.0833 85.2555 83.0833 85.2174V82.1349H92.9794V85.2174H92.9792Z" fill="#1037B6"/>
</svg>
