<svg width="100" height="100" viewBox="0 0 100 100" fill="none" xmlns="http://www.w3.org/2000/svg">
<g clip-path="url(#clip0_190_2309)">
<path d="M74.0267 91.6086C51.0521 104.873 21.6748 97.0014 8.41032 74.0267C-4.85413 51.0521 3.01735 21.6744 25.9922 8.41015C48.967 -4.85411 78.3441 3.01757 91.6086 25.992C104.873 48.9664 97.0013 78.3441 74.0267 91.6086Z" fill="#E0E0E0"/>
<path d="M53.4006 35.635C53.0549 35.7161 52.385 35.8862 52.0953 36.1186C51.7336 36.4086 52.2988 36.7858 52.0924 36.951C51.7359 37.2362 51.4775 37.7534 50.7145 37.7045C49.1203 37.6028 46.6703 35.5407 45.2135 34.7612C47.5619 32.3444 43.8465 31.9823 42.3984 32.1034C40.5232 32.2602 37.2781 32.0911 35.5842 33.0448C34.4086 33.7067 32.8285 36.4539 31.8815 37.5452C30.5631 39.0639 29.2365 40.3825 28.3775 42.2008C25.2262 48.8713 30.0766 56.5293 37.6996 55.6336C39.816 55.385 42.0361 54.0543 43.9119 55.8102C45.2941 57.1041 44.5627 58.3219 44.9291 59.8309C45.2463 61.1368 46.6922 61.9401 47.1926 63.1393C48.1522 65.4381 47.5445 66.8758 46.8596 68.9961C45.9607 71.7784 48.2852 75.0817 49.1898 77.7666C49.6453 79.1186 50.9729 82.9045 52.2762 83.4969C54.3254 84.4286 57.5373 81.6346 58.7609 80.1319C59.7176 78.9571 59.4053 77.7637 60.0478 76.6637C60.7434 75.4733 61.6234 75.1159 62.1107 73.5811C62.6359 71.9268 63.1816 71.5153 64.2908 70.308C66.0766 68.3651 65.7992 67.2289 65.0854 64.925C63.602 60.1387 68.99 57.9012 71.417 54.3877C73.9514 50.7188 69.0525 51.9418 67.1326 50.6869C65.1586 49.3967 64.2959 46.9446 63.3447 44.9118C62.3932 42.8787 61.6059 39.8237 60.0303 38.1537C58.8164 36.868 55.1242 36.2715 53.4006 35.635Z" fill="#F68B21"/>
<path d="M78.1937 67.7431C77.4279 70.3239 76.6623 72.9048 75.8964 75.4857C75.3611 77.2899 73.4683 83.1923 70.8129 79.4116C69.8035 77.9749 70.6244 76.0923 71.1875 74.7702C71.8978 73.1023 70.9379 72.2624 71.4332 70.6833C72.0011 68.8733 74.3378 68.8114 75.4435 67.5384C76.2146 66.6509 76.6902 65.2397 77.2537 64.2007C77.5673 65.3817 77.8806 66.5622 78.1937 67.7431Z" fill="#F68B21"/>
<path d="M91.609 25.992C83.3355 11.6622 68.7933 3.20884 53.4463 2.09399L47.1646 9.97368L33.7016 14.6936L30.0898 23.4491L35.6611 31.2536L36.2533 29.6036C37.2422 26.8487 39.8537 25.0114 42.7805 25.0114H51.9627L62.5174 28.7204L66.1527 32.1907V34.395L71.2068 44.076L72.6785 43.5333C75.8566 42.3614 78.7424 40.5141 81.1377 38.119L79.9176 36.2885C79.5295 35.7065 79.9469 34.927 80.6463 34.927H83.5916C84.4541 34.927 85.2732 35.3047 85.8334 35.9606L88.2394 38.7776C88.4687 39.046 88.6478 39.3534 88.7685 39.685L91.4236 46.9864L92.6875 45.7225C93.4844 44.9254 93.8879 43.8397 93.9066 42.7128C93.9217 41.8067 94.3148 40.9471 94.9924 40.3428L95.9603 39.4795C96.2037 39.2626 96.4752 39.0862 96.7642 38.9528C95.7121 34.5124 94.008 30.1473 91.609 25.992Z" fill="#F68B21"/>
<path d="M19.7473 27.8684L22.0447 25.4064C23.7199 23.6113 24.1945 21.0039 23.259 18.7336C22.2699 16.3332 20.1014 14.777 17.701 14.4551C9.2166 22.15 3.94141 32.4955 2.42383 43.4539C4.21758 45.0219 6.09473 46.7004 6.08398 46.8482C6.06328 47.1313 12.8045 46.001 12.8045 46.001L9.33418 40.9102L14.318 37.3467L19.7473 27.8684Z" fill="#F68B21"/>
<path d="M24.4195 75.7302C26.5852 75.0267 27.7703 72.7007 27.0668 70.5353L26.4482 68.6312C26.1779 67.7994 26.1793 66.9033 26.452 66.0722C27.2248 63.7164 25.7584 61.2164 23.3252 60.7408L18.4711 59.7921L9.6041 53.0505L2.27344 55.432C2.99336 61.7982 5.00254 68.1236 8.41035 74.0265C11.5623 79.4857 15.6252 84.09 20.2943 87.7628L22.4787 76.3607L24.4195 75.7302Z" fill="#F68B21"/>
<path d="M73.0463 89.9195L72.9711 89.9628C72.0383 90.504 71.7209 91.6992 72.2619 92.6322C72.6242 93.2566 73.2795 93.6054 73.953 93.6054C74.2854 93.6054 74.6229 93.52 74.9313 93.3411L75.0065 93.2978C75.9393 92.7566 76.2567 91.5615 75.7157 90.6285C75.1746 89.696 73.9797 89.3783 73.0463 89.9195Z" fill="#1037B6"/>
<path d="M93.2995 25.0157C86.6234 13.4522 75.8439 5.18092 62.9466 1.72506C50.0497 -1.7308 36.5786 0.0428346 25.0152 6.71881C13.4517 13.3948 5.1804 24.1745 1.72473 37.0715C-1.73093 49.9686 0.0425033 63.4399 6.71848 75.0032C12.707 85.3756 22.2249 93.2586 33.5191 97.1997C38.8728 99.0676 44.4617 99.9999 50.0419 99.9999C56.1093 99.9999 62.1658 98.8971 67.8906 96.6967C68.8974 96.3098 69.3997 95.1799 69.0126 94.1731C68.6255 93.1663 67.4954 92.6633 66.489 93.051C51.2507 98.9079 34.7542 96.2467 22.4294 86.9956L24.1792 77.8618L25.0224 77.5879C28.2085 76.5528 29.9585 73.1184 28.9238 69.9321L28.305 68.028C28.1618 67.5874 28.1626 67.1215 28.307 66.6813C28.8497 65.0266 28.6558 63.2163 27.7747 61.7139C26.8937 60.2116 25.4083 59.1585 23.6991 58.8243L19.2909 57.9629L10.7855 51.4962C10.2759 51.1087 9.60891 50.9956 8.99993 51.1932L4.02024 52.8108C3.91457 51.0297 3.91301 49.2493 4.0134 47.4782C4.20989 47.6612 4.33782 47.7856 4.41653 47.8672C4.51399 48.0296 4.63469 48.1784 4.7761 48.3073C5.18274 48.6776 5.5511 48.8456 6.32454 48.8456C7.03528 48.8454 8.08743 48.7038 9.82473 48.4471C11.4724 48.2036 13.1114 47.9292 13.1277 47.9264C13.7845 47.8165 14.3398 47.379 14.6011 46.7667C14.8624 46.1542 14.7935 45.4508 14.4183 44.9004L12.0236 41.388L15.4536 38.9352C15.6822 38.7717 15.8728 38.561 16.0124 38.3172L21.3294 29.035L23.4726 26.7385C25.6626 24.3913 26.2876 20.9571 25.0646 17.9891C24.3431 16.2385 23.0829 14.7811 21.5068 13.7989C23.2138 12.4569 25.0339 11.2178 26.9683 10.1012C34.0656 6.00358 41.8109 4.01783 49.4747 3.94186L45.9872 8.31666L33.0546 12.8506C32.5294 13.0346 32.1075 13.4342 31.8954 13.9489L28.2837 22.7044C28.0273 23.3264 28.1087 24.0362 28.4995 24.5838L33.7745 31.9729C33.0191 32.6622 32.2837 33.6661 31.4054 34.9126C31.0202 35.4592 30.6566 35.9754 30.4052 36.2649C30.1866 36.5169 29.9679 36.763 29.7511 37.0067C28.6165 38.2831 27.4435 39.6032 26.6101 41.3665C24.7777 45.2452 25.1478 49.7534 27.5759 53.1319C29.9238 56.3985 33.7945 58.059 37.9257 57.5731C38.5988 57.4942 39.2263 57.3389 39.8335 57.1885C41.5079 56.7743 42.0384 56.7329 42.5755 57.2356C42.8368 57.4803 42.8609 57.5266 42.8556 58.3563C42.8519 58.8844 42.8478 59.5415 43.0298 60.2917C43.3214 61.4919 44.0753 62.3213 44.6806 62.9878C44.9816 63.3188 45.2929 63.6614 45.3888 63.8913C45.998 65.351 45.7327 66.1594 45.1515 67.9309C45.1017 68.0825 45.0509 68.2372 44.9999 68.3958C44.1169 71.1292 45.3478 73.8405 46.4337 76.2325C46.7865 77.0092 47.1195 77.7424 47.3376 78.3905C49.0937 83.6012 50.4101 84.7946 51.4665 85.2751C52.0199 85.5266 52.5925 85.637 53.171 85.6368C55.9865 85.6366 58.9243 83.0225 60.274 81.3653C61.1216 80.3247 61.3304 79.2827 61.4827 78.5215C61.5587 78.143 61.6185 77.8442 61.7326 77.6489C61.9072 77.3501 62.1128 77.1184 62.3732 76.8251C62.8968 76.2354 63.5484 75.5018 63.9706 74.1719C64.2913 73.1618 64.5244 72.9141 65.296 72.0922C65.4304 71.9495 65.5736 71.7967 65.7273 71.6295C68.3286 68.7989 67.6587 66.6366 66.9492 64.3471C66.3521 62.4208 67.3964 61.1887 69.9214 58.8374C71.0159 57.818 72.1476 56.7641 73.0224 55.4979C73.4052 54.9436 74.5699 53.2575 73.8492 51.5862C73.1427 49.9475 71.3472 49.6721 69.9046 49.451C69.3349 49.3635 68.474 49.2315 68.1999 49.0524C66.9915 48.2624 66.2523 46.6135 65.5372 45.0188C65.3949 44.7014 65.2544 44.3881 65.112 44.084C64.8581 43.5415 64.6044 42.885 64.3359 42.1901C63.6253 40.351 62.82 38.2665 61.4492 36.8133C60.2169 35.5077 57.8941 34.8788 55.8447 34.3237C55.1554 34.1372 54.5048 33.961 54.0757 33.8026C53.7161 33.6698 53.3259 33.6458 52.9534 33.7333C51.956 33.9671 51.3337 34.2247 50.8716 34.595C50.7495 34.6928 50.388 35.0141 50.1763 35.5305C49.4613 35.1874 48.4781 34.5321 47.873 34.1288C47.8605 34.1204 47.8478 34.112 47.8353 34.1036C48.0392 33.2876 47.8546 32.6327 47.6613 32.2237C46.57 29.9159 42.9486 30.0965 42.2341 30.1573C41.8282 30.1913 41.3148 30.2094 40.7716 30.2286C39.9185 30.2589 38.9755 30.2928 38.0425 30.3975L38.0906 30.2635C38.7988 28.2903 40.6831 26.9643 42.7796 26.9643H43.8898C44.9683 26.9643 45.8427 26.0897 45.8427 25.0114C45.8427 23.9329 44.9681 23.0585 43.8898 23.0585H42.7796C39.6671 23.0585 36.8169 24.6965 35.2195 27.2749L32.3064 23.1942L35.1724 16.2471L47.8099 11.8165C48.1564 11.695 48.4618 11.4782 48.6909 11.1909L54.3085 4.1442C68.6628 5.50963 82.1745 13.5577 89.9171 26.9682C91.9794 30.5403 93.505 34.3008 94.5193 38.1471L93.6913 38.8854C92.6107 39.8497 91.9775 41.2327 91.9533 42.6801C91.9531 42.696 91.9527 42.7116 91.9521 42.7272L90.6033 39.0178C90.4023 38.4643 90.1062 37.9567 89.7238 37.5092L87.3177 34.6922C86.3849 33.6003 85.0267 32.9743 83.591 32.9743H80.6458C79.6003 32.9743 78.6449 33.5469 78.1517 34.4682C77.6585 35.3897 77.7124 36.5026 78.2923 37.3721L78.5904 37.8196C76.6872 39.4561 74.4861 40.7657 72.1423 41.6489L68.1054 33.9159V32.1907C68.1054 31.6571 67.887 31.1463 67.5009 30.7782L63.8656 27.3077C63.665 27.1163 63.4259 26.9698 63.1644 26.8778L59.8917 25.7278C58.8736 25.3696 57.7591 25.9053 57.4017 26.9227C57.0441 27.9405 57.579 29.0551 58.5966 29.4128L61.4724 30.4235L64.1993 33.0264V34.3952C64.1993 34.7098 64.2755 35.02 64.4212 35.2991L69.4753 44.9801C69.9298 45.8512 70.9615 46.2493 71.8822 45.9087L73.3538 45.3661C76.7728 44.1051 79.9417 42.0768 82.5183 39.5006C83.1765 38.8422 83.2788 37.8112 82.7622 37.0364L82.6583 36.8803H83.591C83.8826 36.8803 84.1585 37.0075 84.348 37.2294L86.754 40.0463C86.8316 40.1372 86.8915 40.2399 86.9326 40.3526L89.5878 47.654C89.8159 48.2813 90.3488 48.7485 90.9999 48.893C91.1406 48.9241 91.2822 48.9393 91.423 48.9393C91.9353 48.9393 92.4339 48.7376 92.8038 48.3672L94.0677 47.1034C94.8681 46.3028 95.4191 45.2899 95.6824 44.167C97.637 59.8321 91.4947 76.0368 78.5115 86.227C77.6628 86.8928 77.5148 88.1204 78.181 88.969C78.8468 89.8176 80.0742 89.9657 80.923 89.2995C90.2964 81.9426 96.7359 71.4202 99.0552 59.6704C101.396 47.8073 99.3525 35.4997 93.2995 25.0157ZM9.23489 55.2241L17.2882 61.3473C17.5263 61.5284 17.8025 61.6522 18.0958 61.7094L22.9497 62.6579C23.5693 62.779 24.0861 63.1454 24.4054 63.6899C24.7247 64.2342 24.7919 64.8641 24.5954 65.4639C24.1911 66.6969 24.1892 68.001 24.5902 69.2348L25.2089 71.1387C25.5786 72.2766 24.9532 73.5034 23.8156 73.8731L21.8747 74.5038C21.1976 74.7237 20.6941 75.2948 20.5603 75.9936L18.9982 84.1477C15.564 81.0045 12.5488 77.2897 10.1013 73.0504C7.11516 67.8792 5.24954 62.3633 4.42727 56.786L9.23489 55.2241ZM4.13528 46.9688C4.14075 47.0536 4.15149 47.1378 4.1677 47.221C4.15188 47.1424 4.14094 47.0579 4.13528 46.9688ZM21.4532 19.4772C22.0958 21.0364 21.7673 22.8407 20.6169 24.0739L18.3195 26.5354C18.2169 26.6454 18.1273 26.7669 18.0525 26.8973L12.8353 36.0059L8.19836 39.3215C7.33469 39.9391 7.12258 41.1331 7.72063 42.0104L9.45481 44.5542C8.4552 44.703 7.55813 44.8256 6.96165 44.8907C6.847 44.7807 6.72707 44.6692 6.60305 44.554C6.13879 44.1227 5.49368 43.5467 4.53196 42.7051C6.11809 32.8881 10.8486 23.6397 18.2884 16.5801C19.7132 17.0284 20.8822 18.0913 21.4532 19.4772ZM40.9099 34.1323C41.5015 34.1114 42.0605 34.0915 42.5597 34.0497C42.8232 34.0276 43.1157 34.0317 43.3917 34.0532C43.2685 34.3696 43.2284 34.7169 43.282 35.0614C43.3759 35.6674 43.7495 36.1938 44.2902 36.4831C44.6566 36.6792 45.1665 37.0192 45.7064 37.3792C47.2327 38.3967 48.9632 39.5501 50.5884 39.6536C52.0665 39.7495 52.889 38.9071 53.2413 38.5481C53.2695 38.5196 53.296 38.4911 53.3242 38.4651C53.5226 38.3034 53.7085 38.0866 53.8468 37.8251C54.1591 37.9143 54.4872 38.0032 54.8236 38.0944C55.98 38.4075 58.1324 38.9903 58.6081 39.4942C59.4529 40.3897 60.1113 42.0942 60.6923 43.5979C60.9859 44.3579 61.2632 45.0751 61.5743 45.7401C61.7079 46.0254 61.8394 46.3194 61.973 46.6171C62.8742 48.6272 63.8956 50.9057 66.0626 52.3221C67.0452 52.9645 68.2497 53.1491 69.3126 53.3122C69.4411 53.3319 69.5884 53.3545 69.738 53.3792C69.1072 54.2592 68.2089 55.0956 67.2599 55.9794C64.8421 58.2309 61.8331 61.0333 63.2189 65.5038C63.873 67.6147 63.9034 67.8428 62.8517 68.987C62.7083 69.143 62.5747 69.2852 62.4495 69.4184C61.5488 70.3774 60.8372 71.1348 60.2482 72.9903C60.0771 73.5292 59.8554 73.7788 59.4529 74.2319C59.131 74.5944 58.73 75.046 58.3601 75.6788C57.9171 76.437 57.7706 77.167 57.6533 77.7536C57.5374 78.3307 57.4718 78.6204 57.2452 78.8987C56.7294 79.5319 55.7673 80.4514 54.7796 81.079C53.8616 81.6618 53.3257 81.7415 53.1431 81.7305C52.9347 81.5071 52.1798 80.529 51.0392 77.1434C50.7579 76.3083 50.3677 75.4489 49.9904 74.6178C49.1585 72.7858 48.2986 70.8913 48.7169 69.5965C48.7663 69.4438 48.8152 69.2946 48.8632 69.1487C49.5316 67.1116 50.1624 65.1879 48.9937 62.3872C48.6378 61.5342 48.0712 60.911 47.5718 60.361C47.2486 60.0053 46.8824 59.6022 46.8259 59.3702C46.7572 59.0872 46.7593 58.7604 46.7618 58.3821C46.7685 57.3616 46.7786 55.8196 45.2456 54.384C43.0843 52.361 40.564 52.9842 38.896 53.3967C38.3837 53.5233 37.8997 53.6432 37.4708 53.6936C34.7271 54.0151 32.2775 52.9799 30.7482 50.8518C29.1484 48.6258 28.9161 45.6303 30.1423 43.0346C30.7359 41.7786 31.6325 40.7694 32.6708 39.6014C32.8976 39.3462 33.1265 39.0887 33.3554 38.8251C33.7363 38.386 34.1554 37.7915 34.5986 37.162C35.1281 36.4104 36.1132 35.0122 36.5409 34.7462C37.4118 34.2563 39.4337 34.1846 40.9099 34.1323Z" fill="#1037B6"/>
<path d="M73.0563 82.5628C75.0485 82.2372 76.5461 80.165 77.7699 76.0407L80.0672 68.2981C80.1692 67.954 80.1746 67.5884 80.0824 67.2415L79.1428 63.6997C78.9375 62.9263 78.2813 62.3563 77.4869 62.2614C76.6916 62.1685 75.9203 62.5661 75.5385 63.2694C75.3244 63.664 75.1317 64.0819 74.9453 64.486C74.6319 65.1659 74.3076 65.869 73.9703 66.2571C73.7809 66.4751 73.2942 66.7101 72.8238 66.937C71.6994 67.4796 70.1594 68.2228 69.5711 70.0981C69.2059 71.2614 69.3422 72.1817 69.4418 72.8536C69.5279 73.4362 69.5479 73.6382 69.3918 74.0046L69.3723 74.0501C68.7506 75.5089 67.594 78.2247 69.2158 80.5335C70.3731 82.1812 71.5899 82.6048 72.5354 82.6048C72.7201 82.6054 72.8947 82.5892 73.0563 82.5628ZM72.4119 78.2888C72.0387 77.7571 72.5965 76.4478 72.9656 75.5812L72.9854 75.5355C73.5807 74.1382 73.4215 73.0651 73.3057 72.2815C73.2313 71.7798 73.2047 71.5642 73.2979 71.2679C73.3744 71.0243 73.832 70.788 74.5215 70.4552C74.8272 70.3075 75.1637 70.1452 75.5033 69.9487L74.0256 74.9296C73.4018 77.0323 72.8498 78.014 72.5313 78.4491C72.4943 78.4026 72.4545 78.3495 72.4119 78.2888Z" fill="#1037B6"/>
<path d="M52.6077 23.1687C51.5907 22.8124 50.4755 23.3474 50.1184 24.3651C49.7614 25.3831 50.2971 26.4974 51.3149 26.8544L51.4466 26.9005C51.6604 26.9755 51.8784 27.011 52.093 27.011C52.8993 27.011 53.654 26.5077 53.936 25.704C54.293 24.686 53.7573 23.5718 52.7395 23.2148L52.6077 23.1687Z" fill="#1037B6"/>
</g>
<defs>
<clipPath id="clip0_190_2309">
<rect width="100" height="100" fill="white"/>
</clipPath>
</defs>
</svg>
