<svg width="100" height="100" viewBox="0 0 100 100" fill="none" xmlns="http://www.w3.org/2000/svg">
<path d="M92.7934 29.7264L87.9282 34.4704L89.0764 41.1659L83.0629 38.0058L77.0471 41.1659L78.1953 34.4704L73.3301 29.7264L80.0546 28.7498L83.0629 22.6562L86.0689 28.7498L92.7934 29.7264Z" fill="#F2DF33"/>
<path d="M63.5997 15.0879L56.7638 21.7499L58.3789 31.1584C55.2951 29.5372 53.1039 28.3844 49.9301 26.7166L41.4828 31.1584L43.0957 21.7499L36.2598 15.0879L45.7057 13.7169L49.9301 5.07812L54.1545 13.7169L63.5997 15.0879Z" fill="#F2DF33"/>
<path d="M26.3872 29.7264L21.5219 34.4704L22.6701 41.1659L16.6566 38.0058L10.6409 41.1659L11.7891 34.4704L6.92383 29.7264L13.6484 28.7498L16.6566 22.6562L19.6626 28.7498L26.3872 29.7264Z" fill="#F2DF33"/>
<path d="M81.8359 75.3906C76.5602 75.3906 71.3104 78.0037 68.4822 82.0076C64.7194 75.6798 57.8339 71.4844 50 71.4844C42.1387 71.4844 35.2638 75.7072 31.5178 82.0076C28.6896 78.0037 23.4398 75.3906 18.1641 75.3906C9.53522 75.3906 1.95312 82.3868 1.95312 91.0156V94.9219H98.0469V91.0156C98.0469 82.3868 90.4648 75.3906 81.8359 75.3906Z" fill="#F68B21"/>
<path d="M91.6016 61.7188C91.6016 67.112 87.2292 71.4844 81.8359 71.4844C76.4427 71.4844 72.0703 67.112 72.0703 61.7188C72.0703 56.3255 76.4427 51.9531 81.8359 51.9531C87.2292 51.9531 91.6016 56.3255 91.6016 61.7188Z" fill="#F68B21"/>
<path d="M63.6719 53.9062C63.6719 61.4571 57.5508 67.5781 50 67.5781C42.4492 67.5781 36.3281 61.4571 36.3281 53.9062C36.3281 46.3554 42.4492 40.2344 50 40.2344C57.5508 40.2344 63.6719 46.3554 63.6719 53.9062Z" fill="#F68B21"/>
<path d="M27.9297 61.7188C27.9297 67.112 23.5573 71.4844 18.1641 71.4844C12.7708 71.4844 8.39844 67.112 8.39844 61.7188C8.39844 56.3255 12.7708 51.9531 18.1641 51.9531C23.5573 51.9531 27.9297 56.3255 27.9297 61.7188Z" fill="#F68B21"/>
<path d="M51.9531 79.2969C51.9531 80.3757 51.0788 81.25 50 81.25C48.9212 81.25 48.0469 80.3757 48.0469 79.2969C48.0469 78.2181 48.9212 77.3438 50 77.3438C51.0788 77.3438 51.9531 78.2181 51.9531 79.2969Z" fill="#1037B6"/>
<path d="M93.5547 61.7188C93.5547 55.2567 88.298 50 81.8359 50C75.3738 50 70.1172 55.2567 70.1172 61.7188C70.1172 68.1808 75.3738 73.4375 81.8359 73.4375C88.298 73.4375 93.5547 68.1808 93.5547 61.7188ZM81.8359 69.5312C77.5284 69.5312 74.0234 66.0263 74.0234 61.7188C74.0234 57.4112 77.5284 53.9062 81.8359 53.9062C86.1435 53.9062 89.6484 57.4112 89.6484 61.7188C89.6484 66.0263 86.1435 69.5312 81.8359 69.5312Z" fill="#1037B6"/>
<path d="M81.8359 73.4375C76.9142 73.4375 72.0062 75.4807 68.663 78.7933C64.2624 73.0103 57.4768 69.5312 50 69.5312C42.8398 69.5312 35.9016 72.7982 31.3377 78.7933C27.9938 75.4814 23.0865 73.4375 18.1641 73.4375C8.31833 73.4375 0 81.4873 0 91.0156V94.9219C0 96.0007 0.874328 96.875 1.95312 96.875H98.0469C99.1257 96.875 100 96.0007 100 94.9219V91.0156C100 81.4873 91.6817 73.4375 81.8359 73.4375ZM3.90625 91.0156C3.90625 83.6044 10.4355 77.3438 18.1641 77.3438C22.393 77.3438 26.5869 79.2175 29.1832 82.196C27.4666 85.5118 26.5625 89.2075 26.5625 92.9688H3.90625V91.0156ZM50 73.4375C60.8681 73.4375 69.5312 82.2556 69.5312 92.9688H30.4688C30.4688 82.1129 39.3089 73.4375 50 73.4375ZM96.0938 92.9688H73.4375C73.4375 89.2075 72.5334 85.5118 70.8168 82.196C73.4131 79.2175 77.607 77.3438 81.8359 77.3438C89.5645 77.3438 96.0938 83.6044 96.0938 91.0156V92.9688Z" fill="#1037B6"/>
<path d="M29.8828 61.7188C29.8828 55.2567 24.6262 50 18.1641 50C11.702 50 6.44531 55.2567 6.44531 61.7188C6.44531 68.1808 11.702 73.4375 18.1641 73.4375C24.6262 73.4375 29.8828 68.1808 29.8828 61.7188ZM18.1641 69.5312C13.8565 69.5312 10.3516 66.0263 10.3516 61.7188C10.3516 57.4112 13.8565 53.9062 18.1641 53.9062C22.4716 53.9062 25.9766 57.4112 25.9766 61.7188C25.9766 66.0263 22.4716 69.5312 18.1641 69.5312Z" fill="#1037B6"/>
<path d="M65.625 53.9062C65.625 45.2904 58.6159 38.2812 50 38.2812C41.3841 38.2812 34.375 45.2904 34.375 53.9062C34.375 62.5221 41.3841 69.5312 50 69.5312C58.6159 69.5312 65.625 62.5221 65.625 53.9062ZM50 65.625C43.5379 65.625 38.2812 60.3683 38.2812 53.9062C38.2812 47.4442 43.5379 42.1875 50 42.1875C56.4621 42.1875 61.7188 47.4442 61.7188 53.9062C61.7188 60.3683 56.4621 65.625 50 65.625Z" fill="#1037B6"/>
<path d="M65.4569 14.4844C65.2273 13.7772 64.6162 13.2622 63.8799 13.1554L55.4556 11.9324L51.6836 4.22058C51.3563 3.54996 50.6757 3.125 49.9296 3.125C49.1834 3.125 48.5029 3.54996 48.1748 4.21982L44.4036 11.9324L35.9792 13.1546C35.243 13.2614 34.6319 13.7772 34.4022 14.4844C34.1726 15.1917 34.3641 15.9676 34.8966 16.4864L40.9971 22.4319L39.5574 30.8281C39.4315 31.5605 39.7329 32.3013 40.3349 32.7377C40.933 33.1726 41.7295 33.2344 42.3917 32.8865L49.9296 28.923L57.4705 32.8865C58.1281 33.2329 58.9254 33.1749 59.5274 32.7377C60.1286 32.3006 60.4299 31.5605 60.304 30.8273L58.8628 22.4319L64.9625 16.4864C65.4951 15.9676 65.6866 15.1917 65.4569 14.4844ZM55.3999 20.3514C54.9398 20.8 54.7292 21.447 54.8383 22.0802L55.7836 27.5879L50.8383 24.9878C50.2691 24.6887 49.5893 24.6887 49.0202 24.9878L44.0763 27.5879L45.0208 22.0802C45.1292 21.4462 44.9186 20.8 44.4586 20.3514L40.4577 16.452L45.9852 15.6494C46.6245 15.5571 47.1761 15.1543 47.4592 14.5744L49.9296 9.52377L52.3992 14.5744C52.683 15.155 53.2346 15.5571 53.8732 15.6494L59.4015 16.452L55.3999 20.3514Z" fill="#1037B6"/>
<path d="M94.6504 29.1229C94.4207 28.4157 93.8096 27.9007 93.0734 27.7939L87.3658 26.9646L84.8138 21.7918C84.485 21.125 83.8067 20.7031 83.0628 20.7031C83.0628 20.7031 83.0628 20.7031 83.0621 20.7031C82.319 20.7031 81.64 21.125 81.3111 21.7918L78.7576 26.9646L73.0493 27.7939C72.3138 27.9007 71.7027 28.4157 71.473 29.1229C71.2426 29.8302 71.4341 30.6061 71.9667 31.1249L76.0965 35.1524L75.1214 40.8363C74.9963 41.5688 75.2969 42.3088 75.8988 42.746C76.5 43.1831 77.2973 43.2411 77.955 42.8955L83.0621 40.2122L88.1677 42.8955C88.8253 43.2411 89.6234 43.1831 90.2246 42.746C90.8258 42.3096 91.1264 41.5688 91.0012 40.8363L90.0262 35.1524L94.1567 31.1249C94.6893 30.6061 94.88 29.8302 94.6504 29.1229ZM86.5647 33.0727C86.1039 33.5213 85.8941 34.1675 86.0032 34.8007L86.4823 37.5961L83.9715 36.277C83.4024 35.9779 82.7226 35.9779 82.1542 36.277L79.6411 37.5969L80.121 34.8007C80.2293 34.1675 80.0195 33.5213 79.5594 33.0727L77.527 31.0905L80.3353 30.6831C80.9716 30.5908 81.5217 30.191 81.8063 29.615L83.0621 27.0706L84.3171 29.6143C84.6017 30.191 85.1518 30.5908 85.7881 30.6831L88.5964 31.0905L86.5647 33.0727Z" fill="#1037B6"/>
<path d="M28.2441 29.1229C28.0145 28.4157 27.4034 27.9007 26.6671 27.7939L20.9596 26.9646L18.4075 21.7918C18.0787 21.125 17.4005 20.7031 16.6566 20.7031C15.9127 20.7031 15.2337 21.125 14.9049 21.7918L12.3513 26.9646L6.64302 27.7939C5.90755 27.9007 5.29643 28.4157 5.06679 29.1229C4.83638 29.8302 5.02788 30.6061 5.56041 31.1249L9.6902 35.1524L8.71593 40.8363C8.59004 41.5688 8.89141 42.3088 9.4926 42.746C10.0938 43.1831 10.8911 43.2411 11.5495 42.8955L16.6558 40.2123L21.7614 42.8955C22.4237 43.2434 23.2202 43.1808 23.8183 42.746C24.4195 42.3096 24.7209 41.5688 24.595 40.8363L23.62 35.1524L27.7505 31.1249C28.283 30.6061 28.4738 29.8302 28.2441 29.1229ZM20.1577 33.0727C19.6977 33.5213 19.4879 34.1675 19.5962 34.8007L20.0761 37.5961L17.5645 36.277C16.9961 35.9779 16.3163 35.9779 15.7479 36.277L13.2341 37.5969L13.7139 34.8007C13.823 34.1675 13.6125 33.5213 13.1524 33.0727L11.12 31.0905L13.9291 30.6831C14.5646 30.5908 15.1147 30.191 15.3993 29.615L16.6551 27.0706L17.9101 29.6143C18.1947 30.191 18.7448 30.5908 19.3811 30.6831L22.1894 31.0905L20.1577 33.0727Z" fill="#1037B6"/>
<path d="M58.5591 79.9011C57.6573 79.3083 56.4465 79.5593 55.8545 80.4611C55.2617 81.3621 55.5127 82.5729 56.4145 83.1657C58.2203 84.3521 59.6638 86.0061 60.5885 87.9486C61.0508 88.9213 62.2151 89.3371 63.1909 88.8725C64.1652 88.4094 64.5787 87.2436 64.1156 86.2701C62.8842 83.6822 60.9623 81.4796 58.5591 79.9011Z" fill="#1037B6"/>
</svg>
