<svg width="151" height="150" viewBox="0 0 151 150" fill="none" xmlns="http://www.w3.org/2000/svg">
<g clip-path="url(#clip0_108_4665)">
<path fill-rule="evenodd" clip-rule="evenodd" d="M43.8073 96.571C37.1271 96.571 31.7162 91.1499 31.7162 84.4667C31.7162 77.7838 37.1268 72.3624 43.8073 72.3624C50.4879 72.3624 55.9066 77.7835 55.9066 84.4667C55.9066 91.1499 50.4879 96.571 43.8073 96.571ZM93.823 55.7256H35.6581H32.6789H21.6088H15.9656C12.5467 55.7256 9.75 59.146 9.75 63.3135V128.633C9.75 132.809 12.5467 136.221 15.9656 136.221H107.067C105.806 134.444 104.644 132.535 103.582 130.551C100.055 123.976 98.1466 117.035 98.2046 110.493C98.2295 107.587 98.8852 107.272 101.283 105.977L119.731 96.0231V63.3138C119.731 59.1463 116.934 55.7259 113.515 55.7259H107.872H93.823V55.7256ZM25.2434 115.001C25.2434 105.056 34.3884 96.571 43.8073 96.571C53.2263 96.571 62.3795 105.056 62.3795 115.001C62.3795 117.525 60.3132 119.584 57.7904 119.584H43.8073H29.8242C27.31 119.584 25.2434 117.525 25.2434 115.001Z" fill="#1037B6"/>
<path fill-rule="evenodd" clip-rule="evenodd" d="M35.6577 46.1039C35.6577 30.1309 48.7695 17.0056 64.736 17.0056C80.7025 17.0056 93.8225 30.1227 93.8225 46.1039V55.7258H107.872V46.1039C107.872 22.3687 88.4618 2.95044 64.736 2.95044C41.0187 2.95044 21.6084 22.3687 21.6084 46.1039V55.7258H32.6788H35.658V46.1039H35.6577Z" fill="#1037B6"/>
<path fill-rule="evenodd" clip-rule="evenodd" d="M55.9062 84.4668C55.9062 77.7839 50.4872 72.3625 43.8069 72.3625C37.1267 72.3625 31.7158 77.7836 31.7158 84.4668C31.7158 91.1498 37.1264 96.5711 43.8069 96.5711C50.4875 96.5711 55.9062 91.1498 55.9062 84.4668Z" fill="#F68B21"/>
<path fill-rule="evenodd" clip-rule="evenodd" d="M62.3793 115.001C62.3793 105.056 53.2261 96.571 43.8071 96.571C34.3882 96.571 25.2432 105.056 25.2432 115.001C25.2432 117.525 27.3095 119.584 29.824 119.584H43.8071H57.7902C60.313 119.584 62.3793 117.525 62.3793 115.001Z" fill="#F68B21"/>
<path fill-rule="evenodd" clip-rule="evenodd" d="M138.17 105.977L119.731 96.0232L101.283 105.977C98.885 107.272 98.2293 107.588 98.2044 110.493C98.1464 117.035 100.055 123.976 103.582 130.551C104.644 132.535 105.806 134.444 107.067 136.221C109.939 140.289 113.316 143.726 117.2 146.042C119.432 147.379 120.03 147.379 122.262 146.042C127.839 142.705 132.378 137.076 135.872 130.551C139.399 123.976 141.307 117.035 141.249 110.493C141.224 107.588 140.577 107.272 138.17 105.977Z" fill="#F68B21"/>
<path d="M9.75 95.7607C11.3795 95.7607 12.7002 94.4313 12.7002 92.8021C12.7002 91.1729 11.3792 89.8516 9.75 89.8516C8.1208 89.8516 6.7998 91.1726 6.7998 92.8021V92.8188C6.7998 94.448 8.12051 95.7607 9.75 95.7607Z" fill="#F68B21"/>
<path d="M139.649 103.422L122.682 94.2633V63.3138C122.682 57.503 118.57 52.7751 113.516 52.7751H110.823V46.1036C110.823 33.8364 106.016 22.2718 97.2885 13.5404C88.56 4.80908 76.9995 0 64.7364 0C52.4769 0 40.9189 4.80908 32.1917 13.5407C23.4645 22.2724 18.6583 33.8367 18.6583 46.1036V52.7751H15.9656C10.9116 52.7751 6.7998 57.5027 6.7998 63.3138V79.6518C6.7998 81.2812 8.1208 82.6022 9.75 82.6022C11.3792 82.6022 12.7002 81.2812 12.7002 79.6518V63.3138C12.7002 60.8432 14.226 58.6761 15.9653 58.6761H113.515C115.254 58.6761 116.78 60.8432 116.78 63.3138V94.263L99.7884 103.431C97.0014 104.936 95.2916 106.08 95.2541 110.467C95.1923 117.418 97.173 124.845 100.982 131.946C101.223 132.395 101.468 132.836 101.715 133.271H15.9656C14.2263 133.271 12.7005 131.104 12.7005 128.633V105.952C12.7005 104.323 11.3795 103.002 9.75029 103.002C8.12109 103.002 6.8001 104.323 6.8001 105.952V128.633C6.8001 134.444 10.9119 139.172 15.9659 139.172H105.569C108.619 143.22 112.002 146.372 115.685 148.574C117.274 149.525 118.502 150 119.732 150C120.96 150 122.19 149.525 123.778 148.574C129.432 145.189 134.377 139.594 138.472 131.945C142.281 124.845 144.262 117.417 144.2 110.468C144.162 106.072 142.446 104.927 139.649 103.422ZM90.8727 52.7751H38.6086V46.1036C38.6086 31.6857 50.3297 19.9559 64.7364 19.9559C79.1478 19.9559 90.8725 31.6857 90.8725 46.1036L90.8727 52.7751ZM104.922 52.7751H96.7734V46.1036C96.7734 37.5873 93.428 29.5515 87.3536 23.4756C81.2798 17.4006 73.2477 14.0549 64.7364 14.0549C56.2263 14.0549 48.1954 17.4018 42.1227 23.4791C36.0516 29.5553 32.7079 37.5899 32.7079 46.1033V52.7748H24.559V46.1033C24.559 23.9355 42.5824 5.90068 64.7364 5.90068C86.8948 5.90068 104.922 23.9355 104.922 46.1033V52.7751ZM133.271 129.158C129.737 135.76 125.406 140.723 120.746 143.511C120.177 143.852 119.881 143.999 119.731 144.062C119.581 143.999 119.285 143.852 118.716 143.511C118.715 143.51 118.714 143.51 118.714 143.51C115.39 141.523 112.315 138.533 109.529 134.596C109.513 134.572 109.497 134.55 109.481 134.527C108.331 132.896 107.23 131.108 106.182 129.156C102.84 122.926 101.102 116.482 101.155 110.519C101.161 109.861 101.205 109.543 101.234 109.407C101.474 109.228 102.064 108.909 102.591 108.624L119.731 99.3759L136.772 108.575L136.853 108.618C137.384 108.904 137.979 109.224 138.221 109.405C138.249 109.542 138.293 109.861 138.299 110.52C138.352 116.482 136.614 122.926 133.271 129.158Z" fill="#F68B21"/>
<path d="M71.8975 84.1048H98.0297C99.6592 84.1048 100.98 82.7838 100.98 81.1543C100.98 79.5248 99.6589 78.2039 98.0297 78.2039H71.8975C70.268 78.2039 68.9473 79.5248 68.9473 81.1543C68.9473 82.7838 70.268 84.1048 71.8975 84.1048Z" fill="white"/>
<path d="M71.8975 99.9203H89.9303C91.5598 99.9203 92.8805 98.5993 92.8805 96.9698C92.8805 95.3403 91.5595 94.0193 89.9303 94.0193H71.8975C70.268 94.0193 68.9473 95.3403 68.9473 96.9698C68.9473 98.5993 70.268 99.9203 71.8975 99.9203Z" fill="white"/>
<path d="M22.293 115.001C22.293 119.155 25.6715 122.535 29.8243 122.535H57.7905C61.9478 122.535 65.3298 119.155 65.3298 115.001C65.3298 109.532 62.9063 104.042 58.6806 99.9399C57.0777 98.384 55.2807 97.0888 53.3729 96.0813C56.72 93.3177 58.8569 89.1376 58.8569 84.4674C58.8569 76.1661 52.1058 69.4126 43.8071 69.4126C35.5132 69.4126 28.7658 76.1661 28.7658 84.4674C28.7658 89.1367 30.901 93.3168 34.2455 96.0804C32.3374 97.0882 30.5403 98.3837 28.9375 99.9405C24.7146 104.042 22.293 109.532 22.293 115.001ZM43.8071 75.3133C48.8521 75.3133 52.9563 79.4195 52.9563 84.4671C52.9563 89.5144 48.8521 93.6206 43.8071 93.6206C38.7669 93.6206 34.6665 89.5144 34.6665 84.4671C34.6665 79.4195 38.7669 75.3133 43.8071 75.3133ZM43.8071 99.5216C51.8371 99.5216 59.4291 107.044 59.4291 115.001C59.4291 115.886 58.6785 116.633 57.7905 116.633H29.8243C28.9404 116.633 28.1937 115.886 28.1937 115.001C28.1937 107.044 35.7815 99.5216 43.8071 99.5216Z" fill="white"/>
<path d="M126.099 114.112L117.669 122.76L114.743 120.02C113.553 118.906 111.686 118.968 110.573 120.158C109.459 121.347 109.521 123.214 110.71 124.328L115.748 129.044C116.316 129.576 117.04 129.84 117.764 129.84C118.532 129.84 119.299 129.542 119.877 128.95L130.325 118.232C131.462 117.065 131.438 115.197 130.271 114.059C129.104 112.921 127.236 112.946 126.099 114.112Z" fill="#F68B21"/>
</g>
<defs>
<clipPath id="clip0_108_4665">
<rect width="150" height="150" fill="white" transform="translate(0.5)"/>
</clipPath>
</defs>
</svg>
