<svg width="151" height="150" viewBox="0 0 151 150" fill="none" xmlns="http://www.w3.org/2000/svg">
<g clip-path="url(#clip0_188_1800)">
<path d="M90.0156 41.1292H109.37V55.6453H90.0156V41.1292Z" fill="#F68B21"/>
<path d="M75.5 75H143.242V94.3548H75.5V75Z" fill="#DFB28B"/>
<path d="M85.1777 55.6453H133.565V75.0001H85.1777V55.6453Z" fill="#F68B21"/>
<path d="M94.8555 65.3228H104.533V75.0002H94.8555V65.3228Z" fill="#69D6F4"/>
<path d="M114.211 65.3228H123.888V75.0002H114.211V65.3228Z" fill="#69D6F4"/>
<path d="M123.887 84.6775H133.564V94.3549H123.887V84.6775Z" fill="#69D6F4"/>
<path d="M104.533 84.6775H114.211V94.3549H104.533V84.6775Z" fill="#69D6F4"/>
<path d="M85.1777 84.6775H94.8551V94.3549H85.1777V84.6775Z" fill="#69D6F4"/>
<path d="M60.9839 75V104.032H36.7904L31.9517 94.3548H17.4355V75H60.9839Z" fill="#CCD1D9"/>
<path d="M143.242 94.355H148.081C148.081 108.266 142.202 120.823 132.79 129.653C130.879 128.807 128.556 128.226 125.508 128.226C113.024 128.226 113.024 137.903 100.516 137.903C88.008 137.903 88.008 128.226 75.5241 128.226C63.016 128.226 63.016 137.903 50.5322 137.903C38.3386 137.903 38.0241 128.71 26.4354 128.25C22.1531 123.871 18.6935 118.694 16.2983 112.984C13.9031 107.226 12.5967 100.936 12.5967 94.355H17.4354H31.9515L36.7902 104.032H60.9838L70.6612 94.355H75.4999H85.1773H94.8547H104.532H114.21H123.887H133.564H143.242Z" fill="#E6E9ED"/>
<path d="M128.725 113.71C131.398 113.71 133.564 111.543 133.564 108.871C133.564 106.199 131.398 104.032 128.725 104.032C126.053 104.032 123.887 106.199 123.887 108.871C123.887 111.543 126.053 113.71 128.725 113.71Z" fill="#69D6F4"/>
<path d="M109.372 113.71C112.044 113.71 114.211 111.543 114.211 108.871C114.211 106.199 112.044 104.032 109.372 104.032C106.7 104.032 104.533 106.199 104.533 108.871C104.533 111.543 106.7 113.71 109.372 113.71Z" fill="#69D6F4"/>
<path d="M90.0164 113.71C92.6888 113.71 94.8551 111.543 94.8551 108.871C94.8551 106.199 92.6888 104.032 90.0164 104.032C87.3441 104.032 85.1777 106.199 85.1777 108.871C85.1777 111.543 87.3441 113.71 90.0164 113.71Z" fill="#69D6F4"/>
<path d="M132.79 129.653C138.766 132.363 141.065 137.903 150.5 137.903V147.581C140.944 147.581 135.621 143.444 132.089 140.71C129.427 138.677 128.46 137.903 125.508 137.903C122.581 137.903 121.589 138.677 118.952 140.71C115.419 143.444 110.073 147.581 100.516 147.581C90.9597 147.581 85.6371 143.444 82.1048 140.71C79.4436 138.677 78.4516 137.903 75.5242 137.903C72.5726 137.903 71.5807 138.677 68.9436 140.71C65.4113 143.444 60.0887 147.581 50.5323 147.581C40.9758 147.581 35.629 143.444 32.0968 140.71C29.4597 138.677 28.4677 137.903 25.5161 137.903C22.5645 137.903 21.5726 138.677 18.9355 140.71C15.4032 143.444 10.0565 147.581 0.5 147.581V137.903C13.0081 137.903 13.0081 128.226 25.5161 128.226C25.8306 128.226 26.1452 128.226 26.4355 128.25C38.0242 128.71 38.3387 137.903 50.5323 137.903C63.0161 137.903 63.0161 128.226 75.5242 128.226C88.0081 128.226 88.0081 137.903 100.516 137.903C113.024 137.903 113.024 128.226 125.508 128.226C128.556 128.226 130.879 128.806 132.79 129.653Z" fill="#69D6F4"/>
<path d="M60.9839 23.1291C60.9839 25.7662 60.4759 28.3791 59.4839 30.8469L59.3872 31.0162C54.3791 43.3549 47.5807 54.8952 39.2097 65.3227C30.8388 54.8952 24.0404 43.3549 19.0323 31.0162L18.9355 30.8469C17.9436 28.3791 17.4355 25.7662 17.4355 23.1291C17.4355 11.6856 26.8952 2.41943 38.5807 2.41943H39.8388C45.6936 2.41943 50.9678 4.74201 54.7904 8.49201C58.613 12.242 60.9839 17.4194 60.9839 23.1291Z" fill="#F68B21"/>
<path d="M39.2101 36.2905C45.8909 36.2905 51.3068 30.8746 51.3068 24.1937C51.3068 17.5128 45.8909 12.0969 39.2101 12.0969C32.5292 12.0969 27.1133 17.5128 27.1133 24.1937C27.1133 30.8746 32.5292 36.2905 39.2101 36.2905Z" fill="#FF826E"/>
<path d="M37.3231 66.8347L39.2101 69.1911L41.0972 66.8347C49.6061 56.221 56.5158 44.4823 61.7126 31.7516C62.8351 29.0032 63.4037 26.1048 63.4037 23.1387C63.4037 10.3815 52.8335 0 39.844 0H38.5787C25.5868 0 15.0166 10.3815 15.0166 23.1387C15.0166 26.1048 15.5851 29.0032 16.7851 31.9427C21.9045 44.4823 28.8142 56.221 37.3231 66.8347ZM38.5763 4.83871H39.8416C50.1674 4.83871 58.565 13.05 58.565 23.1387C58.565 25.4734 58.115 27.7548 57.1545 30.1137C52.5964 41.279 46.5674 51.7911 39.2101 61.4008C31.8529 51.7887 25.8166 41.2669 21.1884 29.9226C20.3053 27.7573 19.8553 25.4734 19.8553 23.1387C19.8553 13.05 28.2529 4.83871 38.5763 4.83871Z" fill="#1037B6"/>
<path d="M39.2095 38.7098C47.2151 38.7098 53.7256 32.1993 53.7256 24.1936C53.7256 16.188 47.2151 9.67749 39.2095 9.67749C31.2038 9.67749 24.6934 16.188 24.6934 24.1936C24.6934 32.1993 31.2038 38.7098 39.2095 38.7098ZM39.2095 14.5162C44.5466 14.5162 48.8869 18.8565 48.8869 24.1936C48.8869 29.5307 44.5466 33.871 39.2095 33.871C33.8724 33.871 29.5321 29.5307 29.5321 24.1936C29.5321 18.8565 33.8724 14.5162 39.2095 14.5162Z" fill="#1037B6"/>
<path d="M125.513 135.484C121.746 135.484 120.224 136.662 117.459 138.803C113.994 141.486 109.25 145.161 100.519 145.161C91.7871 145.161 87.0403 141.486 83.5758 138.803C80.8105 136.662 79.2887 135.484 75.5169 135.484C71.7476 135.484 70.2258 136.662 67.4629 138.803C64.0008 141.486 59.254 145.161 50.5226 145.161C41.7887 145.161 37.0419 141.486 33.575 138.803C30.8097 136.662 29.2855 135.484 25.5113 135.484C21.7371 135.484 20.2129 136.662 17.4476 138.803C13.9806 141.486 9.23387 145.161 0.5 145.161V150C10.8863 150 16.8476 145.389 20.4089 142.631C22.9347 140.676 23.3895 140.323 25.5113 140.323C27.6331 140.323 28.0879 140.676 30.6137 142.631C34.175 145.386 40.1339 150 50.5226 150C60.9065 150 66.8653 145.386 70.429 142.628C72.95 140.676 73.4048 140.323 75.5169 140.323C77.6339 140.323 78.0887 140.676 80.6121 142.631C84.1734 145.386 90.1323 150 100.519 150C110.902 150 116.861 145.386 120.423 142.628C122.946 140.676 123.401 140.323 125.513 140.323C127.623 140.323 128.077 140.676 130.601 142.628C134.16 145.386 140.119 150 150.5 150V145.161C141.773 145.161 137.029 141.486 133.562 138.801C130.799 136.662 129.277 135.484 125.513 135.484Z" fill="#1037B6"/>
<path d="M150.5 91.9354H145.661V72.5805H135.984V53.2257H126.306V38.7096H131.145V33.8709H126.306V29.0322H131.145V24.1934H126.306V19.3547H121.468V24.1934H116.629V29.0322H121.468V33.8709H116.629V38.7096H121.468V53.2257H111.79V38.7096H87.5968V53.2257H82.7581V72.5805H73.0807V91.9354H69.6597L63.4032 98.1918V72.5805H15.0161V91.9354H10.1774V94.3547C10.1774 106.064 14.1258 117.193 21.3863 126.193C16.8887 127.04 14.0605 129.189 11.525 131.151C8.52016 133.476 5.92661 135.484 0.5 135.484V140.322C7.57903 140.322 11.2492 137.482 14.4863 134.978C17.4911 132.653 20.0847 130.645 25.5113 130.645C30.9379 130.645 33.5315 132.653 36.5387 134.978C39.7734 137.482 43.4436 140.322 50.5226 140.322C57.5992 140.322 61.2645 137.482 64.5016 134.978C67.504 132.653 70.0976 130.645 75.5169 130.645C80.9411 130.645 83.5323 132.653 86.5371 134.978C89.7742 137.482 93.4419 140.322 100.519 140.322C107.595 140.322 111.26 137.482 114.498 134.978C117.5 132.653 120.091 130.645 125.513 130.645C130.932 130.645 133.526 132.653 136.526 134.978C139.76 137.482 143.426 140.322 150.5 140.322V135.484C145.081 135.484 142.487 133.476 139.487 131.151C138.604 130.468 137.682 129.764 136.676 129.097C145.465 119.722 150.5 107.262 150.5 94.3547V91.9354ZM92.4355 43.5483H106.952V53.2257H92.4355V43.5483ZM87.5968 58.0644H131.145V72.5805H126.306V62.9031H111.79V72.5805H106.952V62.9031H92.4355V72.5805H87.5968V58.0644ZM121.468 72.5805H116.629V67.7418H121.468V72.5805ZM102.113 72.5805H97.2742V67.7418H102.113V72.5805ZM77.9194 77.4192H82.7581H135.984H140.823V91.9354H135.984V82.2579H121.468V91.9354H116.629V82.2579H102.113V91.9354H97.2742V82.2579H82.7581V91.9354H77.9194V77.4192ZM131.145 91.9354H126.306V87.0967H131.145V91.9354ZM111.79 91.9354H106.952V87.0967H111.79V91.9354ZM92.4355 91.9354H87.5968V87.0967H92.4355V91.9354ZM38.2855 101.613L35.8661 96.7741H58.5645V101.613H38.2855ZM58.5645 77.4192V82.2579H19.8548V77.4192H58.5645ZM19.8548 87.0967H58.5645V91.9354H33.4468H31.9516H19.8548V87.0967ZM132.161 126.83C130.315 126.203 128.152 125.806 125.513 125.806C118.439 125.806 114.771 128.647 111.536 131.151C108.534 133.476 105.94 135.484 100.519 135.484C95.0944 135.484 92.5032 133.476 89.4984 131.151C86.2637 128.647 82.596 125.806 75.5169 125.806C68.4403 125.806 64.775 128.647 61.5379 131.151C58.5379 133.476 55.9444 135.484 50.5226 135.484C45.096 135.484 42.5024 133.476 39.4976 131.151C36.5992 128.908 33.3331 126.414 27.6016 125.913C20.0508 117.929 15.6427 107.7 15.079 96.7741H30.4565L35.2952 106.451H61.9855L71.6629 96.7741H145.601C145.018 108.193 140.283 118.72 132.161 126.83Z" fill="#1037B6"/>
<path d="M90.0159 116.129C94.0175 116.129 97.274 112.872 97.274 108.871C97.274 104.869 94.0175 101.613 90.0159 101.613C86.0143 101.613 82.7578 104.869 82.7578 108.871C82.7578 112.872 86.0143 116.129 90.0159 116.129ZM90.0159 106.452C91.349 106.452 92.4352 107.535 92.4352 108.871C92.4352 110.206 91.349 111.29 90.0159 111.29C88.6828 111.29 87.5965 110.206 87.5965 108.871C87.5965 107.535 88.6828 106.452 90.0159 106.452Z" fill="#1037B6"/>
<path d="M109.371 116.129C113.373 116.129 116.629 112.872 116.629 108.871C116.629 104.869 113.373 101.613 109.371 101.613C105.37 101.613 102.113 104.869 102.113 108.871C102.113 112.872 105.37 116.129 109.371 116.129ZM109.371 106.452C110.704 106.452 111.791 107.535 111.791 108.871C111.791 110.206 110.704 111.29 109.371 111.29C108.038 111.29 106.952 110.206 106.952 108.871C106.952 107.535 108.038 106.452 109.371 106.452Z" fill="#1037B6"/>
<path d="M128.725 116.129C132.726 116.129 135.983 112.872 135.983 108.871C135.983 104.869 132.726 101.613 128.725 101.613C124.723 101.613 121.467 104.869 121.467 108.871C121.467 112.872 124.723 116.129 128.725 116.129ZM128.725 106.452C130.058 106.452 131.144 107.535 131.144 108.871C131.144 110.206 130.058 111.29 128.725 111.29C127.392 111.29 126.306 110.206 126.306 108.871C126.306 107.535 127.392 106.452 128.725 106.452Z" fill="#1037B6"/>
</g>
<defs>
<clipPath id="clip0_188_1800">
<rect width="150" height="150" fill="white" transform="translate(0.5)"/>
</clipPath>
</defs>
</svg>
