<svg width="100" height="100" viewBox="0 0 100 100" fill="none" xmlns="http://www.w3.org/2000/svg">
<g clip-path="url(#clip0_76_4272)">
<path d="M1.5625 4.6875H98.4375V92.1875H1.5625V4.6875Z" fill="#F2FBFF"/>
<path d="M18.75 93.75V60.3883C18.75 59.6238 18.9743 58.8761 19.3952 58.2379C19.816 57.5997 20.4149 57.099 21.1176 56.7979L40.625 48.4375H59.375L78.8824 56.7979C79.5851 57.099 80.184 57.5997 80.6048 58.2379C81.0257 58.8761 81.25 59.6238 81.25 60.3883V93.75H18.75Z" fill="#1037B6"/>
<path d="M59.375 48.4375L64.0625 62.5L50 59.375L59.375 48.4375Z" fill="#FFFDFA"/>
<path d="M40.625 48.4375L35.9375 62.5L50 59.375L40.625 48.4375Z" fill="#FFFDFA"/>
<path d="M1.5625 4.6875H98.4375V17.1875H1.5625V4.6875Z" fill="#F68B21"/>
<path d="M94.5312 98.4375H5.46875C4.43275 98.4375 3.43918 98.026 2.70661 97.2934C1.97405 96.5608 1.5625 95.5673 1.5625 94.5312V89.0625H34.375L37.5 92.1875H62.5L65.625 89.0625H98.4375V94.5312C98.4375 95.5673 98.026 96.5608 97.2934 97.2934C96.5608 98.026 95.5673 98.4375 94.5312 98.4375V98.4375Z" fill="#F68B21"/>
<path d="M59.375 48.4375L50 59.375L40.625 48.4375L43.75 39.0625H56.25L59.375 48.4375Z" fill="#FFD4CF"/>
<path d="M57.3708 42.4246L56.2501 39.0625H43.7501L42.6187 42.457L46.8446 44.5703C47.8264 45.0612 48.9094 45.3154 50.007 45.3126C51.1046 45.3098 52.1863 45.0501 53.1655 44.5543L57.3708 42.4246Z" fill="#FBB8B0"/>
<path d="M51.5625 1.5625H58.5938C59.6298 1.5625 60.6233 1.97405 61.3559 2.70661C62.0885 3.43918 62.5 4.43275 62.5 5.46875V14.0625H51.5625V1.5625Z" fill="#1037B6"/>
<path d="M31.25 30.4688V35.1562C31.25 36.1923 30.8384 37.1858 30.1059 37.9184C29.3733 38.6509 28.3798 39.0625 27.3438 39.0625H20.3125L14.0625 45.3125L12.5 39.0625H11.7188C10.6827 39.0625 9.68918 38.6509 8.95661 37.9184C8.22405 37.1858 7.8125 36.1923 7.8125 35.1562V30.4688C7.8125 29.4327 8.22405 28.4392 8.95661 27.7066C9.68918 26.9741 10.6827 26.5625 11.7188 26.5625H27.3438C28.3798 26.5625 29.3733 26.9741 30.1059 27.7066C30.8384 28.4392 31.25 29.4327 31.25 30.4688Z" fill="#F68B21"/>
<path d="M68.75 36.7188V41.4062C68.75 42.4423 69.1615 43.4358 69.8941 44.1684C70.6267 44.9009 71.6202 45.3125 72.6562 45.3125H79.6875L85.9375 51.5625L87.5 45.3125H88.2812C89.3173 45.3125 90.3108 44.9009 91.0434 44.1684C91.776 43.4358 92.1875 42.4423 92.1875 41.4062V36.7188C92.1875 35.6827 91.776 34.6892 91.0434 33.9566C90.3108 33.2241 89.3173 32.8125 88.2812 32.8125H72.6562C71.6202 32.8125 70.6267 33.2241 69.8941 33.9566C69.1615 34.6892 68.75 35.6827 68.75 36.7188Z" fill="#F68B21"/>
<path d="M62.5 14.0625H37.5V32.7828C37.5 33.871 37.803 34.9377 38.3751 35.8633C38.9472 36.789 39.7658 37.537 40.7391 38.0236L48.2422 41.7752C48.7876 42.0479 49.3893 42.1891 49.999 42.1875C50.6088 42.186 51.2097 42.0417 51.7537 41.7662L59.2879 37.951C60.2541 37.4616 61.0658 36.7141 61.6328 35.7913C62.1998 34.8686 62.5 33.8067 62.5 32.7236V14.0625Z" fill="#FFD4CF"/>
<path d="M47.2029 17.1875H32.8125V7.42188C32.8125 5.86787 33.4298 4.37752 34.5287 3.27867C35.6275 2.17983 37.1179 1.5625 38.6719 1.5625H56.25L52.8152 13.0117C52.4532 14.2187 51.7116 15.2768 50.7006 16.029C49.6896 16.7813 48.4631 17.1875 47.2029 17.1875V17.1875Z" fill="#1037B6"/>
<path d="M62.5 15.625H66.4062C67.4423 15.625 68.4358 16.0366 69.1684 16.7691C69.901 17.5017 70.3125 18.4952 70.3125 19.5312V24.2188C70.3125 25.2548 69.901 26.2483 69.1684 26.9809C68.4358 27.7134 67.4423 28.125 66.4062 28.125H62.5V15.625Z" fill="#1037B6"/>
<path d="M6.25 9.375H9.375V12.5H6.25V9.375Z" fill="black"/>
<path d="M12.5 9.375H15.625V12.5H12.5V9.375Z" fill="black"/>
<path d="M18.75 9.375H21.875V12.5H18.75V9.375Z" fill="black"/>
<path d="M90.625 9.375H93.75V12.5H90.625V9.375Z" fill="black"/>
<path d="M84.375 9.375H87.5V12.5H84.375V9.375Z" fill="black"/>
<path d="M42.1875 21.875H45.3125V25H42.1875V21.875Z" fill="black"/>
<path d="M54.6875 21.875H57.8125V25H54.6875V21.875Z" fill="black"/>
<path d="M48.4375 65.625H51.5625V68.75H48.4375V65.625Z" fill="black"/>
<path d="M48.4375 73.4375H51.5625V76.5625H48.4375V73.4375Z" fill="black"/>
<path d="M11.7188 25C10.2689 25.0017 8.87882 25.5784 7.85359 26.6036C6.82836 27.6288 6.25165 29.0189 6.25 30.4688V35.1563C6.25157 36.5295 6.76907 37.852 7.69992 38.8617C8.63076 39.8713 9.90698 40.4943 11.2756 40.6072L12.5467 45.6914C12.6137 45.9597 12.7508 46.2053 12.9438 46.4033C13.1368 46.6013 13.3789 46.7445 13.6454 46.8183C13.9119 46.8921 14.1932 46.8939 14.4606 46.8235C14.728 46.753 14.9719 46.6129 15.1674 46.4174L20.9596 40.625H27.3438C28.7936 40.6233 30.1837 40.0466 31.2089 39.0214C32.2341 37.9962 32.8108 36.6061 32.8125 35.1563V30.4688C32.8108 29.0189 32.2341 27.6288 31.2089 26.6036C30.1837 25.5784 28.7936 25.0017 27.3438 25H11.7188ZM29.6875 30.4688V35.1563C29.6868 35.7776 29.4397 36.3734 29.0003 36.8128C28.5609 37.2522 27.9651 37.4993 27.3438 37.5H20.3125C20.1073 37.5 19.9041 37.5404 19.7145 37.6189C19.525 37.6974 19.3527 37.8125 19.2076 37.9576L14.909 42.2563L14.0158 38.6836C13.9313 38.3455 13.7362 38.0454 13.4616 37.831C13.1869 37.6165 12.8485 37.5 12.5 37.5H11.7188C11.0974 37.4993 10.5016 37.2522 10.0622 36.8128C9.62282 36.3734 9.37567 35.7776 9.375 35.1563V30.4688C9.37567 29.8474 9.62282 29.2516 10.0622 28.8122C10.5016 28.3728 11.0974 28.1257 11.7188 28.125H27.3438C27.9651 28.1257 28.5609 28.3728 29.0003 28.8122C29.4397 29.2516 29.6868 29.8474 29.6875 30.4688V30.4688Z" fill="black"/>
<path d="M67.1875 36.7187V41.4062C67.1892 42.8561 67.7659 44.2462 68.7911 45.2714C69.8163 46.2966 71.2064 46.8733 72.6562 46.875H79.0404L84.8326 52.6674C85.0281 52.8629 85.272 53.003 85.5394 53.0735C85.8068 53.1439 86.0881 53.1421 86.3546 53.0683C86.6211 52.9945 86.8632 52.8513 87.0562 52.6533C87.2492 52.4553 87.3863 52.2097 87.4533 51.9414L88.7244 46.8572C90.093 46.7443 91.3692 46.1213 92.3001 45.1117C93.2309 44.102 93.7484 42.7795 93.75 41.4062V36.7187C93.7483 35.2689 93.1716 33.8788 92.1464 32.8536C91.1212 31.8284 89.7311 31.2517 88.2812 31.25H72.6562C71.2064 31.2517 69.8163 31.8284 68.7911 32.8536C67.7659 33.8788 67.1892 35.2689 67.1875 36.7187V36.7187ZM70.3125 36.7187C70.3132 36.0974 70.5603 35.5016 70.9997 35.0622C71.4391 34.6228 72.0349 34.3757 72.6562 34.375H88.2812C88.9026 34.3757 89.4984 34.6228 89.9378 35.0622C90.3772 35.5016 90.6243 36.0974 90.625 36.7187V41.4062C90.6243 42.0276 90.3772 42.6234 89.9378 43.0628C89.4984 43.5022 88.9026 43.7493 88.2812 43.75H87.5C87.1515 43.75 86.8131 43.8665 86.5384 44.081C86.2638 44.2954 86.0687 44.5955 85.9842 44.9336L85.091 48.5062L80.7924 44.2076C80.6473 44.0625 80.475 43.9474 80.2855 43.8689C80.0959 43.7904 79.8927 43.75 79.6875 43.75H72.6562C72.0349 43.7493 71.4391 43.5022 70.9997 43.0628C70.5603 42.6234 70.3132 42.0276 70.3125 41.4062V36.7187Z" fill="black"/>
<path d="M96.875 87.5H82.8125V60.3883C82.8133 59.3178 82.4995 58.2707 81.9102 57.377C81.3209 56.4834 80.4821 55.7825 79.4978 55.3615L60.6355 47.2777L58.2812 40.2125L59.9943 39.3449C61.2207 38.7282 62.2509 37.7821 62.9695 36.6125C63.6881 35.4429 64.0666 34.0963 64.0625 32.7236V29.8721L64.4314 29.6877H66.4062C67.8561 29.686 69.2462 29.1093 70.2714 28.0841C71.2966 27.0589 71.8733 25.6688 71.875 24.2189V19.5312C71.8733 18.0814 71.2966 16.6913 70.2714 15.6661C69.2462 14.6409 67.8561 14.0642 66.4062 14.0625H64.0625V5.46875C64.0608 4.01886 63.4841 2.62882 62.4589 1.60359C61.4337 0.578356 60.0436 0.00165419 58.5938 0L38.6719 0C36.7042 0.00222286 34.8177 0.784882 33.4263 2.17627C32.0349 3.56766 31.2522 5.45415 31.25 7.42188V17.1875C31.25 17.6019 31.4146 17.9993 31.7076 18.2924C32.0007 18.5854 32.3981 18.75 32.8125 18.75H35.9375V32.783C35.9328 34.1623 36.3147 35.5153 37.0399 36.6886C37.765 37.8619 38.8045 38.8085 40.0402 39.4211L41.7057 40.2539L39.3645 47.2777L20.5021 55.3617C19.5179 55.7826 18.679 56.4834 18.0897 57.3771C17.5004 58.2707 17.1867 59.3178 17.1875 60.3883V87.5H3.125V42.1875H0V94.5312C0.00165419 95.9811 0.578356 97.3712 1.60359 98.3964C2.62882 99.4216 4.01886 99.9983 5.46875 100H79.6875V96.875H5.46875C4.84736 96.8743 4.2516 96.6272 3.81221 96.1878C3.37282 95.7484 3.12567 95.1526 3.125 94.5312V90.625H33.7279L36.3951 93.2924C36.5402 93.4375 36.7125 93.5526 36.902 93.6311C37.0916 93.7096 37.2948 93.75 37.5 93.75H62.5C62.7052 93.75 62.9084 93.7096 63.098 93.6311C63.2875 93.5526 63.4598 93.4375 63.6049 93.2924L66.2721 90.625H96.875V94.5312C96.8743 95.1526 96.6272 95.7484 96.1878 96.1878C95.7484 96.6272 95.1526 96.8743 94.5312 96.875H82.8125V100H94.5312C95.9811 99.9983 97.3712 99.4216 98.3964 98.3964C99.4216 97.3712 99.9983 95.9811 100 94.5312V71.875H96.875V87.5ZM41.2348 51.5498L47.1189 58.4146L38.2926 60.376L41.2348 51.5498ZM58.7652 51.5498L61.7074 60.376L52.8811 58.4146L58.7652 51.5498ZM66.4062 17.1875C67.0276 17.1882 67.6234 17.4353 68.0628 17.8747C68.5022 18.3141 68.7493 18.9099 68.75 19.5312V24.2188C68.7493 24.8401 68.5022 25.4359 68.0628 25.8753C67.6234 26.3147 67.0276 26.5618 66.4062 26.5625H64.0625V17.1875H66.4062ZM60.9375 5.46875V12.5H54.6002L57.4127 3.125H58.5938C59.2151 3.12567 59.8109 3.37282 60.2503 3.81221C60.6897 4.2516 60.9368 4.84736 60.9375 5.46875V5.46875ZM34.375 7.42188C34.3763 6.28267 34.8294 5.19049 35.635 4.38495C36.4405 3.57941 37.5327 3.12629 38.6719 3.125H54.15L51.318 12.5627C51.0563 13.45 50.5136 14.2283 49.7715 14.7805C49.0294 15.3328 48.128 15.6291 47.2029 15.625H34.375V7.42188ZM39.0625 32.783V18.75H47.2029C48.39 18.7554 49.5609 18.4742 50.6159 17.9301C51.671 17.386 52.5791 16.5953 53.2631 15.625H60.9375V27.9406L51.1936 32.8125H46.875V35.9375H51.5625C51.8051 35.9375 52.0444 35.881 52.2613 35.7725L60.9375 31.4344V32.7234C60.9398 33.5182 60.7205 34.2979 60.3044 34.975C59.8883 35.6522 59.2917 36.2 58.5816 36.557L51.0477 40.3721C50.721 40.5365 50.3606 40.6226 49.9949 40.6235C49.6292 40.6244 49.2683 40.5401 48.9408 40.3773L41.4377 36.6258C40.7223 36.2711 40.1206 35.7232 39.7007 35.0439C39.2809 34.3647 39.0598 33.5815 39.0625 32.783V32.783ZM47.5432 43.1736C48.3073 43.5537 49.1495 43.7504 50.0029 43.7482C50.8563 43.746 51.6974 43.5449 52.4596 43.1609L55.4619 41.6406L57.6131 48.0932L50 56.974L42.3869 48.0922L44.5293 41.6664L47.5432 43.1736ZM65.625 87.5C65.4198 87.5 65.2166 87.5404 65.027 87.6189C64.8375 87.6974 64.6652 87.8125 64.5201 87.9576L61.8529 90.625H38.1471L35.4799 87.9576C35.3348 87.8125 35.1625 87.6974 34.973 87.6189C34.7834 87.5404 34.5802 87.5 34.375 87.5H32.8125V75H29.6875V87.5H20.3125V60.3883C20.3122 59.9295 20.4466 59.4808 20.6992 59.0978C20.9517 58.7148 21.3112 58.4144 21.733 58.234L38.0416 51.2443L34.4545 62.0061C34.367 62.2684 34.3507 62.5492 34.4073 62.8199C34.4639 63.0906 34.5912 63.3414 34.7764 63.5467C34.9616 63.7521 35.198 63.9046 35.4614 63.9887C35.7248 64.0729 36.0058 64.0856 36.2758 64.0256L50 60.9766L63.7236 64.0264C63.9936 64.0864 64.2746 64.0737 64.538 63.9895C64.8014 63.9054 65.0378 63.7529 65.223 63.5475C65.4082 63.3422 65.5356 63.0914 65.5921 62.8207C65.6487 62.55 65.6324 62.2692 65.5449 62.0068L61.9578 51.2451L78.2664 58.2346C78.6882 58.4149 79.0477 58.7152 79.3003 59.098C79.553 59.4809 79.6876 59.9296 79.6875 60.3883V87.5H70.3125V75H67.1875V87.5H65.625Z" fill="black"/>
<path d="M98.4375 3.125H67.1875V6.25H96.875V15.625H75V18.75H96.875V68.75H100V4.6875C100 4.2731 99.8354 3.87567 99.5424 3.58265C99.2493 3.28962 98.8519 3.125 98.4375 3.125V3.125Z" fill="black"/>
<path d="M3.125 18.75H28.125V15.625H3.125V6.25H28.125V3.125H1.5625C1.1481 3.125 0.750671 3.28962 0.457646 3.58265C0.16462 3.87567 0 4.2731 0 4.6875L0 39.0625H3.125V18.75Z" fill="black"/>
</g>
<defs>
<clipPath id="clip0_76_4272">
<rect width="100" height="100" fill="white"/>
</clipPath>
</defs>
</svg>
