<svg width="151" height="150" viewBox="0 0 151 150" fill="none" xmlns="http://www.w3.org/2000/svg">
<g clip-path="url(#clip0_108_4813)">
<path d="M140.367 130.185H26.395V35.0027L65.4225 11.5883V1.28027H85.9107C86.8139 1.28027 87.7008 1.51828 88.4837 1.97299L142.94 33.5196C144.522 34.4378 145.498 36.1289 145.498 37.9577V125.052C145.498 127.886 143.199 130.185 140.367 130.185Z" fill="#1037B6"/>
<path d="M140.364 131.468H26.3975C25.6897 131.468 25.1147 130.893 25.1147 130.185V35.0027C25.1147 34.5505 25.3515 34.1358 25.7386 33.9016L64.1397 10.8592V1.28271C64.1397 0.574964 64.7146 0 65.4224 0H85.9106C87.0393 0 88.1529 0.29813 89.1274 0.864325L143.584 32.411C145.557 33.5534 146.78 35.6804 146.78 37.9602V125.054C146.778 128.592 143.902 131.468 140.364 131.468ZM27.6802 128.902H140.367C142.488 128.902 144.215 127.176 144.215 125.054V37.9602C144.215 36.5935 143.481 35.3183 142.298 34.6306L87.8397 3.08401C87.2547 2.74455 86.5871 2.56542 85.9106 2.56542H66.7051V11.5882C66.7051 12.0392 66.4696 12.4551 66.0825 12.688L27.6777 35.7317V128.902H27.6802Z" fill="#63312D"/>
<path d="M119.844 130.185H11.0024C8.16768 130.185 5.87158 127.889 5.87158 125.054V37.9577C5.87158 36.1288 6.84614 34.4352 8.42948 33.5195L62.8494 1.97292C64.4403 1.04972 66.4057 1.04972 67.9965 1.97292L122.416 33.5195C123.999 34.4377 124.974 36.1288 124.974 37.9577V125.052C124.974 127.886 122.676 130.185 119.844 130.185Z" fill="#1037B6"/>
<path d="M11.0024 127.994V40.8976C11.0024 39.0688 11.977 37.3752 13.5603 36.4595L67.9803 4.91288C69.5047 4.02976 71.3624 4.01724 72.9169 4.82519L67.9965 1.97292C66.4057 1.04972 64.4403 1.04972 62.8494 1.97292L8.42948 33.5195C6.84614 34.4377 5.87158 36.1288 5.87158 37.9577V125.052C5.87158 127.886 8.16768 130.182 11.0024 130.182H11.511C11.1953 129.517 11.0024 128.782 11.0024 127.994Z" fill="#CAF4FF"/>
<path d="M119.841 131.468H11.0049C7.46989 131.468 4.59131 128.592 4.59131 125.054V37.9601C4.59131 35.6803 5.81765 33.5533 7.78806 32.4109L62.2055 0.864267C64.1884 -0.281904 66.6574 -0.281904 68.6378 0.864267L123.058 32.4109C125.028 33.5533 126.255 35.6803 126.255 37.9601V125.054C126.255 128.592 123.378 131.468 119.841 131.468ZM65.4223 2.56536C64.7559 2.56536 64.0882 2.73697 63.4932 3.08396L9.07328 34.6306C7.89078 35.3183 7.15422 36.5935 7.15422 37.9601V125.054C7.15422 127.176 8.88162 128.902 11.0023 128.902H119.841C121.962 128.902 123.689 127.176 123.689 125.054V37.9601C123.689 36.5935 122.955 35.3183 121.773 34.6306L67.3526 3.08396C66.7564 2.73697 66.09 2.56536 65.4223 2.56536Z" fill="#63312D"/>
<path d="M25.021 55.7151H107.553V130.185H25.021V55.7151Z" fill="#EEEEEE"/>
<path d="M107.553 131.468H25.021C24.312 131.468 23.7383 130.893 23.7383 130.185V55.7151C23.7383 55.0073 24.312 54.4324 25.021 54.4324H107.553C108.261 54.4324 108.835 55.0073 108.835 55.7151V130.182C108.835 130.893 108.261 131.468 107.553 131.468ZM26.3037 128.902H106.27V56.9978H26.3037V128.902Z" fill="#63312D"/>
<path d="M124.025 33.72H144.549V36.2854H124.025V33.72Z" fill="#63312D"/>
<path d="M25.021 55.7151H107.553V66.6908H25.021V55.7151Z" fill="#F68B21"/>
<path d="M25.021 66.6909H107.553V77.6653H25.021V66.6909Z" fill="#F68B21"/>
<path d="M25.021 77.6653H107.553V88.6397H25.021V77.6653Z" fill="#F68B21"/>
<path d="M107.553 67.9736H25.021C24.312 67.9736 23.7383 67.3987 23.7383 66.6909V55.719C23.7383 55.01 24.312 54.4363 25.021 54.4363H107.553C108.261 54.4363 108.835 55.01 108.835 55.719V66.6909C108.835 67.3987 108.261 67.9736 107.553 67.9736ZM26.3037 65.4082H106.27V57.0017H26.3037V65.4082Z" fill="#63312D"/>
<path d="M107.553 78.9455H25.021C24.312 78.9455 23.7383 78.3706 23.7383 77.6628V66.6909C23.7383 65.9832 24.312 65.4082 25.021 65.4082H107.553C108.261 65.4082 108.835 65.9832 108.835 66.6909V77.6628C108.835 78.3706 108.261 78.9455 107.553 78.9455ZM26.3037 76.3801H106.27V67.9736H26.3037V76.3801Z" fill="#63312D"/>
<path d="M107.553 89.92H25.021C24.312 89.92 23.7383 89.3463 23.7383 88.6373V77.6628C23.7383 76.9551 24.312 76.3801 25.021 76.3801H107.553C108.261 76.3801 108.835 76.9551 108.835 77.6628V88.6373C108.835 89.3488 108.261 89.92 107.553 89.92ZM26.3037 87.3546H106.27V78.9455H26.3037V87.3546Z" fill="#63312D"/>
<path d="M68.9424 116.973H103.994V148.72H68.9424V116.973Z" fill="#F68B21"/>
<path d="M103.992 150H68.9429C68.2351 150 67.6602 149.425 67.6602 148.718V116.971C67.6602 116.262 68.2351 115.688 68.9429 115.688H103.994C104.702 115.688 105.277 116.262 105.277 116.971V148.718C105.275 149.428 104.702 150 103.992 150ZM70.2256 147.435H102.712V118.253H70.2256V147.435Z" fill="#63312D"/>
<path d="M59.4482 116.973H94.4985V148.72H59.4482V116.973Z" fill="#F68B21"/>
<path d="M64.5791 122.104H94.496V116.973H59.4482V148.72H64.5791V122.104Z" fill="#FFEECF"/>
<path d="M94.4961 150H59.4458C58.7368 150 58.1631 149.425 58.1631 148.718V116.971C58.1631 116.262 58.7368 115.688 59.4458 115.688H94.4961C95.2051 115.688 95.7788 116.262 95.7788 116.971V148.718C95.7788 149.428 95.2051 150 94.4961 150ZM60.7285 147.435H93.2133V118.253H60.7285V147.435Z" fill="#63312D"/>
<path d="M73.0645 116.973H80.8797V127.556H73.0645V116.973Z" fill="#F8F3F3"/>
<path d="M80.8802 128.836H73.0649C72.3572 128.836 71.7822 128.261 71.7822 127.553V116.971C71.7822 116.262 72.3572 115.688 73.0649 115.688H80.8802C81.5879 115.688 82.1629 116.262 82.1629 116.971V127.553C82.1629 128.263 81.5879 128.836 80.8802 128.836ZM74.3476 126.27H79.5975V118.253H74.3476V126.27Z" fill="#63312D"/>
<path d="M103.991 116.973H139.043V148.72H103.991V116.973Z" fill="#F68B21"/>
<path d="M139.043 150H103.992C103.284 150 102.709 149.425 102.709 148.718V116.971C102.709 116.262 103.284 115.688 103.992 115.688H139.043C139.751 115.688 140.326 116.262 140.326 116.971V148.718C140.326 149.428 139.751 150 139.043 150ZM105.274 147.435H137.76V118.253H105.274V147.435Z" fill="#63312D"/>
<path d="M94.4961 116.973H129.548V148.72H94.4961V116.973Z" fill="#F68B21"/>
<path d="M99.2449 121.718H129.548V116.973H94.4961V148.72H99.2449V121.718Z" fill="#FFEECF"/>
<path d="M129.548 150H94.4966C93.7888 150 93.2139 149.425 93.2139 148.718V116.971C93.2139 116.262 93.7888 115.688 94.4966 115.688H129.548C130.257 115.688 130.831 116.262 130.831 116.971V148.718C130.831 149.428 130.257 150 129.548 150ZM95.7793 147.435H128.265V118.253H95.7793V147.435Z" fill="#63312D"/>
<path d="M108.116 116.973H115.93V127.556H108.116V116.973Z" fill="#F8F3F3"/>
<path d="M115.931 128.836H108.117C107.409 128.836 106.834 128.261 106.834 127.553V116.971C106.834 116.262 107.409 115.688 108.117 115.688H115.931C116.64 115.688 117.213 116.262 117.213 116.971V127.553C117.213 128.263 116.64 128.836 115.931 128.836ZM109.399 126.27H114.648V118.253H109.399V126.27Z" fill="#63312D"/>
<path d="M95.3379 85.2263H130.389V116.973H95.3379V85.2263Z" fill="#F68B21"/>
<path d="M130.39 118.253H95.3384C94.6306 118.253 94.0557 117.678 94.0557 116.971V85.2236C94.0557 84.5146 94.6306 83.9409 95.3384 83.9409H130.39C131.098 83.9409 131.673 84.5146 131.673 85.2236V116.971C131.673 117.681 131.098 118.253 130.39 118.253ZM96.6211 115.688H129.107V86.5063H96.6211V115.688Z" fill="#63312D"/>
<path d="M85.8447 85.2263H120.895V116.973H85.8447V85.2263Z" fill="#F68B21"/>
<path d="M90.5897 89.9713H120.895V85.2263H85.8447V116.973H90.5897V89.9713Z" fill="#FFEECF"/>
<path d="M120.895 118.253H85.8442C85.1352 118.253 84.5615 117.678 84.5615 116.971V85.2236C84.5615 84.5146 85.1352 83.9409 85.8442 83.9409H120.895C121.604 83.9409 122.177 84.5146 122.177 85.2236V116.971C122.177 117.681 121.604 118.253 120.895 118.253ZM87.1269 115.688H119.612V86.5063H87.1269V115.688Z" fill="#63312D"/>
<path d="M99.4629 85.2263H107.278V95.8087H99.4629V85.2263Z" fill="#F8F3F3"/>
<path d="M107.276 97.0887H99.4634C98.7556 97.0887 98.1807 96.5137 98.1807 95.806V85.2236C98.1807 84.5146 98.7556 83.9409 99.4634 83.9409H107.276C107.984 83.9409 108.559 84.5146 108.559 85.2236V95.806C108.559 96.5162 107.984 97.0887 107.276 97.0887ZM100.746 94.5233H105.993V86.5063H100.746V94.5233Z" fill="#63312D"/>
</g>
<defs>
<clipPath id="clip0_108_4813">
<rect width="150" height="150" fill="white" transform="translate(0.5)"/>
</clipPath>
</defs>
</svg>
